<?xml version="1.0" encoding="UTF-8" standalone="no"?>
<svg
   xmlns:dc="http://purl.org/dc/elements/1.1/"
   xmlns:cc="http://creativecommons.org/ns#"
   xmlns:rdf="http://www.w3.org/1999/02/22-rdf-syntax-ns#"
   xmlns:svg="http://www.w3.org/2000/svg"
   xmlns="http://www.w3.org/2000/svg"
   viewBox="0 0 200 200"
   height="200"
   width="200"
   xml:space="preserve"
   version="1.1"
   id="svg2"><metadata
     id="metadata8"><rdf:RDF><cc:Work
         rdf:about=""><dc:format>image/svg+xml</dc:format><dc:type
           rdf:resource="http://purl.org/dc/dcmitype/StillImage" /><dc:title></dc:title></cc:Work></rdf:RDF></metadata><defs
     id="defs6" /><g
     transform="matrix(1.25,0,0,-1.25,4.7795517,212.77913)"
     id="g10"><path
       d="m 118.68208,59.392038 c 1.96255,-5.545167 3.19813,-9.027667 6.84486,-15.622189 0.56272,-0.522676 0.90717,-1.602071 -7.15125,2.152781 -4.37165,2.032628 -10.51358,5.318875 -16.91186,8.354798 C 84.183487,50.30229 70.157366,50.692795 56.609858,51.491828 37.693411,52.611275 34.955873,57.225238 24.920904,65.033328 17.581419,70.79878 8.7039463,80.545375 9.9155123,95.9633 c 0,4.30156 0.9552347,9.71656 2.8717117,16.247 -1.455882,9.84872 -3.6527207,12.68039 -5.7574407,12.56424 C 3.9558109,124.60232 1.0921089,118.14798 1.0921089,118.14798 0.23900666,104.3181 -1.1988517,95.68094 0.13086696,82.688145 1.9051595,65.329712 11.403435,59.478149 15.516751,55.567095 19.624059,51.64803 33.892499,43.169073 49.060102,41.384766 c 13.59557,-1.596063 37.252137,-0.156202 52.255538,2.933791 10.7559,-2.675457 24.97027,-10.834001 33.12081,-14.628905 8.05041,-3.746842 7.71397,-2.675457 7.14923,-2.158791 -5.46706,9.888781 -5.30284,12.187752 -10.7559,26.197858 1.3137,1.001294 2.6294,2.17481 4.00518,3.6367 8.2066,8.699242 12.00752,15.544089 9.62244,16.178908 -2.22889,0.640828 -4.45976,0.953232 -6.68865,0.953232 C 132.26164,68.88831 128.97538,62.458 118.68208,59.392038 Z"
       style="fill:#ffffff;fill-opacity:1;fill-rule:nonzero;stroke:none"
       id="path46" /><path
       d="m 146.1616,96.67422 c -0.10817,0 -0.21027,0 -0.32042,-0.006 -9.91881,-0.25233 -24.35147,-2.395101 -33.8938,-5.022496 -9.53632,-2.629398 -14.184335,-5.743422 -23.546439,-7.932251 -9.364104,-2.182821 -27.050956,-2.190831 -36.391028,-1.471902 -9.340071,0.712921 -8.973597,3.50453 -18.876395,9.630446 -5.280824,3.410413 -11.625024,-6.015775 -6.210026,-9.207901 11.106354,-6.874883 22.066518,-10.012939 32.712277,-10.858031 10.64776,-0.84309 20.98111,0.610789 30.861887,2.91777 9.878774,2.308984 23.161934,6.736707 32.407894,9.27799 9.24594,2.551298 14.4727,3.216157 23.17194,3.43444 6.15596,-0.05407 6.24207,9.175855 0.0841,9.237935 z"
       style="fill:#ffffff;fill-opacity:1;fill-rule:evenodd;stroke:none"
       id="path48" /><path
       d="m 149.566,123.48287 c -4.8743,-0.11618 -11.00623,-0.64884 -15.72432,-1.58004 -4.70809,-0.93121 -8.00234,-2.25292 -12.6103,-3.62268 -4.61396,-1.36777 -8.511,-2.18884 -13.0789,-3.62068 -4.56791,-1.43986 -9.808685,-3.49652 -14.394609,-4.63199 -9.167859,-2.26092 -18.397777,-4.37165 -27.894053,-2.90175 -9.24595,1.42384 -19.000556,4.86629 -30.423318,10.23923 -5.334895,3.36435 -7.21132,-3.90305 -4.748137,-7.92424 8.464941,-7.16526 11.711135,-7.40757 23.444298,-8.31475 11.743177,-0.89916 31.979333,-2.46318 41.836074,-0.0621 9.746595,2.37707 16.263025,6.25008 25.180555,8.9015 8.9095,2.65143 20.2061,4.08327 28.639,4.28755 3.12204,0.038 3.01189,0.28036 2.94982,2.61137 -0.0561,2.32501 -0.0561,6.7367 -3.17611,6.61856 z"
       style="fill:#ffffff;fill-opacity:1;fill-rule:evenodd;stroke:none"
       id="path50" /><path
       d="m 124.64178,143.6269 c -0.10817,-0.008 -0.21828,-0.016 -0.32041,-0.024 -9.08174,-0.95523 -16.15287,-2.83167 -22.24674,-4.78018 -6.093895,-1.94652 -11.210499,-3.9491 -16.389199,-5.13864 -5.178687,-1.18954 -19.282917,-0.82908 -26.392104,0.07 -7.111191,0.90718 -7.229344,2.35505 -19.040608,7.07916 -2.887732,1.21357 -5.805503,-3.34833 -6.672624,-5.51513 -0.861112,-2.1668 0.312404,-1.94651 3.246195,-3.05796 12.311912,-4.92035 22.03648,-7.50169 30.195024,-8.51099 8.150535,-1.00931 14.729031,-0.44657 20.728794,0.93921 6.007763,1.37579 10.811967,4.73212 16.615482,6.60254 5.8055,1.87642 12.60228,2.25892 20.91903,3.12804 6.3442,0.51666 12.0696,11.1464 -0.64284,9.2079 z"
       style="fill:#ffffff;fill-opacity:1;fill-rule:evenodd;stroke:none"
       id="path52" /></g></svg>