<?xml version="1.0" encoding="UTF-8" standalone="no"?>
<svg
   xmlns:dc="http://purl.org/dc/elements/1.1/"
   xmlns:cc="http://creativecommons.org/ns#"
   xmlns:rdf="http://www.w3.org/1999/02/22-rdf-syntax-ns#"
   xmlns:svg="http://www.w3.org/2000/svg"
   xmlns="http://www.w3.org/2000/svg"
   xmlns:sodipodi="http://sodipodi.sourceforge.net/DTD/sodipodi-0.dtd"
   xmlns:inkscape="http://www.inkscape.org/namespaces/inkscape"
   viewBox="0 0 44000 44000"
   preserveAspectRatio="xMinYMin meet"
   width="44"
   height="44"
   version="1.1"
   id="svg4"
   sodipodi:docname="channel.svg"
   inkscape:version="0.92.5 (2060ec1f9f, 2020-04-08)">
  <metadata
     id="metadata10">
    <rdf:RDF>
      <cc:Work
         rdf:about="">
        <dc:format>image/svg+xml</dc:format>
        <dc:type
           rdf:resource="http://purl.org/dc/dcmitype/StillImage" />
      </cc:Work>
    </rdf:RDF>
  </metadata>
  <defs
     id="defs8" />
  <sodipodi:namedview
     pagecolor="#ffffff"
     bordercolor="#666666"
     borderopacity="1"
     objecttolerance="10"
     gridtolerance="10"
     guidetolerance="10"
     inkscape:pageopacity="0"
     inkscape:pageshadow="2"
     inkscape:window-width="1235"
     inkscape:window-height="1264"
     id="namedview6"
     showgrid="false"
     inkscape:zoom="5.3636364"
     inkscape:cx="-5.5"
     inkscape:cy="22"
     inkscape:window-x="1896"
     inkscape:window-y="336"
     inkscape:window-maximized="0"
     inkscape:current-layer="svg4" />
  <g
     id="g875"
     transform="matrix(1142.8571,0,0,1142.8571,0,0.00165)">
    <g
       id="g819">
	<path
   id="path817"
   d="M 19.25,0 C 8.636,0 0,8.636 0,19.25 0,29.864 8.636,38.5 19.25,38.5 29.863,38.5 38.5,29.864 38.5,19.25 38.5,8.636 29.865,0 19.25,0 Z M 3.078,20.75 h 4.233 c 0.162,2.047 0.656,4.023 1.431,5.875 H 4.789 C 3.871,24.831 3.271,22.852 3.078,20.75 Z M 20.75,8.875 V 5.582 c 1.42,0.911 2.684,2.021 3.738,3.293 z m 5.713,3 c 0.928,1.811 1.518,3.8 1.709,5.875 H 20.75 v -5.875 z m -8.713,-3 H 14.011 C 15.07,7.603 16.33,6.493 17.75,5.582 Z m 0,3 v 5.875 h -7.422 c 0.193,-2.075 0.781,-4.064 1.709,-5.875 z M 7.312,17.75 H 3.078 C 3.27,15.649 3.871,13.669 4.789,11.875 h 3.953 c -0.774,1.851 -1.268,3.828 -1.43,5.875 z m 3.018,3 h 7.422 v 5.875 H 12.039 C 11.11,24.814 10.522,22.825 10.33,20.75 Z m 7.42,8.875 v 3.293 c -1.42,-0.911 -2.682,-2.021 -3.739,-3.293 z m 3,0 h 3.738 c -1.057,1.271 -2.318,2.382 -3.738,3.293 z m 0,-3 V 20.75 h 7.422 c -0.191,2.075 -0.781,4.064 -1.709,5.875 z M 31.188,20.75 h 4.235 c -0.192,2.102 -0.795,4.081 -1.713,5.875 h -3.95 c 0.773,-1.852 1.267,-3.828 1.428,-5.875 z m 0,-3 c -0.16,-2.047 -0.654,-4.024 -1.428,-5.875 h 3.95 c 0.918,1.794 1.521,3.774 1.713,5.875 z M 31.746,8.875 H 28.199 C 26.836,6.75 25.051,4.9 22.936,3.438 c 3.503,0.817 6.582,2.758 8.81,5.437 z M 15.563,3.438 C 13.453,4.9 11.667,6.751 10.303,8.875 H 6.755 C 8.985,6.196 12.06,4.255 15.563,3.438 Z M 6.756,29.625 h 3.548 c 1.362,2.125 3.147,3.975 5.26,5.438 C 12.06,34.245 8.985,32.305 6.756,29.625 Z m 16.182,5.437 c 2.111,-1.463 3.896,-3.313 5.263,-5.438 h 3.547 c -2.23,2.681 -5.309,4.621 -8.81,5.438 z"
   inkscape:connector-curvature="0" />

</g>
    <g
       id="g821">
</g>
    <g
       id="g823">
</g>
    <g
       id="g825">
</g>
    <g
       id="g827">
</g>
    <g
       id="g829">
</g>
    <g
       id="g831">
</g>
    <g
       id="g833">
</g>
    <g
       id="g835">
</g>
    <g
       id="g837">
</g>
    <g
       id="g839">
</g>
    <g
       id="g841">
</g>
    <g
       id="g843">
</g>
    <g
       id="g845">
</g>
    <g
       id="g847">
</g>
    <g
       id="g849">
</g>
  </g>
</svg>
