<svg xmlns="http://www.w3.org/2000/svg" viewBox="0 0 44000 44000" preserveAspectRatio="xMinYMin meet" width="44" height="44"><path d="M22006.112 0c-2315.823 128.678-4309.203 997.395-5981.743 2605.664-1672.539 1608.225-2830.888 3505.034-3474.173 5692.197-771.941 2959.14-514.53 5982.153 772.038 9069.926 1029.255 1929.852 2380.664 3474.293 4053.203 4632.213l-3667.183 1737.08-9648.926 4439.219c-1029.255 514.621-1544.078 1349.674-1544.078 2507.594v9071.432C2386.594 42457.11 3158.826 43871.322 4831.366 44000h34544.058c771.941-257.311 1318.907-643.432 1640.582-1158.053 321.674-514.666 482.524-932.99 482.524-1254.573V30683.893c0-1157.92-450.47-1928.612-1351.067-2314.556l-9262.907-4632.257-4053.203-1930.074c2444.481-1415.231 4053.3-3859.085 4825.241-7332.846 514.628-1929.853 514.628-3924.775 0-5983.26-643.283-2315.841-1833.843-4277.01-3570.678-5885.236C26349.082 997.394 24322.002 128.678 22006.112 0zm-1626.573 26117.016h3137.963v5354.446h5457.192v3167.548h-5457.192v5370.038h-3137.963V34639.01h-5354.461v-3167.548h5354.461z"/></svg>