<svg xmlns="http://www.w3.org/2000/svg" viewBox="0 0 1000 1000" preserveAspectRatio="xMinYMin meet" style="width:512px;height:512px"><path d="M497.688 172.469c-36.347 2.019-67.656 15.633-93.907 40.875-26.25 25.241-44.403 55.047-54.5 89.375-12.115 46.443-8.099 93.88 12.094 142.344 16.154 30.289 37.374 54.514 63.625 72.687l-57.563 27.281L216 614.688c-16.154 8.077-24.219 21.201-24.219 39.375v142.343c-2.019 42.405 10.093 64.637 36.344 66.657h542.156c12.116-4.039 20.702-10.11 25.75-18.188 5.049-8.077 7.594-14.64 7.594-19.688V654.063c0-18.173-7.084-30.285-21.219-36.343L637.031 545.03l-63.625-30.312c38.366-22.212 63.603-60.574 75.719-115.094 8.077-30.29 8.077-61.598 0-93.906-10.096-36.347-28.772-67.134-56.031-92.375-27.26-25.242-59.059-38.856-95.407-40.875zM246.28 239.094c-38.366 2.019-68.631 17.658-90.844 46.937-22.212 29.28-33.343 62.09-33.343 98.438 2.019 62.597 24.251 107.03 66.656 133.281L16.094 596.5C5.997 602.558.937 612.646.937 626.781v136.313c0 22.212 9.108 33.312 27.282 33.312H140.28V654.063c0-18.174 4.538-34.825 13.625-49.97 9.087-15.143 21.721-26.765 37.875-34.843l115.094-54.531c10.096-6.058 18.16-13.11 24.219-21.188-12.116-18.173-22.204-39.393-30.281-63.625-8.078-24.231-12.125-49.468-12.125-75.719 0-16.154 2.023-32.314 6.062-48.468 4.039-16.154 9.098-31.272 15.156-45.406-20.192-14.135-41.413-21.22-63.625-21.22zm508.875 0c-22.212 0-44.444 7.084-66.656 21.219 12.116 30.289 18.188 61.566 18.188 93.875 0 50.481-13.125 96.938-39.375 139.343 8.077 8.077 18.165 16.142 30.28 24.219 12.116 8.077 23.217 14.149 33.313 18.188 10.097 4.038 23.221 9.588 39.375 16.656s28.267 12.617 36.344 16.656c16.154 8.077 28.788 19.699 37.875 34.844s13.625 31.796 13.625 49.968v142.344h115.094c18.173-2.019 27.281-13.12 27.281-33.312V626.78c0-14.135-5.06-24.223-15.156-30.281l-169.625-81.781c42.405-30.29 63.625-73.71 63.625-130.25 0-38.366-12.113-72.159-36.344-101.438-24.231-29.279-53.516-43.936-87.844-43.937zM474.625 584.875h49.156v83.906h85.469v49.594h-85.469v84.094h-49.156v-84.094H390.75v-49.594h83.875v-83.906z"/></svg>