<svg xmlns="http://www.w3.org/2000/svg" width="50" height="50"><g fill-rule="evenodd"><path d="M14.075 37.77c-1.614.574-2.383 2.328-2.093 3.723.29 1.396 1.695 2.698 3.405 2.58l9.327-.508c.952-.046 1.852-.507 2.389-1.179a3.277 3.277 0 00.701-2.245 3.28 3.28 0 00-.942-2.156c-.606-.609-1.55-.969-2.5-.911l-9.353.51.022.001a3.25 3.25 0 00-.954.185h-.001zm.545 1.53a1.625 1.625 0 01.478-.093l9.36-.511a1.625 1.625 0 11.178 3.246l-9.36.51a1.625 1.625 0 01-.656-3.152z" style="line-height:normal;text-indent:0;text-align:start;text-decoration-line:none;text-decoration-style:solid;text-decoration-color:#000;text-transform:none;block-progression:tb;white-space:normal;isolation:auto;mix-blend-mode:normal;solid-color:#000;solid-opacity:1" color="#000" font-weight="400" font-family="sans-serif" overflow="visible"/><path d="M32.257 4.24a3.791 3.791 0 00-2.079 4.94l1.093 2.797L5.934 32.53l-.233-.596a2.708 2.708 0 00-3.559-1.559 2.708 2.708 0 00-1.485 3.53l3.426 8.768a2.708 2.708 0 105.044-1.97l-.215-.55 32.701-1.703.643 1.644a3.791 3.791 0 107.06-2.759L37.24 6.422a3.791 3.791 0 00-4.982-2.181z"/></g></svg>