<?xml version="1.0" encoding="UTF-8" standalone="no"?>
<svg
   xmlns:dc="http://purl.org/dc/elements/1.1/"
   xmlns:cc="http://creativecommons.org/ns#"
   xmlns:rdf="http://www.w3.org/1999/02/22-rdf-syntax-ns#"
   xmlns:svg="http://www.w3.org/2000/svg"
   xmlns="http://www.w3.org/2000/svg"
   xmlns:sodipodi="http://sodipodi.sourceforge.net/DTD/sodipodi-0.dtd"
   xmlns:inkscape="http://www.inkscape.org/namespaces/inkscape"
   aria-hidden="true"
   data-prefix="fas"
   data-icon="microphone"
   class="svg-inline--fa fa-microphone fa-w-11"
   width="44"
   height="44"
   version="1.1"
   id="svg4"
   sodipodi:docname="microphone-disabled.svg"
   inkscape:version="0.92.5 (2060ec1f9f, 2020-04-08)">
  <metadata
     id="metadata10">
    <rdf:RDF>
      <cc:Work
         rdf:about="">
        <dc:format>image/svg+xml</dc:format>
        <dc:type
           rdf:resource="http://purl.org/dc/dcmitype/StillImage" />
        <dc:title></dc:title>
      </cc:Work>
    </rdf:RDF>
  </metadata>
  <defs
     id="defs8" />
  <sodipodi:namedview
     pagecolor="#ffffff"
     bordercolor="#666666"
     borderopacity="1"
     objecttolerance="10"
     gridtolerance="10"
     guidetolerance="10"
     inkscape:pageopacity="0"
     inkscape:pageshadow="2"
     inkscape:window-width="1249"
     inkscape:window-height="1072"
     id="namedview6"
     showgrid="false"
     inkscape:zoom="5.3636364"
     inkscape:cx="-5.5"
     inkscape:cy="22"
     inkscape:window-x="660"
     inkscape:window-y="499"
     inkscape:window-maximized="0"
     inkscape:current-layer="svg4" />
  <path
     d="M 21.759766 0.00390625 A 8.25 8.25 0 0 0 13.75 8.25 L 13.75 22 A 8.25 8.25 0 0 0 14.005859 23.996094 L 30.212891 7.5097656 A 8.25 8.25 0 0 0 21.759766 0.00390625 z M 8.25 16.5 C 7.49 16.5 6.875 17.115 6.875 17.875 L 6.875 21.326172 C 6.875 24.136849 7.6132824 26.832044 8.9101562 29.177734 L 11.9375 26.099609 C 11.339036 24.673496 11 23.118158 11 21.509766 L 11 17.875 C 11 17.115 10.385 16.5 9.625 16.5 L 8.25 16.5 z M 34.375 16.5 C 33.615 16.5 33 17.115 33 17.875 L 33 22 C 33 28.428 27.458391 33.586266 20.900391 32.947266 C 19.872212 32.846859 18.896165 32.592525 17.982422 32.21875 L 14.970703 35.28125 C 16.482648 36.112745 18.149074 36.692912 19.9375 36.939453 L 19.9375 39.875 L 15.125 39.875 C 14.365 39.875 13.75 40.49 13.75 41.25 L 13.75 42.625 C 13.75 43.385 14.365 44 15.125 44 L 28.875 44 C 29.635 44 30.25 43.385 30.25 42.625 L 30.25 41.25 C 30.25 40.49 29.635 39.875 28.875 39.875 L 24.0625 39.875 L 24.0625 36.972656 C 31.4275 35.962656 37.125 29.64 37.125 22 L 37.125 17.875 C 37.125 17.115 36.51 16.5 35.75 16.5 L 34.375 16.5 z M 30.25 19.738281 L 20.136719 30.027344 A 8.25 8.25 0 0 0 22 30.25 A 8.25 8.25 0 0 0 30.25 22 L 30.25 19.738281 z "
     id="path2" />
  <path
     style="color:#000000;font-style:normal;font-variant:normal;font-weight:normal;font-stretch:normal;font-size:medium;line-height:normal;font-family:sans-serif;font-variant-ligatures:normal;font-variant-position:normal;font-variant-caps:normal;font-variant-numeric:normal;font-variant-alternates:normal;font-feature-settings:normal;text-indent:0;text-align:start;text-decoration:none;text-decoration-line:none;text-decoration-style:solid;text-decoration-color:#000000;letter-spacing:normal;word-spacing:normal;text-transform:none;writing-mode:lr-tb;direction:ltr;text-orientation:mixed;dominant-baseline:auto;baseline-shift:baseline;text-anchor:start;white-space:normal;shape-padding:0;clip-rule:nonzero;display:inline;overflow:visible;visibility:visible;opacity:1;isolation:auto;mix-blend-mode:normal;color-interpolation:sRGB;color-interpolation-filters:linearRGB;solid-color:#000000;solid-opacity:1;vector-effect:none;fill:#000000;fill-opacity:1;fill-rule:evenodd;stroke:none;stroke-width:3.70000005;stroke-linecap:round;stroke-linejoin:miter;stroke-miterlimit:4;stroke-dasharray:none;stroke-dashoffset:0;stroke-opacity:1;color-rendering:auto;image-rendering:auto;shape-rendering:auto;text-rendering:auto;enable-background:accumulate"
     d="M 40.934692,0.81692788 A 1.850185,1.850185 0 0 0 39.667114,1.3872409 L 1.3038325,40.408724 a 1.8506933,1.8506933 0 1 0 2.6386719,2.595703 L 42.305786,3.9809909 A 1.850185,1.850185 0 0 0 40.934692,0.81692788 Z"
     id="path814"
     inkscape:connector-curvature="0" />
</svg>
