<?xml version="1.0" encoding="UTF-8" standalone="no"?>
<svg
   xmlns:dc="http://purl.org/dc/elements/1.1/"
   xmlns:cc="http://creativecommons.org/ns#"
   xmlns:rdf="http://www.w3.org/1999/02/22-rdf-syntax-ns#"
   xmlns:svg="http://www.w3.org/2000/svg"
   xmlns="http://www.w3.org/2000/svg"
   xmlns:sodipodi="http://sodipodi.sourceforge.net/DTD/sodipodi-0.dtd"
   xmlns:inkscape="http://www.inkscape.org/namespaces/inkscape"
   viewBox="0 0 44000 44000"
   preserveAspectRatio="xMinYMin meet"
   width="44"
   height="44"
   version="1.1"
   id="svg4"
   sodipodi:docname="nonanonymous-group.svg"
   inkscape:version="0.92.5 (2060ec1f9f, 2020-04-08)">
  <metadata
     id="metadata10">
    <rdf:RDF>
      <cc:Work
         rdf:about="">
        <dc:format>image/svg+xml</dc:format>
        <dc:type
           rdf:resource="http://purl.org/dc/dcmitype/StillImage" />
      </cc:Work>
    </rdf:RDF>
  </metadata>
  <defs
     id="defs8" />
  <sodipodi:namedview
     pagecolor="#ffffff"
     bordercolor="#666666"
     borderopacity="1"
     objecttolerance="10"
     gridtolerance="10"
     guidetolerance="10"
     inkscape:pageopacity="0"
     inkscape:pageshadow="2"
     inkscape:window-width="1796"
     inkscape:window-height="1180"
     id="namedview6"
     showgrid="false"
     inkscape:zoom="15.170655"
     inkscape:cx="18.279401"
     inkscape:cy="17.863"
     inkscape:window-x="410"
     inkscape:window-y="449"
     inkscape:window-maximized="0"
     inkscape:current-layer="svg4" />
  <path
     style="stroke-width:0.001"
     d="M 21.867188 6.8007812 C 20.26719 6.8896382 18.887976 7.4884784 17.732422 8.5996094 C 16.576868 9.7107414 15.778427 11.022118 15.333984 12.533203 C 14.800651 14.577624 14.9783 16.667502 15.867188 18.800781 C 16.578297 20.134151 17.510462 21.200029 18.666016 22 L 16.132812 23.199219 L 9.4667969 26.267578 C 8.7556869 26.623136 8.4003906 27.199967 8.4003906 28 L 8.4003906 34.267578 C 8.3115016 36.13422 8.844446 37.110361 10 37.199219 L 33.867188 37.199219 C 34.40052 37.021441 34.777756 36.755948 35 36.400391 C 35.222244 36.044834 35.333984 35.755378 35.333984 35.533203 L 35.333984 28 C 35.333984 27.199966 35.022612 26.667027 34.400391 26.400391 L 28 23.199219 L 25.199219 21.867188 C 26.888105 20.889374 27.99987 19.200759 28.533203 16.800781 C 28.888758 15.467411 28.888758 14.088243 28.533203 12.666016 C 28.08876 11.066072 27.266382 9.7107414 26.066406 8.5996094 C 24.866431 7.4884794 23.467231 6.8896383 21.867188 6.8007812 z M 10.800781 9.7324219 C 9.1118943 9.8213419 7.7785582 10.511934 6.8007812 11.800781 C 5.8230063 13.089628 5.3339844 14.532744 5.3339844 16.132812 C 5.4228734 18.888347 6.4009151 20.844472 8.2675781 22 L 0.66601562 25.466797 C 0.22157162 25.733496 -7.4014868e-17 26.178525 0 26.800781 L 0 32.800781 C 0 33.778594 0.39922075 34.267578 1.1992188 34.267578 L 6.1328125 34.267578 L 6.1328125 28 C 6.1328125 27.199966 6.3323989 26.467435 6.7324219 25.800781 C 7.1324439 25.134191 7.6892806 24.623198 8.4003906 24.267578 L 13.466797 21.867188 C 13.91124 21.600489 14.266536 21.289151 14.533203 20.933594 C 13.999871 20.133623 13.554774 19.199484 13.199219 18.132812 C 12.843664 17.066142 12.666016 15.956373 12.666016 14.800781 C 12.666016 14.089667 12.755816 13.37713 12.933594 12.666016 C 13.111372 11.954902 13.332943 11.288209 13.599609 10.666016 C 12.710721 10.04376 11.778557 9.7324219 10.800781 9.7324219 z M 33.199219 9.734375 C 32.221443 9.734375 31.245354 10.04376 30.267578 10.666016 C 30.80091 11.999323 31.066406 13.378553 31.066406 14.800781 C 31.066406 17.023044 30.489538 19.066952 29.333984 20.933594 C 29.689539 21.289151 30.132683 21.644443 30.666016 22 C 31.199349 22.355557 31.688369 22.623003 32.132812 22.800781 C 32.577255 22.97856 33.156077 23.222106 33.867188 23.533203 C 34.578297 23.844362 35.111242 24.0898 35.466797 24.267578 C 36.177907 24.623135 36.73279 25.134128 37.132812 25.800781 C 37.532834 26.467498 37.732422 27.200028 37.732422 28 L 37.732422 34.267578 L 42.800781 34.267578 C 43.600779 34.178721 44 33.689674 44 32.800781 L 44 26.800781 C 44 26.178525 43.778427 25.733496 43.333984 25.466797 L 35.867188 21.867188 C 37.733851 20.533817 38.666016 18.621648 38.666016 16.132812 C 38.666016 14.443886 38.13307 12.954862 37.066406 11.666016 C 35.999741 10.377169 34.710328 9.734438 33.199219 9.734375 z M 24.185547 11.330078 A 1.3236288 1.3236288 0 0 1 25.509766 12.654297 A 1.3236288 1.3236288 0 0 1 24.185547 13.978516 A 1.3236288 1.3236288 0 0 1 22.863281 12.654297 A 1.3236288 1.3236288 0 0 1 24.185547 11.330078 z M 19.814453 11.376953 A 1.3236288 1.3236288 0 0 1 21.136719 12.701172 A 1.3236288 1.3236288 0 0 1 19.814453 14.023438 A 1.3236288 1.3236288 0 0 1 18.490234 12.701172 A 1.3236288 1.3236288 0 0 1 19.814453 11.376953 z "
     transform="scale(1000)"
     id="path2" />
  <g
     id="g836"
     transform="translate(-186.4375)" />
</svg>
