<?xml version="1.0" encoding="UTF-8" standalone="no"?>
<svg
   xmlns:dc="http://purl.org/dc/elements/1.1/"
   xmlns:cc="http://creativecommons.org/ns#"
   xmlns:rdf="http://www.w3.org/1999/02/22-rdf-syntax-ns#"
   xmlns:svg="http://www.w3.org/2000/svg"
   xmlns="http://www.w3.org/2000/svg"
   xmlns:sodipodi="http://sodipodi.sourceforge.net/DTD/sodipodi-0.dtd"
   xmlns:inkscape="http://www.inkscape.org/namespaces/inkscape"
   width="44"
   height="44"
   version="1.1"
   id="svg4"
   sodipodi:docname="padlock-open-disabled.svg"
   inkscape:version="0.92.5 (2060ec1f9f, 2020-04-08)">
  <metadata
     id="metadata10">
    <rdf:RDF>
      <cc:Work
         rdf:about="">
        <dc:format>image/svg+xml</dc:format>
        <dc:type
           rdf:resource="http://purl.org/dc/dcmitype/StillImage" />
        <dc:title />
      </cc:Work>
    </rdf:RDF>
  </metadata>
  <defs
     id="defs8" />
  <sodipodi:namedview
     pagecolor="#ffffff"
     bordercolor="#666666"
     borderopacity="1"
     objecttolerance="10"
     gridtolerance="10"
     guidetolerance="10"
     inkscape:pageopacity="0"
     inkscape:pageshadow="2"
     inkscape:window-width="1659"
     inkscape:window-height="1080"
     id="namedview6"
     showgrid="false"
     inkscape:zoom="7.5853273"
     inkscape:cx="34.552878"
     inkscape:cy="25.744802"
     inkscape:window-x="2054"
     inkscape:window-y="832"
     inkscape:window-maximized="0"
     inkscape:current-layer="svg4" />
  <path
     style="color:#000000;font-style:normal;font-variant:normal;font-weight:normal;font-stretch:normal;font-size:medium;line-height:normal;font-family:sans-serif;font-variant-ligatures:normal;font-variant-position:normal;font-variant-caps:normal;font-variant-numeric:normal;font-variant-alternates:normal;font-feature-settings:normal;text-indent:0;text-align:start;text-decoration:none;text-decoration-line:none;text-decoration-style:solid;text-decoration-color:#000000;letter-spacing:normal;word-spacing:normal;text-transform:none;writing-mode:lr-tb;direction:ltr;text-orientation:mixed;dominant-baseline:auto;baseline-shift:baseline;text-anchor:start;white-space:normal;shape-padding:0;clip-rule:nonzero;display:inline;overflow:visible;visibility:visible;opacity:1;isolation:auto;mix-blend-mode:normal;color-interpolation:sRGB;color-interpolation-filters:linearRGB;solid-color:#000000;solid-opacity:1;vector-effect:none;fill:#000000;fill-opacity:1;fill-rule:nonzero;stroke:none;stroke-width:1.74225402;stroke-linecap:round;stroke-linejoin:round;stroke-miterlimit:4;stroke-dasharray:none;stroke-dashoffset:0;stroke-opacity:1;paint-order:stroke fill markers;color-rendering:auto;image-rendering:auto;shape-rendering:auto;text-rendering:auto;enable-background:accumulate"
     d="M 21.640625 0.96875 C 14.37398 0.9687703 8.4472857 6.8954637 8.4472656 14.162109 L 8.4472656 21.646484 C 6.7475046 22.014688 5.4335936 23.46808 5.4335938 25.271484 L 5.4335938 32.308594 L 8.9179688 28.763672 L 8.9179688 25.271484 C 8.9179688 25.052239 8.9955977 24.972656 9.2148438 24.972656 L 12.644531 24.972656 L 16.064453 21.496094 C 14.691397 21.49369 13.310611 21.490234 11.947266 21.490234 L 11.947266 14.216797 L 11.947266 14.199219 C 11.947403 14.186889 11.947389 14.174439 11.947266 14.162109 C 11.94728 8.7860669 16.264582 4.468765 21.640625 4.46875 C 24.883066 4.4687589 27.731577 5.8411806 29.488281 7.8398438 L 31.910156 5.3769531 C 29.488395 2.7185044 25.785294 0.96876141 21.640625 0.96875 z M 33.152344 21.410156 C 32.523813 21.414206 31.872018 21.445312 31.332031 21.445312 C 30.425878 21.458305 29.492478 21.452995 28.578125 21.460938 L 25.126953 24.972656 L 34.597656 24.972656 C 34.816901 24.972656 34.896484 25.053866 34.896484 25.271484 L 34.896484 40.189453 C 34.896484 40.40707 34.816904 40.486328 34.597656 40.486328 L 9.875 40.486328 L 7.0957031 43.3125 C 7.7020821 43.727108 8.4313468 43.970703 9.2148438 43.970703 L 34.597656 43.970703 C 36.672494 43.970703 38.380859 42.264966 38.380859 40.189453 L 38.380859 25.271484 C 38.380859 23.27962 36.79477 21.668948 34.833984 21.539062 C 34.386142 21.429113 33.780875 21.406106 33.152344 21.410156 z "
     id="rect817" />
  <path
     style="color:#000000;font-style:normal;font-variant:normal;font-weight:normal;font-stretch:normal;font-size:medium;line-height:normal;font-family:sans-serif;font-variant-ligatures:normal;font-variant-position:normal;font-variant-caps:normal;font-variant-numeric:normal;font-variant-alternates:normal;font-feature-settings:normal;text-indent:0;text-align:start;text-decoration:none;text-decoration-line:none;text-decoration-style:solid;text-decoration-color:#000000;letter-spacing:normal;word-spacing:normal;text-transform:none;writing-mode:lr-tb;direction:ltr;text-orientation:mixed;dominant-baseline:auto;baseline-shift:baseline;text-anchor:start;white-space:normal;shape-padding:0;clip-rule:nonzero;display:inline;overflow:visible;visibility:visible;opacity:1;isolation:auto;mix-blend-mode:normal;color-interpolation:sRGB;color-interpolation-filters:linearRGB;solid-color:#000000;solid-opacity:1;vector-effect:none;fill:#000000;fill-opacity:1;fill-rule:nonzero;stroke:none;stroke-width:2.2579999;stroke-linecap:round;stroke-linejoin:round;stroke-miterlimit:4;stroke-dasharray:none;stroke-dashoffset:0;stroke-opacity:1;paint-order:stroke fill markers;color-rendering:auto;image-rendering:auto;shape-rendering:auto;text-rendering:auto;enable-background:accumulate"
     d="m 22,27.289062 c -1.879348,0 -3.427734,1.548387 -3.427734,3.427735 0,1.879348 1.548386,3.425781 3.427734,3.425781 1.879348,0 3.427734,-1.546433 3.427734,-3.425781 0,-1.879348 -1.548386,-3.427734 -3.427734,-3.427735 z m 0,2.257813 c 0.659034,0 1.169922,0.510888 1.169922,1.169922 0,0.659034 -0.510888,1.167969 -1.169922,1.167969 -0.659034,0 -1.169922,-0.508935 -1.169922,-1.167969 0,-0.659034 0.510888,-1.169922 1.169922,-1.169922 z"
     id="path850"
     inkscape:connector-curvature="0" />
  <path
     style="color:#000000;font-style:normal;font-variant:normal;font-weight:normal;font-stretch:normal;font-size:medium;line-height:normal;font-family:sans-serif;font-variant-ligatures:normal;font-variant-position:normal;font-variant-caps:normal;font-variant-numeric:normal;font-variant-alternates:normal;font-feature-settings:normal;text-indent:0;text-align:start;text-decoration:none;text-decoration-line:none;text-decoration-style:solid;text-decoration-color:#000000;letter-spacing:normal;word-spacing:normal;text-transform:none;writing-mode:lr-tb;direction:ltr;text-orientation:mixed;dominant-baseline:auto;baseline-shift:baseline;text-anchor:start;white-space:normal;shape-padding:0;clip-rule:nonzero;display:inline;overflow:visible;visibility:visible;opacity:1;isolation:auto;mix-blend-mode:normal;color-interpolation:sRGB;color-interpolation-filters:linearRGB;solid-color:#000000;solid-opacity:1;vector-effect:none;fill:#000000;fill-opacity:1;fill-rule:evenodd;stroke:none;stroke-width:2.08235669;stroke-linecap:round;stroke-linejoin:miter;stroke-miterlimit:4;stroke-dasharray:none;stroke-dashoffset:0;stroke-opacity:1;color-rendering:auto;image-rendering:auto;shape-rendering:auto;text-rendering:auto;enable-background:accumulate"
     d="m 21.984375,32.611328 a 1.0412825,1.0412825 0 0 0 -1.025391,1.056641 v 3.884765 a 1.0412825,1.0412825 0 1 0 2.082032,0 v -3.884765 a 1.0412825,1.0412825 0 0 0 -1.056641,-1.056641 z"
     id="path852"
     inkscape:connector-curvature="0" />
  <path
     style="color:#000000;font-style:normal;font-variant:normal;font-weight:normal;font-stretch:normal;font-size:medium;line-height:normal;font-family:sans-serif;font-variant-ligatures:normal;font-variant-position:normal;font-variant-caps:normal;font-variant-numeric:normal;font-variant-alternates:normal;font-feature-settings:normal;text-indent:0;text-align:start;text-decoration:none;text-decoration-line:none;text-decoration-style:solid;text-decoration-color:#000000;letter-spacing:normal;word-spacing:normal;text-transform:none;writing-mode:lr-tb;direction:ltr;text-orientation:mixed;dominant-baseline:auto;baseline-shift:baseline;text-anchor:start;white-space:normal;shape-padding:0;clip-rule:nonzero;display:inline;overflow:visible;visibility:visible;opacity:1;isolation:auto;mix-blend-mode:normal;color-interpolation:sRGB;color-interpolation-filters:linearRGB;solid-color:#000000;solid-opacity:1;vector-effect:none;fill:#000000;fill-opacity:1;fill-rule:evenodd;stroke:none;stroke-width:3.70000005;stroke-linecap:round;stroke-linejoin:miter;stroke-miterlimit:4;stroke-dasharray:none;stroke-dashoffset:0;stroke-opacity:1;color-rendering:auto;image-rendering:auto;shape-rendering:auto;text-rendering:auto;enable-background:accumulate"
     d="M 40.552734,1.1328125 A 1.850185,1.850185 0 0 0 39.285156,1.703125 L 0.921875,40.724609 a 1.8506933,1.8506933 0 1 0 2.6386719,2.595703 L 41.923828,4.296875 A 1.850185,1.850185 0 0 0 40.552734,1.1328125 Z"
     id="path814"
     inkscape:connector-curvature="0" />
</svg>
