<?xml version="1.0" encoding="UTF-8" standalone="no"?>
<svg
   xmlns:dc="http://purl.org/dc/elements/1.1/"
   xmlns:cc="http://creativecommons.org/ns#"
   xmlns:rdf="http://www.w3.org/1999/02/22-rdf-syntax-ns#"
   xmlns:svg="http://www.w3.org/2000/svg"
   xmlns="http://www.w3.org/2000/svg"
   xmlns:sodipodi="http://sodipodi.sourceforge.net/DTD/sodipodi-0.dtd"
   xmlns:inkscape="http://www.inkscape.org/namespaces/inkscape"
   version="1.0"
   width="44"
   height="44"
   id="svg4"
   sodipodi:docname="pick-up-disabled.svg"
   inkscape:version="0.92.5 (2060ec1f9f, 2020-04-08)">
  <metadata
     id="metadata10">
    <rdf:RDF>
      <cc:Work
         rdf:about="">
        <dc:format>image/svg+xml</dc:format>
        <dc:type
           rdf:resource="http://purl.org/dc/dcmitype/StillImage" />
        <dc:title></dc:title>
      </cc:Work>
    </rdf:RDF>
  </metadata>
  <defs
     id="defs8" />
  <sodipodi:namedview
     pagecolor="#ffffff"
     bordercolor="#666666"
     borderopacity="1"
     objecttolerance="10"
     gridtolerance="10"
     guidetolerance="10"
     inkscape:pageopacity="0"
     inkscape:pageshadow="2"
     inkscape:window-width="1310"
     inkscape:window-height="1062"
     id="namedview6"
     showgrid="false"
     inkscape:zoom="5.3636364"
     inkscape:cx="15.936274"
     inkscape:cy="22"
     inkscape:window-x="482"
     inkscape:window-y="625"
     inkscape:window-maximized="0"
     inkscape:current-layer="svg4" />
  <path
     d="M 9.2089844 0.2890625 A 5.712 5.712 0 0 0 6.4921875 1.0703125 A 15.306 15.306 0 0 0 1.3125 6.1542969 C 0.5815 7.6902969 0.136 9.3853125 0 11.070312 A 55.234 55.234 0 0 0 0.11914062 13.423828 L 0.11914062 13.425781 C 0.18314063 13.679781 0.30304688 13.942 0.49804688 14.125 A 1.193 1.193 0 0 0 1.2753906 14.445312 L 12.677734 14.316406 C 13.211734 14.298406 13.678922 13.917422 13.794922 13.357422 L 14.136719 11.175781 C 14.184719 10.962781 14.279687 10.749844 14.429688 10.589844 C 14.871688 10.118844 15.583687 10.117594 16.054688 10.558594 L 21.691406 15.847656 L 28.117188 9.3125 C 23.104858 5.3161856 17.296362 2.2835564 10.947266 0.50585938 A 5.712 5.712 0 0 0 9.2089844 0.2890625 z M 34.476562 15.396484 L 28.109375 21.871094 L 33.683594 27.101562 C 34.153594 27.543563 34.199813 28.254609 33.757812 28.724609 C 33.629813 28.862609 33.477578 28.979016 33.267578 29.041016 L 29.753906 30.1875 A 1.118 1.118 0 0 0 29.017578 31.568359 L 32.238281 42.873047 A 1.06 1.06 0 0 0 32.521484 43.398438 C 32.796484 43.656438 33.202922 43.7775 33.544922 43.6875 C 36.417922 43.0625 39.042734 41.599672 41.052734 39.388672 C 41.901734 38.437672 42.611906 37.334969 43.253906 36.167969 C 44.103906 34.593969 44.223766 32.698906 43.634766 31.003906 C 41.557697 25.192179 38.421 19.924595 34.476562 15.396484 z "
     id="path2" />
  <path
     style="color:#000000;font-style:normal;font-variant:normal;font-weight:normal;font-stretch:normal;font-size:medium;line-height:normal;font-family:sans-serif;font-variant-ligatures:normal;font-variant-position:normal;font-variant-caps:normal;font-variant-numeric:normal;font-variant-alternates:normal;font-feature-settings:normal;text-indent:0;text-align:start;text-decoration:none;text-decoration-line:none;text-decoration-style:solid;text-decoration-color:#000000;letter-spacing:normal;word-spacing:normal;text-transform:none;writing-mode:lr-tb;direction:ltr;text-orientation:mixed;dominant-baseline:auto;baseline-shift:baseline;text-anchor:start;white-space:normal;shape-padding:0;clip-rule:nonzero;display:inline;overflow:visible;visibility:visible;opacity:1;isolation:auto;mix-blend-mode:normal;color-interpolation:sRGB;color-interpolation-filters:linearRGB;solid-color:#000000;solid-opacity:1;vector-effect:none;fill:#000000;fill-opacity:1;fill-rule:evenodd;stroke:none;stroke-width:3.70000005;stroke-linecap:round;stroke-linejoin:miter;stroke-miterlimit:4;stroke-dasharray:none;stroke-dashoffset:0;stroke-opacity:1;color-rendering:auto;image-rendering:auto;shape-rendering:auto;text-rendering:auto;enable-background:accumulate"
     d="M 40.934691,0.63048753 A 1.850185,1.850185 0 0 0 39.667113,1.2007995 L 1.3038321,40.222284 a 1.8506934,1.8506934 0 1 0 2.638672,2.595703 L 42.305785,3.7945495 A 1.850185,1.850185 0 0 0 40.934691,0.63048753 Z"
     id="path814"
     inkscape:connector-curvature="0" />
</svg>
