<?xml version="1.0" encoding="UTF-8" standalone="no"?>
<svg
   xmlns:dc="http://purl.org/dc/elements/1.1/"
   xmlns:cc="http://creativecommons.org/ns#"
   xmlns:rdf="http://www.w3.org/1999/02/22-rdf-syntax-ns#"
   xmlns:svg="http://www.w3.org/2000/svg"
   xmlns="http://www.w3.org/2000/svg"
   xmlns:sodipodi="http://sodipodi.sourceforge.net/DTD/sodipodi-0.dtd"
   xmlns:inkscape="http://www.inkscape.org/namespaces/inkscape"
   width="44"
   height="44"
   version="1.1"
   id="svg4"
   sodipodi:docname="quotation.svg"
   inkscape:version="0.92.5 (2060ec1f9f, 2020-04-08)">
  <metadata
     id="metadata10">
    <rdf:RDF>
      <cc:Work
         rdf:about="">
        <dc:format>image/svg+xml</dc:format>
        <dc:type
           rdf:resource="http://purl.org/dc/dcmitype/StillImage" />
      </cc:Work>
    </rdf:RDF>
  </metadata>
  <defs
     id="defs8" />
  <sodipodi:namedview
     pagecolor="#ffffff"
     bordercolor="#666666"
     borderopacity="1"
     objecttolerance="10"
     gridtolerance="10"
     guidetolerance="10"
     inkscape:pageopacity="0"
     inkscape:pageshadow="2"
     inkscape:window-width="1999"
     inkscape:window-height="1265"
     id="namedview6"
     showgrid="false"
     inkscape:zoom="5.3636364"
     inkscape:cx="-5.5"
     inkscape:cy="22"
     inkscape:window-x="1562"
     inkscape:window-y="280"
     inkscape:window-maximized="0"
     inkscape:current-layer="svg4" />
  <g
     aria-label="&quot;"
     style="font-style:normal;font-variant:normal;font-weight:normal;font-stretch:normal;font-size:17.33333397px;line-height:125%;font-family:'Helvetica Neue';-inkscape-font-specification:'Helvetica Neue';text-align:start;letter-spacing:0px;word-spacing:0px;text-anchor:start;fill:#000000;fill-opacity:1;stroke:none;stroke-width:1px;stroke-linecap:butt;stroke-linejoin:miter;stroke-opacity:1"
     id="text819"
     transform="matrix(7.8234615,0,0,7.8234615,-143.85981,-87.522429)">
    <path
       d="m 19.579639,16.321897 0.277334,-0.208 0.849333,-2.426667 0.052,-0.624 -0.06933,-0.485333 -0.208,-0.329333 -0.502667,-0.398667 -0.398667,-0.138667 h -0.294666 l -0.416,0.138667 -0.06933,0.173333 -0.138666,0.08667 -0.104,0.225333 -0.138667,0.814667 0.173333,0.208 0.364,0.208 0.416,0.416 0.173334,0.988 z m 3.224,-0.03467 0.277334,-0.208 0.849333,-2.426666 0.052,-0.624 -0.06933,-0.485334 -0.208,-0.329333 -0.502667,-0.398667 -0.398667,-0.138666 h -0.294666 l -0.416,0.138666 -0.06933,0.173334 -0.138666,0.08667 -0.104,0.225334 -0.138667,0.814666 0.173333,0.208 0.364,0.208 0.416,0.416 0.173334,0.988 z"
       style="font-style:normal;font-variant:normal;font-weight:normal;font-stretch:normal;font-family:Bocadillo;-inkscape-font-specification:Bocadillo"
       id="path821"
       inkscape:connector-curvature="0" />
  </g>
</svg>
