<?xml version="1.0" encoding="UTF-8" standalone="no"?>
<svg
   xmlns:dc="http://purl.org/dc/elements/1.1/"
   xmlns:cc="http://creativecommons.org/ns#"
   xmlns:rdf="http://www.w3.org/1999/02/22-rdf-syntax-ns#"
   xmlns:svg="http://www.w3.org/2000/svg"
   xmlns="http://www.w3.org/2000/svg"
   xmlns:sodipodi="http://sodipodi.sourceforge.net/DTD/sodipodi-0.dtd"
   xmlns:inkscape="http://www.inkscape.org/namespaces/inkscape"
   viewBox="0 0 64 64"
   enable-background="new 0 0 64 64"
   id="svg2"
   version="1.1"
   inkscape:version="0.48.4 r9939"
   width="100%"
   height="100%"
   sodipodi:docname="jabber.svg">
  <metadata
     id="metadata16">
    <rdf:RDF>
      <cc:Work
         rdf:about="">
        <dc:format>image/svg+xml</dc:format>
        <dc:type
           rdf:resource="http://purl.org/dc/dcmitype/StillImage" />
        <dc:title />
      </cc:Work>
    </rdf:RDF>
  </metadata>
  <defs
     id="defs14" />
  <sodipodi:namedview
     pagecolor="#ffffff"
     bordercolor="#666666"
     borderopacity="1"
     objecttolerance="10"
     gridtolerance="10"
     guidetolerance="10"
     inkscape:pageopacity="0"
     inkscape:pageshadow="2"
     inkscape:window-width="1327"
     inkscape:window-height="744"
     id="namedview12"
     showgrid="false"
     inkscape:zoom="5.2149125"
     inkscape:cx="55.0181"
     inkscape:cy="24.813699"
     inkscape:window-x="39"
     inkscape:window-y="24"
     inkscape:window-maximized="1"
     inkscape:current-layer="svg2" />
  <g
     transform="matrix(0.02496148,0,0,-0.02496148,10.039883,88.13872)"
     style="stroke-miterlimit:10"
     id="g2035">
    <path
       inkscape:connector-curvature="0"
       d="m 719.899,2297.19 c 0,34.81 -6.429,72.81 -26.649,102 -40.54,58.51 -127.57,77.12 -188.15,40.25 -30.62,-18.65 -47.65,-51.21 -57.25,-84.64 -19.06,-66.38 -10.32,-142.13 3.009,-208.79 4.26,-21.32 8.66,-42.67 14.64,-63.6 2.16,-7.55 3.16,-18.52 8.07,-24.8 8.569,-10.98 29.49,-14.16 42.319,-12 38.49,6.47 28.96,69.85 27.65,96.8 -3.07,63.13 -21.67,124.4 -3.65,187.19 7.63,26.57 22.37,56.45 49.2,67.99 24.22,10.43 48.66,-2.33 58.25,-25.99 15.529,-38.31 11.649,-82.54 21.389,-122.4 3.31,-13.55 6.95,-26.97 13.06,-39.6 1.77,-3.65 4.21,-11.24 9.34,-10.78 12.47,1.14 30.2,21.95 39.549,29.67 30.2,24.96 61.23,51.69 96,70.16 16.36,8.69 43.279,22.76 59.99,7.98 4.259,-3.77 7.689,-8.27 10.739,-13.04 19.64,-30.77 0.14,-54.74 -12.629,-84 -16.53,-37.87 -33.469,-75.36 -57.42,-109.2 -20.59,-29.1 -48.729,-54.61 -65.18,-86.4 -10.59,-20.47 -16.58,-42.9 -12.2,-66 3.55,-18.68 18.03,-29.96 37.08,-25.58 14.26,3.28 23.92,15.5 32.05,26.78 14.49,20.12 27.95,41 42.35,61.2 27.86,39.07 60.73,75.6 84.16,117.6 28.24,50.63 41.86,107.92 41.829,165.59 -0.019,47.13 -17.109,119.16 -72,129.04 -10.329,1.85 -22.14,0.84 -32.4,-0.95 -12.749,-2.22 -25.549,-6.37 -37.199,-12.01 -31.21,-15.1 -58.2,-37.65 -81.39,-63.29 -14.469,-15.98 -27.429,-36.08 -44.599,-49.2"
       style="fill:#ffb400;stroke:none"
       id="path26" />
    <path
       inkscape:connector-curvature="0"
       d="m 668.3,3463.03 c -43.29,-5.69 -87.29,-5.1 -130.79,-11.82 -83.329,-12.87 -163.14,-38.76 -241.189,-69.99 -28.42,-11.37 -56.46,-24.04 -84,-37.37 -10.249,-4.96 -25.88,-8.93 -34.12,-16.89 -4.289,-4.15 -3.849,-13.87 -4.37,-19.42 -1.449,-15.61 -3.399,-31.2 -4.91,-46.8 -5.829,-60.2 -9.939,-122.22 -1.319,-182.39 2.79,-19.44 8.83,-54.7 32.72,-58.43 36.739,-5.75 65.279,39.46 83.309,64.43 42.11,58.32 90.02,112.61 159.08,138.68 81.3,30.69 174.38,37.92 260.39,43.82 241.31,16.54 505.009,-27.54 682.769,-205.3 25.28,-25.28 49.21,-52.11 69.56,-81.6 79.59,-115.26 121.68,-246.32 141.95,-383.98 9.53,-64.63 16.04,-130.03 1.3,-194.39 -25.58,-111.66 -92.65,-208.85 -169.72,-291.59 -52.75,-56.63 -112.11,-107.82 -173.89,-154.35 -34.49,-25.97 -73.17,-48 -105.6,-76.39 -37.35,-32.7 -68.42,-73.62 -92.03,-117.25 -63.54,-117.48 -80.579,-258.84 -61.89,-389.98 3.83,-26.88 7.29,-53.89 13.38,-80.4 1.82,-7.93 2.14,-21.56 7.27,-28.04 9.6,-12.12 35.8,-18.79 50.47,-19.5 15.3,-0.74 25.48,11.02 29.23,24.74 6.42,23.51 2.58,49.55 -1.14,73.2 -7.62,48.44 -14.6,97.22 -12.44,146.39 3.98,90.79 39.08,175.39 102,241.19 63.99,66.92 150.42,105.51 223.14,161.57 146.56,112.98 277.86,265.41 328.28,446.8 18.02,64.87 23.99,133.61 15.76,200.39 -10.4,84.47 -41.29,168.84 -70.39,248.39 -88.69,242.48 -240.83,473.08 -482.44,584.01 -95.89,44.02 -196.16,64.06 -299.99,78.52 -48.69,6.78 -97.37,10.94 -146.391,13.09 -27.229,1.19 -56.849,4.21 -83.999,0.64"
       style="fill:#cc0000;stroke:none"
       id="path28" />
    <path
       inkscape:connector-curvature="0"
       d="m 290.31,1893.49 c -47.09,-6.74 -60.78,-44.49 -52.08,-87.08 11.14,-54.5 54,-96.07 96.469,-128.81 108.81,-83.88 249.35,-129.22 386.38,-123.22 53.47,2.34 111.72,11.18 160.79,33.87 26.31,12.16 53.83,55.97 18,74.72 -4.91,2.57 -11.329,4.16 -16.8,5.06 -15.649,2.56 -33.17,-4.1 -47.999,-8.36 -26.15,-7.51 -52.28,-15.2 -79.2,-19.52 -80.43,-12.92 -167.4,5.46 -233.99,53.12 -53.829,38.54 -97.369,89.36 -138.47,140.74 -25.159,31.45 -47.899,65.96 -93.119,59.48"
       style="fill:#cc0000;stroke:none"
       id="path30" />
    <path
       inkscape:connector-curvature="0"
       d="m 229.11,1627.11 c -11.98,-1.58 -25.72,-1.13 -35.98,-8.66 -21.4,-15.71 2.17,-47.31 13.43,-61.63 32.649,-41.49 75.639,-75.93 118.54,-106.29 119.599,-84.61 255.079,-133.42 400.78,-143.41 41.889,-2.87 84.559,0.11 125.989,7.01 15.149,2.53 34,3.67 48,10.21 39.619,18.53 28.159,93.38 -7.2,110.02 -15.44,7.26 -40.21,-2.33 -56.4,-4.58 -38.29,-5.34 -76.69,-5.88 -115.2,-4.94 -100.93,2.47 -208.45,33.56 -296.39,82.62 -34.57,19.3 -66.319,42.78 -96,68.91 -18.05,15.89 -36.59,41.89 -59.999,49.92 -10.9,3.74 -28.261,2.32 -39.601,0.83"
       style="fill:#cc0000;stroke:none"
       id="path32" />
    <path
       inkscape:connector-curvature="0"
       d="m 253.109,1402.7 c -17.059,-1.91 -29.919,-10.81 -41.139,-23.47 -7.73,-8.72 -15.07,-16.6 -19.51,-27.6 -24.48,-60.56 40.78,-117.73 85.85,-146.33 50.159,-31.82 104.959,-55.41 160.789,-75.28 125.92,-44.82 273.61,-73.51 404.38,-33.44 38.87,11.9 77.29,33.66 105.55,63.07 15.919,16.57 26.849,41.66 -2.35,52.27 -17.3,6.28 -38.31,-9.71 -54,-16.03 -37.04,-14.94 -75.44,-26.28 -115.2,-31.09 -52.37,-6.35 -99.52,5.18 -149.99,17.81 -43.11,10.78 -86.709,21.56 -128.39,37.1 -35.56,13.26 -70.88,29.01 -101.999,51.03 -9.3,6.58 -20.44,12.44 -28.06,21.01 -24.91,28.03 -43.63,60.83 -70.34,87.49 -11.54,11.52 -27.939,25.44 -45.6,23.47"
       style="fill:#cc0000;stroke:none"
       id="path34" />
  </g>
</svg>
