<?xml version="1.0" encoding="UTF-8" standalone="no"?>
<!-- Created with Inkscape (http://www.inkscape.org/) -->

<svg
   xmlns:dc="http://purl.org/dc/elements/1.1/"
   xmlns:cc="http://creativecommons.org/ns#"
   xmlns:rdf="http://www.w3.org/1999/02/22-rdf-syntax-ns#"
   xmlns:svg="http://www.w3.org/2000/svg"
   xmlns="http://www.w3.org/2000/svg"
   xmlns:sodipodi="http://sodipodi.sourceforge.net/DTD/sodipodi-0.dtd"
   xmlns:inkscape="http://www.inkscape.org/namespaces/inkscape"
   id="svg4136"
   version="1.1"
   inkscape:version="0.48.4 r9939"
   width="64"
   height="64"
   viewBox="0 0 64 64"
   sodipodi:docname="owncloud.svg"
   inkscape:export-filename="/home/klaus/Pictures/app.png"
   inkscape:export-xdpi="90"
   inkscape:export-ydpi="90">
  <metadata
     id="metadata4142">
    <rdf:RDF>
      <cc:Work
         rdf:about="">
        <dc:format>image/svg+xml</dc:format>
        <dc:type
           rdf:resource="http://purl.org/dc/dcmitype/StillImage" />
        <dc:title />
      </cc:Work>
    </rdf:RDF>
  </metadata>
  <defs
     id="defs4140" />
  <sodipodi:namedview
     pagecolor="#ffffff"
     bordercolor="#666666"
     borderopacity="1"
     objecttolerance="10"
     gridtolerance="10"
     guidetolerance="10"
     inkscape:pageopacity="0"
     inkscape:pageshadow="2"
     inkscape:window-width="1327"
     inkscape:window-height="744"
     id="namedview4138"
     showgrid="false"
     inkscape:zoom="5.6568544"
     inkscape:cx="14.346866"
     inkscape:cy="30.516531"
     inkscape:window-x="39"
     inkscape:window-y="24"
     inkscape:window-maximized="1"
     inkscape:current-layer="svg4136" />
  <rect
     width="64"
     height="64"
     x="0"
     y="0"
     id="rect236"
     style="fill:#1d2d44;fill-opacity:1" />
  <circle
     d="m 308.82599,78.911003 c 0,11.229054 -9.10295,20.332001 -20.332,20.332001 -11.22906,0 -20.332,-9.102947 -20.332,-20.332001 0,-11.229054 9.10294,-20.332001 20.332,-20.332001 11.22905,0 20.332,9.102947 20.332,20.332001 z"
     sodipodi:ry="20.332001"
     sodipodi:rx="20.332001"
     sodipodi:cy="78.911003"
     sodipodi:cx="288.49399"
     cx="288.49399"
     cy="78.911003"
     r="20.332001"
     transform="matrix(0.20046791,0,0,0.20046791,-37.454422,9.2352954)"
     id="circle265"
     style="fill:#ffffff;fill-opacity:1;stroke:#1d2d44;stroke-width:4;stroke-opacity:1" />
  <circle
     d="m 288.453,149.577 c 0,20.56818 -16.67381,37.242 -37.242,37.242 -20.56819,0 -37.242,-16.67382 -37.242,-37.242 0,-20.56819 16.67381,-37.242 37.242,-37.242 20.56819,0 37.242,16.67381 37.242,37.242 z"
     sodipodi:ry="37.242001"
     sodipodi:rx="37.242001"
     sodipodi:cy="149.577"
     sodipodi:cx="251.211"
     cx="251.211"
     cy="149.577"
     r="37.242001"
     transform="matrix(0.20046791,0,0,0.20046791,-37.454422,9.2352954)"
     id="circle272"
     style="fill:#ffffff;fill-opacity:1;stroke:#1d2d44;stroke-width:4;stroke-opacity:1" />
  <circle
     d="m 333.48601,124.796 c 0,22.23553 -18.02547,40.261 -40.261,40.261 -22.23554,0 -40.26101,-18.02547 -40.26101,-40.261 0,-22.23554 18.02547,-40.261004 40.26101,-40.261004 22.23553,0 40.261,18.025464 40.261,40.261004 z"
     sodipodi:ry="40.261002"
     sodipodi:rx="40.261002"
     sodipodi:cy="124.796"
     sodipodi:cx="293.22501"
     cx="293.22501"
     cy="124.796"
     r="40.261002"
     transform="matrix(0.20046791,0,0,0.20046791,-37.454422,9.2352954)"
     id="circle279"
     style="fill:#ffffff;fill-opacity:1;stroke:#1d2d44;stroke-width:4;stroke-opacity:1" />
  <circle
     d="m 412.57602,108.472 c 0,20.56819 -16.67382,37.242 -37.24201,37.242 -20.56818,0 -37.242,-16.67381 -37.242,-37.242 0,-20.568189 16.67382,-37.242 37.242,-37.242 20.56819,0 37.24201,16.673811 37.24201,37.242 z"
     sodipodi:ry="37.242001"
     sodipodi:rx="37.242001"
     sodipodi:cy="108.472"
     sodipodi:cx="375.33401"
     cx="375.33401"
     cy="108.472"
     r="37.242001"
     transform="matrix(0.20046791,0,0,0.20046791,-37.454422,9.2352954)"
     id="circle286"
     style="fill:#ffffff;fill-opacity:1;stroke:#1d2d44;stroke-width:4;stroke-opacity:1" />
  <circle
     d="m 371.73401,79.503998 c 0,20.567632 -16.67336,37.241002 -37.241,37.241002 -20.56764,0 -37.241,-16.67337 -37.241,-37.241002 0,-20.567637 16.67336,-37.241001 37.241,-37.241001 20.56764,0 37.241,16.673364 37.241,37.241001 z"
     sodipodi:ry="37.241001"
     sodipodi:rx="37.241001"
     sodipodi:cy="79.503998"
     sodipodi:cx="334.49301"
     cx="334.49301"
     cy="79.503998"
     r="37.241001"
     transform="matrix(0.20046791,0,0,0.20046791,-37.454422,9.2352954)"
     id="circle293"
     style="fill:#ffffff;fill-opacity:1;stroke:#1d2d44;stroke-width:4;stroke-opacity:1" />
  <circle
     d="m 479.727,163.95799 c 0,11.76367 -9.53633,21.3 -21.3,21.3 -11.76366,0 -21.3,-9.53633 -21.3,-21.3 0,-11.76366 9.53634,-21.3 21.3,-21.3 11.76367,0 21.3,9.53634 21.3,21.3 z"
     sodipodi:ry="21.299999"
     sodipodi:rx="21.299999"
     sodipodi:cy="163.95799"
     sodipodi:cx="458.427"
     cx="458.427"
     cy="163.95799"
     r="21.299999"
     transform="matrix(0.20046791,0,0,0.20046791,-37.454422,9.2352954)"
     id="circle300"
     style="fill:#ffffff;fill-opacity:1;stroke:#1d2d44;stroke-width:4;stroke-opacity:1" />
  <circle
     d="m 453.424,147.563 c 0,22.23554 -18.02547,40.26101 -40.26101,40.26101 -22.23553,0 -40.261,-18.02547 -40.261,-40.26101 0,-22.23553 18.02547,-40.261 40.261,-40.261 22.23554,0 40.26101,18.02547 40.26101,40.261 z"
     sodipodi:ry="40.261002"
     sodipodi:rx="40.261002"
     sodipodi:cy="147.563"
     sodipodi:cx="413.16299"
     cx="413.16299"
     cy="147.563"
     r="40.261002"
     transform="matrix(0.20046791,0,0,0.20046791,-37.454422,9.2352954)"
     id="circle307"
     style="fill:#ffffff;fill-opacity:1;stroke:#1d2d44;stroke-width:4;stroke-opacity:1" />
  <circle
     d="m 312.06099,166.011 c 0,11.76311 -9.53588,21.299 -21.299,21.299 -11.76311,0 -21.299,-9.53589 -21.299,-21.299 0,-11.76311 9.53589,-21.299 21.299,-21.299 11.76312,0 21.299,9.53589 21.299,21.299 z"
     sodipodi:ry="21.299"
     sodipodi:rx="21.299"
     sodipodi:cy="166.011"
     sodipodi:cx="290.76199"
     cx="290.76199"
     cy="166.011"
     r="21.299"
     transform="matrix(0.20046791,0,0,0.20046791,-37.454422,9.2352954)"
     id="circle314"
     style="fill:#ffffff;fill-opacity:1;stroke:#1d2d44;stroke-width:4;stroke-opacity:1" />
  <path
     inkscape:connector-curvature="0"
     d="m 42.35326,36.432575 c 0,5.682862 -4.607555,10.289616 -10.290819,10.289616 -5.68327,0 -10.290618,-4.606754 -10.290618,-10.289616 0,-5.683464 4.607549,-10.290619 10.290618,-10.290619 5.683063,0 10.290819,4.607155 10.290819,10.290619 z"
     id="path321"
     style="fill:#ffffff;fill-opacity:1;stroke:#1d2d44;stroke-width:0.80187166;stroke-opacity:1" />
</svg>
