<?xml version="1.0" encoding="UTF-8" standalone="no"?>
<!-- Created with Inkscape (http://www.inkscape.org/) -->

<svg
   xmlns:dc="http://purl.org/dc/elements/1.1/"
   xmlns:cc="http://creativecommons.org/ns#"
   xmlns:rdf="http://www.w3.org/1999/02/22-rdf-syntax-ns#"
   xmlns:svg="http://www.w3.org/2000/svg"
   xmlns="http://www.w3.org/2000/svg"
   xmlns:sodipodi="http://sodipodi.sourceforge.net/DTD/sodipodi-0.dtd"
   xmlns:inkscape="http://www.inkscape.org/namespaces/inkscape"
   id="svg4136"
   version="1.1"
   inkscape:version="0.48.4 r9939"
   width="64"
   height="64"
   viewBox="0 0 64 64"
   sodipodi:docname="app.svg"
   inkscape:export-filename="/home/klaus/Pictures/app.png"
   inkscape:export-xdpi="90"
   inkscape:export-ydpi="90">
  <metadata
     id="metadata4142">
    <rdf:RDF>
      <cc:Work
         rdf:about="">
        <dc:format>image/svg+xml</dc:format>
        <dc:type
           rdf:resource="http://purl.org/dc/dcmitype/StillImage" />
        <dc:title></dc:title>
      </cc:Work>
    </rdf:RDF>
  </metadata>
  <defs
     id="defs4140" />
  <sodipodi:namedview
     pagecolor="#ffffff"
     bordercolor="#666666"
     borderopacity="1"
     objecttolerance="10"
     gridtolerance="10"
     guidetolerance="10"
     inkscape:pageopacity="0"
     inkscape:pageshadow="2"
     inkscape:window-width="1327"
     inkscape:window-height="744"
     id="namedview4138"
     showgrid="false"
     inkscape:zoom="8.0000002"
     inkscape:cx="32.827265"
     inkscape:cy="35.934849"
     inkscape:window-x="39"
     inkscape:window-y="24"
     inkscape:window-maximized="1"
     inkscape:current-layer="svg4136" />
  <g
     id="g3009"
     transform="matrix(0.12501337,0,0,0.12518627,0.17679448,54.837319)">
    <rect
       y="-438.04581"
       x="-1.4142046"
       height="511.23819"
       width="511.94525"
       id="rect3029"
       style="fill:#3678ca;fill-opacity:1" />
    <g
       transform="translate(0,-436)"
       id="text4146"
       style="font-size:16px;font-style:normal;font-variant:normal;font-weight:normal;font-stretch:normal;text-align:start;line-height:125%;letter-spacing:0px;word-spacing:0px;text-anchor:start;fill:#ffffff;fill-opacity:1;stroke:none;font-family:Open Sans;-inkscape-font-specification:Open Sans">
      <path
         inkscape:connector-curvature="0"
         id="path2987"
         style="font-size:112.5px;fill:#ffffff;font-family:Architects Daughter;-inkscape-font-specification:Architects Daughter"
         d="m 19.422363,379.76901 c -1e-6,-1.0986 0.274657,-2.21555 0.823975,-3.35083 0.549314,-1.13522 1.245114,-2.19723 2.087402,-3.18603 0.84228,-0.98874 1.776117,-1.7944 2.801514,-2.41699 1.025383,-0.62253 2.050772,-0.93381 3.076172,-0.93384 0.07323,3.44241 0.750721,6.48196 2.03247,9.11865 1.281725,2.63674 3.021226,4.90725 5.218506,6.81152 2.197247,1.90432 4.705789,3.46071 7.525635,4.66919 2.819797,1.20851 5.786102,2.12404 8.898926,2.74658 3.112756,0.62257 6.262167,0.98878 9.448242,1.09864 0.732378,0.0366 1.464799,0.0549 2.197266,0.0549 2.380323,10e-6 4.669139,-0.14647 6.866455,-0.43945 1.611274,-0.80566 2.874701,-2.49023 3.790283,-5.05372 0.91547,-2.56345 1.59296,-5.69455 2.032471,-9.39331 0.439394,-3.6987 0.714052,-7.78195 0.823974,-12.24975 0.07318,-2.6733 0.109805,-5.36495 0.109864,-8.07495 -5.9e-5,-1.79439 -0.01837,-3.60713 -0.05493,-5.43824 -0.0733,-4.54096 -0.146543,-8.93548 -0.219727,-13.18359 -0.03668,-2.81976 -0.05499,-5.43816 -0.05493,-7.85522 -5.9e-5,-1.20843 -5.9e-5,-2.36199 0,-3.4607 0.03656,-3.29582 0.219667,-5.95084 0.549316,-7.96508 0.32953,-2.01408 0.897157,-3.02116 1.702881,-3.02125 l 9.228516,0 c -7e-5,1.09872 0.09148,3.00302 0.274658,5.7129 0.183035,2.71003 0.34783,5.93269 0.494385,9.66796 0.146413,3.73542 0.274587,7.85529 0.384521,12.35962 0.03655,1.68463 0.05486,3.38751 0.05493,5.10865 -7.2e-5,2.85649 -0.055,5.74956 -0.164795,8.6792 -0.183177,4.68754 -0.494456,9.30179 -0.933838,13.84277 -0.439523,4.54104 -1.153634,8.75246 -2.142334,12.63428 -0.988837,3.88185 -2.233953,7.25098 -3.735352,10.10742 -1.501527,2.85645 -3.387512,4.94385 -5.657959,6.2622 -2.12408,1.17188 -4.92559,1.88599 -8.404541,2.14234 -1.098682,0.0732 -2.233934,0.10986 -3.405761,0.10986 -2.490279,0 -5.108685,-0.1831 -7.855225,-0.54931 -4.028355,-0.54932 -8.148224,-1.50147 -12.359619,-2.85645 -4.211448,-1.35498 -8.09328,-3.05785 -11.645508,-5.10864 -3.552257,-2.05077 -6.573495,-4.46776 -9.063721,-7.25098 -2.490237,-2.78318 -4.064943,-5.89597 -4.724121,-9.33838 z" />
      <path
         inkscape:connector-curvature="0"
         id="path2989"
         style="font-size:112.5px;fill:#ffffff;font-family:Architects Daughter;-inkscape-font-specification:Architects Daughter"
         d="m 94.788574,392.29343 c -2e-6,-0.8789 0.311277,-1.73949 0.933838,-2.58179 0.622555,-0.84227 1.336666,-1.62962 2.142334,-2.36206 0.805658,-0.7324 1.593011,-1.35496 2.362064,-1.86768 0.76903,-0.51267 1.30004,-0.87888 1.59301,-1.09863 0.14648,3.66213 1.26342,6.44533 3.35083,8.34961 2.08739,1.90431 4.76073,3.13111 8.02002,3.68042 1.61131,0.29298 3.34165,0.43031 5.19104,0.41199 1.84934,-0.0183 3.7811,-0.15563 5.79529,-0.41199 4.06491,-0.54931 8.18478,-1.46483 12.35962,-2.74658 4.17476,-1.28173 8.16645,-2.83812 11.9751,-4.66919 3.80853,-1.83104 7.12274,-3.71702 9.94263,-5.65796 2.81975,-1.9409 4.90715,-3.82688 6.2622,-5.65796 0.87884,-1.17185 1.31829,-2.27048 1.31836,-3.2959 -7e-5,-0.54928 -0.12824,-1.06198 -0.38452,-1.53808 l -57.01904,-12.74414 c -0.73244,-0.21969 -1.62966,-0.60421 -2.69165,-1.15357 -1.06203,-0.54927 -2.06911,-1.17183 -3.02124,-1.86768 -0.95216,-0.69575 -1.75782,-1.46479 -2.417,-2.30712 -0.659182,-0.84224 -0.988771,-1.70283 -0.988765,-2.58179 -6e-6,-3.44233 1.263415,-6.59174 3.790285,-9.44824 2.52684,-2.85638 5.7678,-5.40155 9.7229,-7.6355 3.95505,-2.23382 8.34958,-4.19304 13.18359,-5.87769 4.83395,-1.68449 9.52144,-3.0944 14.0625,-4.22973 4.54097,-1.13518 8.69746,-1.99577 12.46949,-2.58179 3.7719,-0.58585 6.57341,-0.95207 8.40454,-1.09863 0.51262,0.21981 1.35491,0.3846 2.52685,0.49438 1.1718,0.10995 2.32537,0.31136 3.46069,0.60425 1.13518,0.29305 2.08733,0.69588 2.85645,1.2085 0.76897,0.51277 1.007,1.28181 0.71411,2.30712 0.0732,1.31844 -0.69588,2.43538 -2.30713,3.35083 -1.6114,0.91561 -3.75373,1.70296 -6.427,2.36207 -2.67341,0.65925 -5.71295,1.22687 -9.11865,1.70288 -3.40582,0.47614 -6.90313,1.00715 -10.49195,1.59301 -3.58891,0.58601 -7.10453,1.2635 -10.54687,2.03247 -3.44242,0.76911 -6.5369,1.72126 -9.28345,2.85645 -2.74661,1.13532 -4.98049,2.50861 -6.70166,4.11987 -1.72121,1.61139 -2.61843,3.58893 -2.69165,5.93262 -2e-5,0.21978 0.27464,0.45782 0.82398,0.71411 0.54929,0.2564 1.6113,0.6043 3.18603,1.0437 1.57468,0.43951 3.80857,1.04376 6.70166,1.81275 2.89303,0.76909 6.70162,1.79448 11.42578,3.07617 4.72408,1.28178 10.5102,2.89311 17.3584,4.83398 6.84808,1.94096 14.99626,4.2664 24.44458,6.97632 0.87882,1.97757 1.31828,3.88187 1.31836,5.71289 -8e-5,0.8057 -0.0916,1.61136 -0.27466,2.41699 -0.5494,2.56351 -1.7762,4.96219 -3.68042,7.19605 -1.90437,2.2339 -4.33967,4.33962 -7.30591,6.31714 -2.96638,1.97755 -6.17072,3.75367 -9.61303,5.32837 -3.44245,1.57471 -7.013,2.96631 -10.71167,4.1748 -3.69878,1.2085 -7.25103,2.23389 -10.65674,3.07617 -3.4058,0.84229 -6.51859,1.46485 -9.33838,1.86768 -2.3804,0.32959 -4.39456,0.49438 -6.04248,0.49438 -0.293,0 -0.56765,0 -0.82397,0 -1.46487,0 -3.5889,-0.27465 -6.37207,-0.82397 -2.78323,-0.54932 -5.56643,-1.37329 -8.34961,-2.47192 -2.78322,-1.09863 -5.21852,-2.4353 -7.305912,-4.01001 -2.087406,-1.5747 -3.131106,-3.35082 -3.131104,-5.32837 z" />
      <path
         inkscape:connector-curvature="0"
         id="path2991"
         style="font-size:112.5px;fill:#ffffff;font-family:Architects Daughter;-inkscape-font-specification:Architects Daughter"
         d="m 186.74414,328.57272 c 0,-0.95207 0.3479,-1.75773 1.0437,-2.41699 0.6958,-0.6591 1.53808,-1.11686 2.52686,-1.37329 0.98876,-0.25627 1.99584,-0.36613 3.02124,-0.32959 1.02538,0.0367 1.90428,0.23812 2.63672,0.60425 l 26.36718,31.86035 32.73926,-38.78174 8.02002,6.48194 -32.95898,39.11132 c 2.12397,2.85649 4.4311,5.40165 6.92138,7.6355 2.49018,2.23392 4.99872,4.30301 7.52564,6.20728 2.52679,1.90432 4.9804,3.69875 7.36084,5.3833 2.3803,1.68459 4.4677,3.40578 6.26221,5.16357 1.79435,1.75783 3.24088,3.60719 4.33959,5.5481 1.09856,1.94092 1.64787,4.08326 1.64795,6.427 -0.29305,2.12403 -1.24519,3.55225 -2.85644,4.28467 -0.43953,0.21972 -0.91561,0.32959 -1.42822,0.32959 -1.35506,0 -2.92977,-0.6958 -4.72413,-2.08741 l -31.20117,-28.67431 c -2.34379,1.97757 -4.57767,4.57766 -6.70166,7.80029 -2.12405,3.22268 -4.26638,6.40871 -6.427,9.55811 -2.16067,3.14942 -4.41286,5.85938 -6.75659,8.12988 -2.34377,2.27051 -4.94386,3.40576 -7.80029,3.40576 -2.78322,0 -4.79738,-0.43945 -6.04248,-1.31836 -0.91554,-0.65917 -1.3733,-1.88598 -1.3733,-3.68042 0,-0.62255 0.0549,-1.33666 0.1648,-2.14233 l 26.0376,-30.87158 c -4.68753,-5.85933 -8.66091,-10.8398 -11.92017,-14.94141 -3.25929,-4.1015 -5.93263,-7.48895 -8.02002,-10.16235 -2.08741,-2.67328 -3.69874,-4.74237 -4.83398,-6.20728 -1.13526,-1.46477 -1.97755,-2.5634 -2.52686,-3.2959 -0.54932,-0.73234 -0.8606,-1.1718 -0.93384,-1.31836 -0.0732,-0.14641 -0.10986,-0.25627 -0.10986,-0.32959 z" />
      <path
         inkscape:connector-curvature="0"
         id="path2993"
         style="font-size:112.5px;fill:#ffffff;font-family:Architects Daughter;-inkscape-font-specification:Architects Daughter"
         d="m 270.3501,370.5405 c -10e-6,-7.54391 1.35497,-14.75825 4.06494,-21.64307 2.70995,-6.8847 6.42699,-12.94549 11.15112,-18.18237 4.7241,-5.23674 10.2905,-9.41154 16.69922,-12.52442 6.40865,-3.1127 13.34834,-4.66909 20.81909,-4.66919 3.00287,10e-5 5.51142,0.16489 7.52564,0.49439 2.01409,0.32968 3.64373,1.02548 4.88891,2.0874 1.24505,1.0621 2.14227,2.58187 2.69165,4.55933 0.54925,1.97762 0.82391,4.61433 0.82398,7.91015 -4.24812,-4.24796 -8.69757,-6.90299 -13.34839,-7.96508 -2.12408,-0.47599 -4.21148,-0.71403 -6.26221,-0.71412 -2.49028,9e-5 -4.94389,0.34799 -7.36084,1.04371 -4.43119,1.28182 -8.60599,3.55232 -12.52441,6.81152 -3.91849,3.25935 -7.28762,7.06794 -10.10742,11.42578 -2.81985,4.35797 -4.94387,9.08209 -6.37207,14.17236 -1.06203,3.7354 -1.59303,7.43413 -1.59302,11.09619 -10e-6,1.3184 0.0732,2.61845 0.21973,3.90015 -2e-5,4.61429 0.82396,8.66092 2.47192,12.13989 1.64793,3.47903 3.88181,6.35378 6.70166,8.62427 2.8198,2.27052 6.134,3.9734 9.94263,5.10864 3.80855,1.13527 7.87349,1.70289 12.19482,1.70288 5.41987,-0.43944 10.18061,-1.35497 14.28223,-2.74658 4.1015,-1.39159 7.85515,-3.07615 11.26098,-5.05371 3.40569,-1.97752 6.66496,-4.11985 9.77784,-6.427 3.1127,-2.3071 6.39029,-4.5593 9.83276,-6.75659 0.65909,3e-5 1.33658,0.0367 2.03247,0.10986 0.69571,0.0733 1.33658,0.21976 1.92261,0.43945 0.58584,0.21976 1.06191,0.56766 1.42822,1.04371 0.36611,0.4761 0.54922,1.15359 0.54932,2.03247 -3.66221,3.22268 -7.61728,6.44533 -11.86524,9.66797 -4.24813,3.22266 -8.7342,6.09742 -13.45825,8.62426 -4.72419,2.52686 -9.66803,4.54102 -14.83154,6.04248 -4.68755,1.35498 -9.50322,2.03247 -14.44702,2.03247 -0.47612,0 -0.95219,0 -1.42823,0 -4.83402,0 -9.52151,-0.82397 -14.0625,-2.47192 -4.54103,-1.64795 -8.56935,-3.99169 -12.08496,-7.03125 -3.51563,-3.03954 -6.31714,-6.66502 -8.40454,-10.87646 -2.08741,-4.21141 -3.13111,-8.88059 -3.1311,-14.00757 z" />
    </g>
    <g
       transform="translate(0,-436)"
       id="text4150"
       style="font-size:16px;font-style:normal;font-variant:normal;font-weight:normal;font-stretch:normal;text-align:start;line-height:125%;letter-spacing:0px;word-spacing:0px;text-anchor:start;fill:#e6e6e6;fill-opacity:1;stroke:none;font-family:Open Sans;-inkscape-font-specification:Open Sans">
      <path
         inkscape:connector-curvature="0"
         id="path2996"
         style="font-size:30px;fill:#e6e6e6;font-family:Architects Daughter;-inkscape-font-specification:Architects Daughter"
         d="m 19.71122,448.66696 c -1e-6,-0.29296 0.07324,-0.59081 0.219726,-0.89355 0.146484,-0.30273 0.332031,-0.58593 0.556641,-0.84961 0.224608,-0.26367 0.473631,-0.47851 0.74707,-0.64453 0.273436,-0.16601 0.546873,-0.24902 0.820313,-0.24903 0.01953,0.91798 0.200192,1.72853 0.541992,2.43164 0.341793,0.70313 0.80566,1.3086 1.391602,1.81641 0.585932,0.50782 1.254876,0.92286 2.006835,1.24512 0.751946,0.32227 1.542961,0.56641 2.373047,0.73242 0.830069,0.16602 1.669912,0.26367 2.519532,0.29297 0.1953,0.01 0.390613,0.0146 0.585937,0.0146 0.634753,0 1.245104,-0.0391 1.831055,-0.11719 0.429673,-0.21484 0.766587,-0.66406 1.010742,-1.34766 0.244125,-0.68359 0.424789,-1.51855 0.541992,-2.50488 0.117172,-0.98632 0.190414,-2.07519 0.219727,-3.2666 0.01952,-0.71288 0.02928,-1.43065 0.0293,-2.15332 -1.6e-5,-0.47851 -0.0049,-0.9619 -0.01465,-1.4502 -0.01955,-1.21092 -0.03908,-2.38279 -0.05859,-3.51562 -0.0098,-0.75194 -0.01466,-1.45018 -0.01465,-2.09473 -1.6e-5,-0.32225 -1.6e-5,-0.62986 0,-0.92285 0.0098,-0.87889 0.05858,-1.58689 0.146484,-2.12402 0.08788,-0.53709 0.239242,-0.80565 0.454102,-0.80567 l 2.460937,0 c -1.8e-5,0.29299 0.0244,0.80081 0.07324,1.52344 0.04881,0.72268 0.09275,1.58205 0.131836,2.57812 0.03904,0.99612 0.07322,2.09475 0.102539,3.2959 0.0097,0.44924 0.01463,0.90334 0.01465,1.36231 -1.9e-5,0.76173 -0.01467,1.53321 -0.04395,2.31445 -0.04885,1.25001 -0.131855,2.48048 -0.249024,3.69141 -0.117206,1.21094 -0.307635,2.33399 -0.571289,3.36914 -0.26369,1.03516 -0.59572,1.93359 -0.996094,2.69531 -0.400407,0.76172 -0.903336,1.31836 -1.508789,1.66992 -0.566421,0.3125 -1.31349,0.50293 -2.241211,0.57129 -0.292981,0.0195 -0.595715,0.0293 -0.908203,0.0293 -0.664074,0 -1.362315,-0.0488 -2.094726,-0.14649 -1.074228,-0.14648 -2.17286,-0.40039 -3.295899,-0.76172 -1.123053,-0.36132 -2.158208,-0.81542 -3.105468,-1.3623 -0.947269,-0.54687 -1.752932,-1.1914 -2.416993,-1.93359 -0.664063,-0.74219 -1.083984,-1.57226 -1.259765,-2.49024 z" />
      <path
         inkscape:connector-curvature="0"
         id="path2998"
         style="font-size:30px;fill:#e6e6e6;font-family:Architects Daughter;-inkscape-font-specification:Architects Daughter"
         d="m 40.043251,452.00681 c -0.08789,-0.44922 -0.131837,-0.90332 -0.131836,-1.36231 -10e-7,-0.64453 0.08789,-1.29882 0.263672,-1.96289 0.302733,-1.12304 0.776365,-2.20702 1.420898,-3.25195 0.644529,-1.04491 1.435544,-2.01171 2.373047,-2.90039 0.937495,-0.88866 1.93847,-1.64061 3.00293,-2.25586 1.064444,-0.61522 2.158193,-1.05956 3.28125,-1.33301 0.654285,-0.15623 1.298816,-0.23436 1.933594,-0.23438 0.449205,2e-5 0.893541,0.0391 1.333008,0.11719 0.800766,2e-5 1.425765,0.26369 1.875,0.79102 0.449202,0.52736 0.786115,1.23048 1.010742,2.10937 0.224592,0.87892 0.366193,1.88966 0.424804,3.03223 0.05858,1.14259 0.107405,2.31934 0.146485,3.53027 0.03905,1.21095 0.09276,2.40723 0.161133,3.58887 0.06834,1.18164 0.219708,2.26074 0.454101,3.2373 l -2.167969,0 c -0.09767,-0.66406 -0.170914,-1.24999 -0.219726,-1.75781 -0.04884,-0.50781 -0.09279,-0.98144 -0.131836,-1.4209 -0.03908,-0.43945 -0.09279,-0.86425 -0.161133,-1.27441 -0.06837,-0.41015 -0.161148,-0.86914 -0.27832,-1.37695 -0.566421,0.87891 -1.220717,1.67481 -1.962891,2.38769 -0.7422,0.71289 -1.557629,1.31836 -2.446289,1.81641 -0.888682,0.49805 -1.855478,0.86426 -2.900391,1.09863 -0.742194,0.16602 -1.508795,0.24902 -2.299804,0.24902 -0.332037,0 -0.664068,-0.0146 -0.996094,-0.0439 -0.410161,0 -0.849613,-0.0488 -1.318359,-0.14649 -0.468753,-0.0977 -0.903323,-0.2539 -1.303711,-0.46875 -0.400393,-0.21484 -0.727541,-0.49804 -0.981446,-0.84961 -0.253907,-0.35156 -0.38086,-0.79101 -0.380859,-1.31835 z m 2.387695,-1.37696 c 0.04883,0.58594 0.268552,1.08399 0.65918,1.49414 0.390621,0.41016 0.996089,0.6836 1.816406,0.82032 1.171868,-0.0195 2.299797,-0.31738 3.383789,-0.89356 1.083975,-0.57617 2.050771,-1.28906 2.900391,-2.13867 0.849597,-0.8496 1.557604,-1.76757 2.124023,-2.75391 0.566392,-0.98632 0.932603,-1.8994 1.098633,-2.73926 0.05858,-0.29295 0.08788,-0.56639 0.08789,-0.82031 -1.5e-5,-0.48827 -0.102554,-0.91795 -0.307617,-1.28906 -0.312515,-0.56639 -0.908217,-0.8496 -1.78711,-0.84961 -0.136731,-0.01 -0.278333,-0.0146 -0.424804,-0.0146 -0.634778,2e-5 -1.279309,0.10744 -1.933594,0.32227 -0.810557,0.26368 -1.591806,0.63478 -2.34375,1.11328 -0.751961,0.47853 -1.455085,1.04493 -2.109375,1.69922 -0.654303,0.6543 -1.225591,1.33301 -1.713867,2.03613 -0.488286,0.70313 -0.864262,1.40137 -1.12793,2.09473 -0.224613,0.58594 -0.336917,1.13281 -0.336914,1.64062 -3e-6,0.0977 0.0049,0.19044 0.01465,0.27832 z" />
      <path
         inkscape:connector-curvature="0"
         id="path3000"
         style="font-size:30px;fill:#e6e6e6;font-family:Architects Daughter;-inkscape-font-specification:Architects Daughter"
         d="m 59.672157,441.16696 c -0.03906,-0.12694 -0.05859,-0.25877 -0.05859,-0.39551 -2e-6,-0.18553 0.03906,-0.37596 0.117187,-0.57129 0.136717,-0.33201 0.327147,-0.59568 0.571289,-0.79101 0.244139,-0.1953 0.502927,-0.28807 0.776367,-0.27832 0.273435,0.01 0.498044,0.19044 0.673828,0.54199 l 6.152344,11.42578 c 0.195303,-0.31249 0.507803,-0.86425 0.9375,-1.65527 0.429677,-0.79101 0.917958,-1.68456 1.464844,-2.68067 0.546862,-0.99608 1.118151,-2.041 1.713867,-3.13476 0.595689,-1.09374 1.152329,-2.08983 1.669922,-2.98828 0.517562,-0.89842 0.966781,-1.64061 1.347656,-2.22656 0.380843,-0.58592 0.629866,-0.87889 0.747071,-0.87891 0.253888,2e-5 0.478497,0.0586 0.673828,0.17578 0.195294,0.11721 0.356427,0.26857 0.483398,0.4541 0.126935,0.18557 0.214825,0.38576 0.263672,0.60059 0.03904,0.15626 0.05857,0.30275 0.05859,0.43945 -1.9e-5,0.0586 -0.0049,0.1172 -0.01465,0.17578 -1.054705,2.26564 -1.962907,4.2383 -2.724609,5.91797 -0.761734,1.6797 -1.420913,3.11036 -1.977539,4.29199 -0.556654,1.18165 -1.020521,2.14844 -1.391602,2.90039 -0.371106,0.75196 -0.70802,1.34766 -1.010742,1.78711 -0.302746,0.43946 -0.581066,0.73731 -0.834961,0.89356 -0.253917,0.15625 -0.527354,0.23437 -0.820312,0.23437 -0.390635,0 -0.90333,-0.38086 -1.538086,-1.14258 -0.634774,-0.76171 -1.347664,-1.79198 -2.138672,-3.09082 -0.791021,-1.29882 -1.625982,-2.81249 -2.504883,-4.54101 -0.878909,-1.72851 -1.757815,-3.54979 -2.636719,-5.46387 z" />
      <path
         inkscape:connector-curvature="0"
         id="path3002"
         style="font-size:30px;fill:#e6e6e6;font-family:Architects Daughter;-inkscape-font-specification:Architects Daughter"
         d="m 78.597939,452.00681 c -0.08789,-0.44922 -0.131837,-0.90332 -0.131836,-1.36231 -10e-7,-0.64453 0.08789,-1.29882 0.263671,-1.96289 0.302734,-1.12304 0.776366,-2.20702 1.420899,-3.25195 0.644528,-1.04491 1.435543,-2.01171 2.373047,-2.90039 0.937494,-0.88866 1.93847,-1.64061 3.002929,-2.25586 1.064445,-0.61522 2.158194,-1.05956 3.28125,-1.33301 0.654286,-0.15623 1.298816,-0.23436 1.933594,-0.23438 0.449206,2e-5 0.893541,0.0391 1.333008,0.11719 0.800766,2e-5 1.425766,0.26369 1.875,0.79102 0.449202,0.52736 0.786116,1.23048 1.010742,2.10937 0.224592,0.87892 0.366194,1.88966 0.424805,3.03223 0.05858,1.14259 0.107404,2.31934 0.146484,3.53027 0.03905,1.21095 0.09276,2.40723 0.161133,3.58887 0.06834,1.18164 0.219709,2.26074 0.454102,3.2373 l -2.167969,0 c -0.09767,-0.66406 -0.170915,-1.24999 -0.219727,-1.75781 -0.04884,-0.50781 -0.09279,-0.98144 -0.131836,-1.4209 -0.03908,-0.43945 -0.09279,-0.86425 -0.161132,-1.27441 -0.06838,-0.41015 -0.161149,-0.86914 -0.278321,-1.37695 -0.566421,0.87891 -1.220717,1.67481 -1.96289,2.38769 -0.742201,0.71289 -1.557629,1.31836 -2.446289,1.81641 -0.888682,0.49805 -1.855478,0.86426 -2.900391,1.09863 -0.742195,0.16602 -1.508796,0.24902 -2.299805,0.24902 -0.332036,0 -0.664067,-0.0146 -0.996093,-0.0439 -0.410161,0 -0.849614,-0.0488 -1.31836,-0.14649 -0.468753,-0.0977 -0.903323,-0.2539 -1.303711,-0.46875 -0.400392,-0.21484 -0.72754,-0.49804 -0.981445,-0.84961 -0.253907,-0.35156 -0.38086,-0.79101 -0.380859,-1.31835 z m 2.387695,-1.37696 c 0.04882,0.58594 0.268551,1.08399 0.65918,1.49414 0.39062,0.41016 0.996088,0.6836 1.816406,0.82032 1.171868,-0.0195 2.299797,-0.31738 3.383789,-0.89356 1.083974,-0.57617 2.05077,-1.28906 2.90039,-2.13867 0.849597,-0.8496 1.557604,-1.76757 2.124024,-2.75391 0.566392,-0.98632 0.932602,-1.8994 1.098633,-2.73926 0.05858,-0.29295 0.08787,-0.56639 0.08789,-0.82031 -1.5e-5,-0.48827 -0.102554,-0.91795 -0.307617,-1.28906 -0.312514,-0.56639 -0.908217,-0.8496 -1.787109,-0.84961 -0.136732,-0.01 -0.278333,-0.0146 -0.424805,-0.0146 -0.634778,2e-5 -1.279308,0.10744 -1.933594,0.32227 -0.810557,0.26368 -1.591806,0.63478 -2.34375,1.11328 -0.75196,0.47853 -1.455085,1.04493 -2.109375,1.69922 -0.654302,0.6543 -1.225591,1.33301 -1.713867,2.03613 -0.488285,0.70313 -0.864261,1.40137 -1.12793,2.09473 -0.224612,0.58594 -0.336917,1.13281 -0.336914,1.64062 -3e-6,0.0977 0.0049,0.19044 0.01465,0.27832 z" />
      <path
         inkscape:connector-curvature="0"
         id="path3004"
         style="font-size:30px;fill:#e6e6e6;font-family:Architects Daughter;-inkscape-font-specification:Architects Daughter"
         d="m 97.465126,452.00681 c -10e-7,-0.23438 0.08301,-0.46387 0.249023,-0.68848 0.166015,-0.22461 0.356445,-0.43457 0.57129,-0.62988 0.214842,-0.19531 0.424802,-0.36133 0.629882,-0.49805 0.205076,-0.13671 0.346678,-0.23437 0.424805,-0.29297 0.03906,0.97657 0.336911,1.71875 0.893554,2.22656 0.55664,0.50782 1.26953,0.83497 2.13867,0.98145 0.42968,0.0781 0.89111,0.11475 1.38428,0.10986 0.49316,-0.005 1.00829,-0.0415 1.54541,-0.10986 1.08397,-0.14648 2.18261,-0.39062 3.2959,-0.73242 1.11327,-0.3418 2.17772,-0.75684 3.19336,-1.24512 1.01561,-0.48828 1.8994,-0.99121 2.65137,-1.50879 0.75193,-0.51757 1.30857,-1.0205 1.66992,-1.50879 0.23435,-0.31249 0.35154,-0.60546 0.35156,-0.87891 -2e-5,-0.14647 -0.0342,-0.28319 -0.10254,-0.41015 l -15.20508,-3.39844 c -0.19531,-0.0586 -0.43457,-0.16112 -0.71777,-0.30762 -0.28321,-0.14647 -0.551762,-0.31248 -0.805665,-0.49804 -0.253909,-0.18554 -0.468752,-0.39061 -0.644531,-0.61524 -0.175784,-0.22459 -0.263674,-0.45409 -0.263672,-0.68847 -2e-6,-0.91796 0.336912,-1.7578 1.010742,-2.51954 0.673826,-0.7617 1.538086,-1.44041 2.592776,-2.03613 1.05468,-0.59568 2.22655,-1.11814 3.51562,-1.56738 1.28905,-0.4492 2.53905,-0.82518 3.75,-1.12793 1.21093,-0.30271 2.31932,-0.53221 3.3252,-0.68848 1.00584,-0.15622 1.75291,-0.25388 2.24121,-0.29297 0.1367,0.0586 0.36131,0.10257 0.67383,0.13184 0.31248,0.0293 0.62009,0.083 0.92285,0.16113 0.30271,0.0781 0.55662,0.18557 0.76172,0.32227 0.20505,0.13674 0.26853,0.34182 0.19043,0.61523 0.0195,0.35159 -0.18557,0.64944 -0.61524,0.89356 -0.4297,0.24416 -1.00099,0.45412 -1.71386,0.62988 -0.71291,0.1758 -1.52346,0.32717 -2.43165,0.4541 -0.90821,0.12697 -1.84083,0.26858 -2.79785,0.42481 -0.95704,0.15627 -1.89454,0.33693 -2.8125,0.54199 -0.91798,0.20509 -1.74317,0.459 -2.47558,0.76172 -0.73243,0.30275 -1.32813,0.66896 -1.78711,1.09863 -0.45899,0.4297 -0.69825,0.95705 -0.71778,1.58203 0,0.0586 0.0732,0.12209 0.21973,0.19043 0.14648,0.0684 0.42968,0.16115 0.84961,0.27832 0.41992,0.1172 1.01562,0.27834 1.78711,0.4834 0.77147,0.20509 1.7871,0.47853 3.04687,0.82031 1.25976,0.34181 2.80272,0.7715 4.62891,1.28907 1.82615,0.51758 3.999,1.1377 6.51856,1.86035 0.23435,0.52735 0.35154,1.03516 0.35156,1.52343 -2e-5,0.21486 -0.0244,0.4297 -0.0732,0.64454 -0.14651,0.6836 -0.47366,1.32324 -0.98145,1.91894 -0.50783,0.59571 -1.15725,1.15723 -1.94824,1.68457 -0.79104,0.52735 -1.64553,1.00098 -2.56348,1.4209 -0.91798,0.41992 -1.87013,0.79102 -2.85644,1.11328 -0.98635,0.32227 -1.93361,0.5957 -2.8418,0.82031 -0.90821,0.22461 -1.73829,0.39063 -2.49023,0.49805 -0.63478,0.0879 -1.17189,0.13184 -1.61133,0.13184 -0.0781,0 -0.15138,0 -0.21973,0 -0.39063,0 -0.95704,-0.0732 -1.69922,-0.21973 -0.74219,-0.14648 -1.48438,-0.36621 -2.22656,-0.65918 -0.742191,-0.29297 -1.391604,-0.64941 -1.948243,-1.06934 -0.556641,-0.41992 -0.834962,-0.89355 -0.834961,-1.42089 z" />
      <path
         inkscape:connector-curvature="0"
         id="path3006"
         style="font-size:30px;fill:#e6e6e6;font-family:Architects Daughter;-inkscape-font-specification:Architects Daughter"
         d="m 121.78153,449.57516 c -0.01,-0.14647 -0.0147,-0.28808 -0.0147,-0.4248 0,-0.75195 0.1709,-1.5039 0.5127,-2.25586 0.41015,-0.88866 0.98144,-1.73827 1.71387,-2.54883 0.73241,-0.81053 1.59179,-1.56248 2.57812,-2.25586 0.98632,-0.69334 2.02636,-1.28416 3.12012,-1.77246 1.09374,-0.48826 2.20214,-0.85447 3.32519,-1.09863 0.80077,-0.17577 1.57226,-0.26366 2.31446,-0.26367 0.29295,10e-6 0.58104,0.0147 0.86425,0.0439 0.37108,2e-5 0.74218,0.0195 1.11329,0.0586 0.37107,0.0391 0.69822,0.13673 0.98144,0.29297 0.28319,0.15626 0.51268,0.38087 0.68848,0.67382 0.17576,0.29299 0.26365,0.69338 0.26367,1.20118 -2e-5,0.25392 -0.0635,0.47852 -0.19043,0.67382 -0.12697,0.19533 -0.28322,0.38088 -0.46875,0.55664 -0.18556,0.1758 -0.38576,0.33205 -0.60059,0.46875 -0.21486,0.13674 -0.41017,0.27345 -0.58593,0.41016 -0.0586,-0.27342 -0.11721,-0.53221 -0.17578,-0.77637 -0.0586,-0.24412 -0.15139,-0.45897 -0.27832,-0.64453 -0.12697,-0.18553 -0.29299,-0.33202 -0.49805,-0.43945 -0.2051,-0.10741 -0.47365,-0.16112 -0.80567,-0.16113 -1.15235,0.23438 -2.39747,0.59083 -3.73535,1.06933 -1.3379,0.47853 -2.56837,1.04982 -3.6914,1.71387 -1.12306,0.66407 -2.02638,1.41114 -2.70996,2.24121 -0.55665,0.67384 -0.83497,1.39161 -0.83497,2.15332 0,0.17579 0.0147,0.35157 0.0439,0.52734 0,0.85938 0.16601,1.55274 0.49805,2.08008 0.33202,0.52735 0.76659,0.93751 1.30371,1.23047 0.5371,0.29297 1.15233,0.48828 1.8457,0.58594 0.69335,0.0977 1.40136,0.14649 2.12402,0.14648 1.11327,1e-5 2.19238,-0.16601 3.23731,-0.49804 1.04491,-0.33203 2.06541,-0.70313 3.06152,-1.11329 0.99608,-0.41015 1.97264,-0.78124 2.92969,-1.11328 0.95701,-0.33202 1.89451,-0.49804 2.8125,-0.49804 0.15623,0 0.31736,0.01 0.4834,0.0293 0.16599,0.0195 0.31248,0.0732 0.43945,0.16114 0.12693,0.0879 0.21482,0.21485 0.26367,0.38086 0.0195,0.0781 0.0293,0.16602 0.0293,0.26367 -2e-5,0.11719 -0.0147,0.25879 -0.0439,0.4248 -0.0977,0.35157 -0.44435,0.70313 -1.04003,1.05469 -0.59573,0.35157 -1.32815,0.6836 -2.19727,0.99609 -0.86916,0.31251 -1.81642,0.60547 -2.8418,0.87891 -1.0254,0.27344 -2.0215,0.50781 -2.98828,0.70312 -0.96681,0.19532 -1.83595,0.34668 -2.60742,0.45411 -0.77149,0.10742 -1.34278,0.16113 -1.71387,0.16113 -0.85938,0 -1.78711,-0.0977 -2.7832,-0.29297 -0.9961,-0.19531 -1.91895,-0.51758 -2.76855,-0.9668 -0.84962,-0.44921 -1.55762,-1.04003 -2.12403,-1.77246 -0.56641,-0.73242 -0.84961,-1.6455 -0.84961,-2.73926 z" />
      <path
         inkscape:connector-curvature="0"
         id="path3008"
         style="font-size:30px;fill:#e6e6e6;font-family:Architects Daughter;-inkscape-font-specification:Architects Daughter"
         d="m 145.71708,438.58884 c 0,-0.37108 0.13183,-0.61522 0.39551,-0.73243 0.26367,-0.11717 0.55175,-0.17576 0.86425,-0.17578 0.50781,2e-5 0.91309,0.20998 1.21583,0.62989 0.30273,0.41993 0.5371,0.90822 0.70312,1.46484 0.16601,0.55666 0.2832,1.10353 0.35156,1.64063 0.0684,0.53712 0.12207,0.92286 0.16114,1.15722 0.72265,-0.66405 1.53319,-1.27928 2.43164,-1.8457 0.89843,-0.56639 1.8994,-1.04979 3.00293,-1.4502 1.1035,-0.40037 2.33397,-0.69334 3.6914,-0.8789 0.88866,-0.11717 1.84569,-0.17577 2.8711,-0.17578 0.53709,1e-5 1.09861,0.0147 1.68457,0.0439 0.1367,-0.0293 0.26365,-0.0439 0.38086,-0.0439 0.34177,1e-5 0.61033,0.12697 0.80566,0.38086 0.26365,0.34181 0.41502,0.74708 0.4541,1.21582 0.01,0.0781 0.0146,0.16114 0.0146,0.24902 -2e-5,0.38087 -0.0781,0.75685 -0.23438,1.12793 -0.18556,0.44923 -0.46388,0.7129 -0.83496,0.79101 -0.68361,-0.50779 -1.5088,-0.83494 -2.47558,-0.98144 -0.46877,-0.0684 -0.94728,-0.10253 -1.43555,-0.10254 -0.51759,10e-6 -1.04494,0.0391 -1.58203,0.11719 -1.04493,0.15626 -2.07521,0.44435 -3.09082,0.86426 -1.01564,0.41993 -1.91895,0.95216 -2.70996,1.59667 -0.79102,0.64455 -1.41602,1.38673 -1.875,2.22657 -0.39063,0.7129 -0.58594,1.4795 -0.58594,2.2998 0,0.13673 0.005,0.27833 0.0147,0.42481 -1e-5,0.60547 0.0391,1.19629 0.11719,1.77246 0.0781,0.57617 0.16112,1.15235 0.24902,1.72851 0.0879,0.57618 0.17089,1.15235 0.24902,1.72852 0.0781,0.57617 0.11719,1.15723 0.11719,1.74316 -0.52735,0.0391 -0.95215,0.10742 -1.27441,0.20508 -0.29298,0.0879 -0.542,0.13184 -0.74707,0.13184 -0.0195,0 -0.0391,0 -0.0586,0 -0.21484,-0.01 -0.40039,-0.10743 -0.55664,-0.29297 -0.15625,-0.18555 -0.33203,-0.56152 -0.52734,-1.12793 -0.0195,-0.13672 -0.0684,-0.54687 -0.14649,-1.23047 -0.0781,-0.68359 -0.1709,-1.51367 -0.27832,-2.49023 -0.10742,-0.97656 -0.22949,-2.0459 -0.36621,-3.20801 -0.13672,-1.1621 -0.26855,-2.30468 -0.3955,-3.42774 -0.12696,-1.12303 -0.24415,-2.15819 -0.35157,-3.10547 -0.10742,-0.94725 -0.19043,-1.70408 -0.24902,-2.2705 z" />
      <path
         inkscape:connector-curvature="0"
         id="path3010"
         style="font-size:30px;fill:#e6e6e6;font-family:Architects Daughter;-inkscape-font-specification:Architects Daughter"
         d="m 166.28349,433.16891 c -1e-5,-0.44919 0.12695,-0.77146 0.38085,-0.96679 0.25391,-0.19529 0.55664,-0.3076 0.90821,-0.33692 0.0781,-0.01 0.16113,-0.0146 0.24902,-0.0146 l 0.80567,0.11718 c 0.35155,0.0977 0.60546,0.21487 0.76171,0.35157 0.0781,0.27346 0.11719,0.5176 0.11719,0.73242 0,0.28322 -0.0684,0.50783 -0.20508,0.67383 -0.23438,0.29299 -0.54199,0.45412 -0.92285,0.48339 -0.0488,2e-5 -0.0977,2e-5 -0.14648,0 -0.33204,2e-5 -0.67872,-0.083 -1.04004,-0.24902 -0.41016,-0.19529 -0.71289,-0.45896 -0.9082,-0.79102 z m 1.08398,21.32813 0,-16.34766 2.31445,0 c 0.17578,2.40236 0.33203,4.95607 0.46875,7.66114 0.13672,2.70508 0.2539,5.43457 0.35157,8.18847 -0.0977,0.39063 -0.29786,0.67383 -0.60059,0.84961 -0.30274,0.17578 -0.62989,0.26856 -0.98145,0.27832 -0.0293,0 -0.0586,0 -0.0879,0 -0.32227,0 -0.62012,-0.0537 -0.89355,-0.16113 -0.30274,-0.11719 -0.49317,-0.27344 -0.57129,-0.46875 z" />
      <path
         inkscape:connector-curvature="0"
         id="path3012"
         style="font-size:30px;fill:#e6e6e6;font-family:Architects Daughter;-inkscape-font-specification:Architects Daughter"
         d="m 173.34403,439.8779 c 0.0781,-0.0781 0.22461,-0.166 0.43946,-0.26367 0.21484,-0.0976 0.43945,-0.14159 0.67382,-0.13184 0.23437,0.01 0.45898,0.10256 0.67383,0.27832 0.21484,0.1758 0.37109,0.47853 0.46875,0.9082 2.79296,-0.93748 5.18554,-1.47947 7.17774,-1.62597 0.51756,-0.039 1.00584,-0.0586 1.46484,-0.0586 1.33788,2e-5 2.47069,0.15627 3.39844,0.46875 1.24998,0.41994 2.14842,1.06447 2.69531,1.9336 0.46873,0.7422 0.7031,1.55763 0.70312,2.44629 -2e-5,0.15626 -0.01,0.31739 -0.0293,0.4834 -0.0977,1.08399 -0.50295,2.22168 -1.21582,3.41308 -0.71291,1.19141 -1.709,2.31446 -2.98828,3.36914 -1.27931,1.05469 -2.82228,1.98731 -4.62891,2.79785 -1.80665,0.81055 -3.84278,1.38184 -6.1084,1.71387 0,0.27344 0.005,0.70313 0.0147,1.28906 0.01,0.58594 0.0244,1.25 0.0439,1.99219 0.0195,0.74218 0.0342,1.52343 0.0439,2.34375 0.01,0.82031 0.0244,1.60644 0.0439,2.3584 0.0195,0.75194 0.0439,1.43065 0.0732,2.03613 0.0293,0.60546 0.0635,1.05468 0.10254,1.34766 0.0195,0.17577 0.0293,0.34667 0.0293,0.51269 0,0.63476 -0.18555,1.10351 -0.55664,1.40625 -0.37109,0.30272 -0.85449,0.45409 -1.45019,0.45411 -0.15625,-2e-5 -0.31739,-0.01 -0.4834,-0.0293 z m 2.43164,13.27148 c 2.71484,-0.60546 4.9414,-1.31835 6.67969,-2.13867 1.73827,-0.82031 3.07128,-1.66991 3.99902,-2.54883 0.92772,-0.87889 1.49901,-1.74803 1.71387,-2.60742 0.0879,-0.34179 0.13182,-0.66405 0.13184,-0.9668 -2e-5,-0.4785 -0.10256,-0.92284 -0.30762,-1.333 -0.33205,-0.67382 -0.89845,-1.21581 -1.69922,-1.62598 -0.80079,-0.41014 -1.73829,-0.61522 -2.8125,-0.61523 -0.76173,1e-5 -1.60157,0.0879 -2.51953,0.26367 -0.91798,0.17579 -1.77247,0.47364 -2.56348,0.89355 -0.79102,0.41994 -1.44043,0.98634 -1.94824,1.69922 -0.45899,0.63478 -0.68848,1.41114 -0.68848,2.3291 0,0.10743 0.005,0.21486 0.0146,0.32227 z" />
      <path
         inkscape:connector-curvature="0"
         id="path3014"
         style="font-size:30px;fill:#e6e6e6;font-family:Architects Daughter;-inkscape-font-specification:Architects Daughter"
         d="m 192.53349,441.07907 5.47851,0 0,-9.46289 c 0.0781,-0.23435 0.21972,-0.44919 0.42481,-0.64453 0.20507,-0.19529 0.42479,-0.34177 0.65918,-0.43945 0.13671,-0.0586 0.27831,-0.0879 0.4248,-0.0879 0.0976,2e-5 0.20019,0.0147 0.30762,0.0439 0.2539,0.0684 0.46874,0.24905 0.64453,0.54199 0.1953,0.80081 0.33202,1.60647 0.41015,2.417 0.0781,0.81056 0.12695,1.62111 0.14649,2.43164 0.0195,0.81056 0.0342,1.62111 0.0439,2.43164 0.01,0.81056 0.0439,1.60646 0.10254,2.38769 0.37109,-0.0586 0.80077,-0.0928 1.28907,-0.10254 0.48827,-0.01 0.98143,-0.0195 1.47949,-0.0293 0.49803,-0.01 0.98631,-0.0195 1.46484,-0.0293 0.4785,-0.01 0.91307,-0.0342 1.30371,-0.0732 l -0.11718,2.63672 -5.33204,-0.14649 c -0.01,0.60548 -0.0146,1.18654 -0.0146,1.74317 -1e-5,0.55665 0.005,1.09375 0.0146,1.61132 0.0195,1.0254 0.0439,2.02638 0.0733,3.00293 0.0293,0.97657 0.0537,1.97266 0.0732,2.98828 0.0195,1.01563 0.0293,2.11915 0.0293,3.31055 -0.43947,0.19531 -0.82521,0.29297 -1.15723,0.29297 -0.26368,0 -0.48829,-0.0635 -0.67383,-0.19043 -0.41993,-0.2832 -0.71778,-0.75684 -0.89355,-1.4209 -0.17579,-0.66406 -0.26368,-1.47461 -0.26368,-2.43164 0,-0.95703 0.0147,-1.93847 0.0439,-2.94433 0.0293,-1.00586 0.0439,-1.97754 0.0439,-2.91504 0,-0.93749 -0.0879,-1.73827 -0.26367,-2.40235 l -5.68359,0 z" />
      <path
         inkscape:connector-curvature="0"
         id="path3016"
         style="font-size:30px;fill:#e6e6e6;font-family:Architects Daughter;-inkscape-font-specification:Architects Daughter"
         d="m 223.11942,435.01462 c 0,-0.25389 0.0928,-0.46873 0.27832,-0.64453 0.18555,-0.17576 0.41016,-0.29783 0.67383,-0.36621 0.26367,-0.0683 0.53223,-0.0976 0.80567,-0.0879 0.27343,0.01 0.5078,0.0635 0.70312,0.16113 l 7.03125,8.49609 8.73047,-10.3418 2.13867,1.72852 -8.78906,10.42969 c 0.56639,0.76173 1.18163,1.44044 1.8457,2.03613 0.66405,0.59571 1.33299,1.14747 2.00684,1.65527 0.67381,0.50782 1.3281,0.98634 1.96289,1.43555 0.63474,0.44923 1.19138,0.90821 1.66992,1.37695 0.4785,0.46876 0.86424,0.96192 1.15723,1.4795 0.29294,0.51758 0.43943,1.08887 0.43945,1.71386 -0.0781,0.56641 -0.33205,0.94727 -0.76172,1.14258 -0.11721,0.0586 -0.24416,0.0879 -0.38086,0.0879 -0.36135,0 -0.78127,-0.18554 -1.25976,-0.55664 l -8.32032,-7.64648 c -0.62501,0.52735 -1.22071,1.22071 -1.78711,2.08008 -0.56641,0.85938 -1.1377,1.70898 -1.71386,2.54882 -0.57618,0.83985 -1.17677,1.56251 -1.80176,2.16797 -0.62501,0.60547 -1.31836,0.90821 -2.08008,0.90821 -0.74219,0 -1.2793,-0.11719 -1.61133,-0.35157 -0.24414,-0.17578 -0.36621,-0.50293 -0.36621,-0.98144 0,-0.16602 0.0147,-0.35645 0.0439,-0.57129 l 6.94336,-8.23242 c -1.25001,-1.56249 -2.30958,-2.89061 -3.17871,-3.98438 -0.86915,-1.09373 -1.58204,-1.99705 -2.13868,-2.70996 -0.55664,-0.71287 -0.98633,-1.26463 -1.28906,-1.65527 -0.30273,-0.39061 -0.52734,-0.68358 -0.67383,-0.87891 -0.14648,-0.19529 -0.22949,-0.31248 -0.24902,-0.35156 -0.0195,-0.039 -0.0293,-0.0683 -0.0293,-0.0879 z" />
      <path
         inkscape:connector-curvature="0"
         id="path3018"
         style="font-size:30px;fill:#e6e6e6;font-family:Architects Daughter;-inkscape-font-specification:Architects Daughter"
         d="m 245.64872,452.91501 c 0.0977,-0.76172 0.21484,-1.74316 0.35156,-2.94434 0.13672,-1.20116 0.29297,-2.49022 0.46875,-3.86718 0.17578,-1.37695 0.35156,-2.77343 0.52735,-4.18946 0.17577,-1.416 0.34179,-2.71483 0.49804,-3.89648 0.15625,-1.18162 0.2832,-2.18748 0.38086,-3.01758 0.0977,-0.83006 0.16601,-1.35252 0.20508,-1.56738 0.0781,-0.54686 0.16601,-1.01561 0.26367,-1.40625 0.0976,-0.3906 0.24414,-0.71287 0.43946,-0.9668 0.1953,-0.25388 0.45898,-0.43455 0.79101,-0.54199 0.33203,-0.1074 0.77148,-0.16111 1.31836,-0.16114 0.74218,0.37112 1.43066,0.94729 2.06543,1.72852 0.63476,0.78127 1.22558,1.66506 1.77246,2.65137 0.54687,0.98635 1.06444,2.0215 1.55274,3.10547 0.48826,1.084 0.95213,2.10939 1.3916,3.07617 0.43944,0.96681 0.86912,1.81642 1.28906,2.54883 0.41991,0.73243 0.83495,1.24512 1.24512,1.53808 l 7.32422,-12.74414 c 0.50778,-0.37107 0.97165,-0.55662 1.3916,-0.55664 0.12693,2e-5 0.24411,0.0147 0.35156,0.0439 0.49802,0.1465 0.93259,0.53225 1.30371,1.15722 0.37107,0.62502 0.69333,1.44534 0.9668,2.46094 0.27341,1.01564 0.51755,2.12892 0.73242,3.33984 0.21482,1.21096 0.40036,2.48537 0.55664,3.82325 0.15622,1.3379 0.30759,2.64161 0.4541,3.91113 0.14646,1.26954 0.29782,2.46583 0.4541,3.58887 0.15622,1.12305 0.332,2.08496 0.52735,2.88574 0.0488,0.2832 0.0732,0.53711 0.0732,0.76172 -3e-5,0.43945 -0.0879,0.78613 -0.26367,1.04004 -0.2637,0.38086 -0.59085,0.57129 -0.98145,0.57129 -0.39065,0 -0.78128,-0.15625 -1.17187,-0.46875 -0.39066,-0.3125 -0.64456,-0.74219 -0.76172,-1.28907 -0.0391,-0.35156 -0.10257,-0.89355 -0.19043,-1.62597 -0.0879,-0.73242 -0.19046,-1.55762 -0.30762,-2.47559 -0.11721,-0.91796 -0.23928,-1.88476 -0.36621,-2.90039 -0.12698,-1.01562 -0.25393,-1.98241 -0.38086,-2.90039 -0.12698,-0.91796 -0.23928,-1.74315 -0.33691,-2.47559 -0.0977,-0.7324 -0.16604,-1.2744 -0.20508,-1.62597 -3e-5,-0.5078 -0.0147,-0.96678 -0.0439,-1.37696 -0.0293,-0.41014 -0.12697,-0.65916 -0.29297,-0.74707 -0.16604,-0.0879 -0.42482,0.0342 -0.77636,0.36621 -0.35159,0.33205 -0.84475,0.98635 -1.47949,1.96289 -0.63479,0.97658 -1.43557,2.334 -2.40235,4.07227 -0.96681,1.73829 -2.14357,3.96485 -3.53027,6.67969 -0.13674,0.27344 -0.32717,0.4541 -0.57129,0.54199 -0.24416,0.0879 -0.50783,0.0488 -0.79102,-0.11719 -0.28321,-0.16601 -0.57618,-0.47851 -0.8789,-0.9375 -0.30275,-0.45898 -0.57131,-1.09862 -0.80567,-1.91894 l -6.73828,-14.32617 c -0.15625,0.29299 -0.30274,0.76174 -0.43945,1.40625 -0.13673,0.64455 -0.26368,1.38185 -0.38086,2.21191 -0.11719,0.83009 -0.22462,1.71877 -0.32227,2.66602 -0.0977,0.94728 -0.18555,1.87501 -0.26367,2.7832 -0.0781,0.90821 -0.14649,1.76759 -0.20508,2.57812 -0.0586,0.81056 -0.10742,1.49904 -0.14648,2.06543 -0.0879,0.56642 -0.13184,1.12306 -0.13184,1.66992 0,0.0586 0,0.11232 0,0.16114 0.01,0.59571 0.0293,1.15235 0.0586,1.66992 0.0293,0.51758 0.0439,0.99121 0.0439,1.4209 0,0.42969 -0.0732,0.78613 -0.21972,1.06933 -0.14649,0.28321 -0.39063,0.49317 -0.73243,0.62989 -0.23437,0.0976 -0.54687,0.14648 -0.9375,0.14648 -0.16601,0 -0.34668,-0.01 -0.54199,-0.0293 -0.41016,1e-5 -0.72266,-0.10253 -0.9375,-0.30761 -0.18555,-0.17578 -0.27832,-0.42969 -0.27832,-0.76172 0,-0.0586 0.005,-0.12207 0.0146,-0.19043 z" />
      <path
         inkscape:connector-curvature="0"
         id="path3020"
         style="font-size:30px;fill:#e6e6e6;font-family:Architects Daughter;-inkscape-font-specification:Architects Daughter"
         d="m 277.06962,451.1572 c 0,-0.45898 0,-0.92773 0,-1.40625 0,-0.94726 0.005,-1.92382 0.0147,-2.92969 0.13671,-1.83593 0.23437,-3.4619 0.29297,-4.87793 0.0586,-1.416 0.19042,-2.64159 0.3955,-3.67676 0.20508,-1.03514 0.52734,-1.89939 0.9668,-2.59277 0.43945,-0.69334 1.09375,-1.24998 1.96289,-1.66992 0.86914,-0.4199 2.00683,-0.71776 3.41309,-0.89356 1.40624,-0.17576 3.18358,-0.26365 5.33203,-0.26367 0.29295,2e-5 0.73241,0.0195 1.31836,0.0586 0.58592,0.0391 1.23045,0.11721 1.93359,0.23438 0.70311,0.11721 1.42576,0.27346 2.16797,0.46875 0.74217,0.19533 1.42088,0.44924 2.03613,0.76172 0.61522,0.31252 1.11814,0.69338 1.50879,1.14257 0.3906,0.44924 0.58592,0.97659 0.58594,1.58204 -2e-5,1.32814 -0.3467,2.48536 -1.04004,3.47168 -0.69338,0.98634 -1.5967,1.84083 -2.70996,2.56347 -1.1133,0.72267 -2.3633,1.31837 -3.75,1.78711 -1.38673,0.46876 -2.77833,0.83986 -4.17481,1.11328 -1.39649,0.27345 -2.72461,0.46388 -3.98437,0.57129 -1.25977,0.10743 -2.31934,0.16114 -3.17871,0.16113 l -0.17578,8.20313 c -1e-5,0.17578 -0.12696,0.29297 -0.38086,0.35156 -0.25391,0.0586 -0.55176,0.0879 -0.89356,0.0879 -0.3418,0 -0.66894,-0.0147 -0.98144,-0.0439 -0.3125,-0.0293 -0.52735,-0.0342 -0.64453,-0.0147 0,-1.40625 -0.005,-2.80273 -0.0147,-4.18945 z m 3.01758,-8.74512 c -0.01,0.0879 -0.0147,0.17091 -0.0147,0.24902 -10e-6,0.32228 0.0488,0.61037 0.14648,0.86426 0.11719,0.32228 0.32715,0.5713 0.62989,0.74707 0.20507,0.1172 0.47851,0.17579 0.82031,0.17578 0.14648,10e-6 0.30761,-0.01 0.4834,-0.0293 0.5664,2e-5 1.30858,-0.0342 2.22656,-0.10253 0.91796,-0.0683 1.88964,-0.18554 2.91504,-0.35157 1.02538,-0.166 2.05565,-0.40038 3.09082,-0.70312 1.03514,-0.30272 1.96775,-0.68358 2.79785,-1.14258 0.83006,-0.45897 1.50877,-1.00585 2.03613,-1.64062 0.52733,-0.63476 0.791,-1.38182 0.79102,-2.24122 -0.13674,-0.62498 -0.45412,-1.1572 -0.95215,-1.59668 -0.49807,-0.43943 -1.1133,-0.78611 -1.8457,-1.04003 -0.73244,-0.25389 -1.53811,-0.42479 -2.417,-0.5127 -0.52735,-0.0488 -1.05958,-0.0732 -1.59668,-0.0732 -0.36134,2e-5 -0.72266,0.01 -1.08398,0.0293 -0.90821,0.0586 -1.792,0.18557 -2.65137,0.38086 -0.85938,0.19534 -1.63086,0.45413 -2.31445,0.77637 -0.6836,0.32229 -1.24024,0.70314 -1.66992,1.14258 -0.42969,0.43947 -0.67384,0.92287 -0.73242,1.45019 -0.0391,0.29299 -0.10743,0.64455 -0.20508,1.05469 -0.0977,0.41017 -0.19044,0.83498 -0.27832,1.27442 -0.0879,0.43946 -0.14649,0.86915 -0.17578,1.28906 z" />
      <path
         inkscape:connector-curvature="0"
         id="path3022"
         style="font-size:30px;fill:#e6e6e6;font-family:Architects Daughter;-inkscape-font-specification:Architects Daughter"
         d="m 300.97587,451.1572 c 0,-0.45898 0,-0.92773 0,-1.40625 0,-0.94726 0.005,-1.92382 0.0147,-2.92969 0.13671,-1.83593 0.23437,-3.4619 0.29297,-4.87793 0.0586,-1.416 0.19042,-2.64159 0.3955,-3.67676 0.20508,-1.03514 0.52734,-1.89939 0.9668,-2.59277 0.43945,-0.69334 1.09375,-1.24998 1.96289,-1.66992 0.86914,-0.4199 2.00683,-0.71776 3.41309,-0.89356 1.40624,-0.17576 3.18358,-0.26365 5.33203,-0.26367 0.29295,2e-5 0.73241,0.0195 1.31836,0.0586 0.58592,0.0391 1.23045,0.11721 1.93359,0.23438 0.70311,0.11721 1.42576,0.27346 2.16797,0.46875 0.74217,0.19533 1.42088,0.44924 2.03613,0.76172 0.61522,0.31252 1.11814,0.69338 1.50879,1.14257 0.3906,0.44924 0.58592,0.97659 0.58594,1.58204 -2e-5,1.32814 -0.3467,2.48536 -1.04004,3.47168 -0.69338,0.98634 -1.5967,1.84083 -2.70996,2.56347 -1.1133,0.72267 -2.3633,1.31837 -3.75,1.78711 -1.38673,0.46876 -2.77833,0.83986 -4.17481,1.11328 -1.39649,0.27345 -2.72461,0.46388 -3.98437,0.57129 -1.25977,0.10743 -2.31934,0.16114 -3.17871,0.16113 l -0.17578,8.20313 c -1e-5,0.17578 -0.12696,0.29297 -0.38086,0.35156 -0.25391,0.0586 -0.55176,0.0879 -0.89356,0.0879 -0.3418,0 -0.66894,-0.0147 -0.98144,-0.0439 -0.3125,-0.0293 -0.52735,-0.0342 -0.64453,-0.0147 0,-1.40625 -0.005,-2.80273 -0.0147,-4.18945 z m 3.01758,-8.74512 c -0.01,0.0879 -0.0147,0.17091 -0.0147,0.24902 -10e-6,0.32228 0.0488,0.61037 0.14648,0.86426 0.11719,0.32228 0.32715,0.5713 0.62989,0.74707 0.20507,0.1172 0.47851,0.17579 0.82031,0.17578 0.14648,10e-6 0.30761,-0.01 0.4834,-0.0293 0.5664,2e-5 1.30858,-0.0342 2.22656,-0.10253 0.91796,-0.0683 1.88964,-0.18554 2.91504,-0.35157 1.02538,-0.166 2.05565,-0.40038 3.09082,-0.70312 1.03514,-0.30272 1.96775,-0.68358 2.79785,-1.14258 0.83006,-0.45897 1.50877,-1.00585 2.03613,-1.64062 0.52733,-0.63476 0.791,-1.38182 0.79102,-2.24122 -0.13674,-0.62498 -0.45412,-1.1572 -0.95215,-1.59668 -0.49807,-0.43943 -1.1133,-0.78611 -1.8457,-1.04003 -0.73244,-0.25389 -1.53811,-0.42479 -2.417,-0.5127 -0.52735,-0.0488 -1.05958,-0.0732 -1.59668,-0.0732 -0.36134,2e-5 -0.72266,0.01 -1.08398,0.0293 -0.90821,0.0586 -1.792,0.18557 -2.65137,0.38086 -0.85938,0.19534 -1.63086,0.45413 -2.31445,0.77637 -0.6836,0.32229 -1.24024,0.70314 -1.66992,1.14258 -0.42969,0.43947 -0.67384,0.92287 -0.73242,1.45019 -0.0391,0.29299 -0.10743,0.64455 -0.20508,1.05469 -0.0977,0.41017 -0.19044,0.83498 -0.27832,1.27442 -0.0879,0.43946 -0.14649,0.86915 -0.17578,1.28906 z" />
      <path
         inkscape:connector-curvature="0"
         id="path3024"
         style="font-size:30px;fill:#e6e6e6;font-family:Architects Daughter;-inkscape-font-specification:Architects Daughter"
         d="m 339.28153,446.20602 c 0,-2.0117 0.36133,-3.93553 1.08399,-5.77148 0.72265,-1.83592 1.71386,-3.45213 2.97363,-4.84863 1.25976,-1.39647 2.74413,-2.50975 4.45312,-3.33985 1.70898,-0.83005 3.55956,-1.24509 5.55176,-1.24511 0.80077,2e-5 1.46971,0.044 2.00684,0.13183 0.53709,0.0879 0.97166,0.27346 1.30371,0.55664 0.33201,0.28323 0.57127,0.6885 0.71777,1.21582 0.14647,0.52737 0.21971,1.23049 0.21973,2.10938 -1.13283,-1.13279 -2.31935,-1.8408 -3.55957,-2.12403 -0.56642,-0.12693 -1.12306,-0.1904 -1.66992,-0.19043 -0.66408,3e-5 -1.31837,0.0928 -1.96289,0.27833 -1.18166,0.34181 -2.29494,0.94728 -3.33985,1.8164 -1.04493,0.86916 -1.94336,1.88479 -2.69531,3.04688 -0.75196,1.16212 -1.31836,2.42189 -1.69922,3.77929 -0.28321,0.99611 -0.42481,1.98244 -0.4248,2.95899 -1e-5,0.35157 0.0195,0.69825 0.0586,1.04004 0,1.23047 0.21972,2.30957 0.65918,3.2373 0.43945,0.92774 1.03515,1.69434 1.78711,2.29981 0.75195,0.60547 1.63573,1.05957 2.65137,1.3623 1.01561,0.30274 2.0996,0.4541 3.25195,0.4541 1.4453,-0.11718 2.71483,-0.36132 3.80859,-0.73242 1.09374,-0.37109 2.09471,-0.82031 3.00293,-1.34766 0.90819,-0.52733 1.77733,-1.09862 2.60743,-1.71386 0.83005,-0.61523 1.70407,-1.21582 2.62207,-1.80176 0.17575,10e-6 0.35642,0.01 0.54199,0.0293 0.18552,0.0195 0.35642,0.0586 0.51269,0.11718 0.15623,0.0586 0.28318,0.15138 0.38086,0.27832 0.0976,0.12696 0.14646,0.30763 0.14649,0.542 -0.97659,0.85938 -2.03128,1.71875 -3.16407,2.57812 -1.13283,0.85938 -2.32912,1.62598 -3.58886,2.29981 -1.25979,0.67383 -2.57814,1.21093 -3.95508,1.61132 -1.25001,0.36133 -2.53419,0.542 -3.85254,0.542 -0.12696,0 -0.25392,0 -0.38086,0 -1.28907,0 -2.53907,-0.21973 -3.75,-0.65918 -1.21094,-0.43946 -2.28516,-1.06446 -3.22266,-1.875 -0.9375,-0.81055 -1.68457,-1.77734 -2.24121,-2.90039 -0.55664,-1.12304 -0.83496,-2.36816 -0.83496,-3.73536 z" />
      <path
         inkscape:connector-curvature="0"
         id="path3026"
         style="font-size:30px;fill:#e6e6e6;font-family:Architects Daughter;-inkscape-font-specification:Architects Daughter"
         d="m 365.8538,431.61618 c 0.21484,-0.29294 0.4248,-0.57126 0.62988,-0.83496 0.20508,-0.26365 0.50293,-0.39548 0.89356,-0.39551 0.2539,3e-5 0.48827,0.30276 0.70312,0.9082 0.21484,0.6055 0.40039,1.41116 0.55664,2.417 0.15625,1.00588 0.29297,2.15334 0.41016,3.44238 0.11718,1.28908 0.21484,2.62697 0.29297,4.01367 0.0781,1.38673 0.14159,2.76857 0.19043,4.14551 0.0488,1.37696 0.0879,2.63673 0.11718,3.7793 0.0293,1.14258 0.0488,2.12402 0.0586,2.94433 0.01,0.82032 0.0146,1.37696 0.0146,1.66992 -10e-6,0.35157 -0.0732,0.63477 -0.21973,0.84961 -0.14649,0.21485 -0.33204,0.38575 -0.55664,0.5127 -0.22461,0.12695 -0.47852,0.20996 -0.76172,0.24902 -0.28321,0.0391 -0.55176,0.0586 -0.80566,0.0586 -0.0391,0 -0.0928,-0.005 -0.16114,-0.0146 -0.0684,-0.01 -0.1123,-0.0147 -0.13183,-0.0147 -1e-5,-0.50781 -0.0147,-1.28418 -0.0439,-2.3291 -0.0293,-1.04492 -0.0635,-2.22656 -0.10254,-3.54492 -0.0391,-1.31836 -0.0781,-2.70507 -0.11719,-4.16016 -0.0391,-1.45507 -0.083,-2.84178 -0.13183,-4.16016 -0.0488,-1.31834 -0.0977,-2.49998 -0.14649,-3.54492 -0.0488,-1.0449 -0.083,-1.82127 -0.10253,-2.3291 -10e-6,-0.1367 -0.0244,-0.38084 -0.0732,-0.73242 -0.0488,-0.35154 -0.10254,-0.72264 -0.16113,-1.11328 -0.0586,-0.39061 -0.12207,-0.75682 -0.19043,-1.09864 -0.0684,-0.34177 -0.12207,-0.58103 -0.16113,-0.71777 z" />
      <path
         inkscape:connector-curvature="0"
         id="path3028"
         style="font-size:30px;fill:#e6e6e6;font-family:Architects Daughter;-inkscape-font-specification:Architects Daughter"
         d="m 371.65458,433.16891 c 0,-0.44919 0.12695,-0.77146 0.38086,-0.96679 0.2539,-0.19529 0.55664,-0.3076 0.9082,-0.33692 0.0781,-0.01 0.16113,-0.0146 0.24903,-0.0146 l 0.80566,0.11718 c 0.35156,0.0977 0.60546,0.21487 0.76172,0.35157 0.0781,0.27346 0.11718,0.5176 0.11719,0.73242 -10e-6,0.28322 -0.0684,0.50783 -0.20508,0.67383 -0.23438,0.29299 -0.542,0.45412 -0.92285,0.48339 -0.0488,2e-5 -0.0977,2e-5 -0.14649,0 -0.33203,2e-5 -0.67871,-0.083 -1.04004,-0.24902 -0.41016,-0.19529 -0.71289,-0.45896 -0.9082,-0.79102 z m 1.08398,21.32813 0,-16.34766 2.31446,0 c 0.17577,2.40236 0.33202,4.95607 0.46875,7.66114 0.13671,2.70508 0.2539,5.43457 0.35156,8.18847 -0.0977,0.39063 -0.29786,0.67383 -0.60059,0.84961 -0.30274,0.17578 -0.62988,0.26856 -0.98144,0.27832 -0.0293,0 -0.0586,0 -0.0879,0 -0.32227,0 -0.62012,-0.0537 -0.89356,-0.16113 -0.30273,-0.11719 -0.49316,-0.27344 -0.57129,-0.46875 z" />
      <path
         inkscape:connector-curvature="0"
         id="path3030"
         style="font-size:30px;fill:#e6e6e6;font-family:Architects Daughter;-inkscape-font-specification:Architects Daughter"
         d="m 377.25028,450.54196 c -0.0488,-0.42968 -0.0732,-0.8496 -0.0732,-1.25976 0,-1.14257 0.17578,-2.26562 0.52734,-3.36914 0.47852,-1.5039 1.20117,-2.83202 2.16797,-3.98438 0.9668,-1.15233 2.13379,-2.06541 3.50098,-2.73926 1.28905,-0.63475 2.6953,-0.95213 4.21875,-0.95215 0.0879,2e-5 0.17577,2e-5 0.26367,0 0.27343,2e-5 0.63964,0.0391 1.09863,0.11719 0.45898,0.0781 0.94726,0.20021 1.46485,0.36621 0.51756,0.16603 1.02537,0.376 1.52344,0.62989 0.49803,0.25392 0.93748,0.55665 1.31835,0.9082 0.38085,0.35158 0.66893,0.74708 0.86426,1.18652 0.12694,0.29298 0.19041,0.61037 0.19043,0.95215 -2e-5,0.16603 -0.0147,0.34181 -0.0439,0.52734 -0.8008,0.56642 -1.72365,0.95705 -2.76856,1.17188 -1.04493,0.21485 -2.10939,0.36622 -3.19336,0.4541 -1.08399,0.0879 -2.14356,0.16603 -3.17871,0.23438 -1.03516,0.0684 -1.93848,0.24903 -2.70996,0.54199 -0.77149,0.29298 -1.36719,0.75684 -1.78711,1.3916 -0.30274,0.45899 -0.45899,1.06934 -0.46875,1.83105 0,0.28321 0.0244,0.58595 0.0732,0.90821 0.29297,1.07422 0.77637,1.86524 1.4502,2.37304 0.67382,0.50782 1.45507,0.81544 2.34375,0.92286 0.30273,0.0391 0.61523,0.0537 0.9375,0.0439 0.60546,0 1.24022,-0.0635 1.9043,-0.19043 1.00584,-0.20507 1.99217,-0.47363 2.95898,-0.80566 0.96678,-0.33203 1.8701,-0.68359 2.70996,-1.05469 0.83983,-0.37109 1.53319,-0.67382 2.08008,-0.9082 0.25389,0 0.46873,0.0928 0.64453,0.27832 0.17576,0.18555 0.26365,0.40528 0.26367,0.65918 -0.4883,0.83984 -1.23048,1.5918 -2.22656,2.25586 -0.99611,0.66406 -2.11916,1.20117 -3.36914,1.61132 -1.25001,0.41016 -2.55372,0.66407 -3.91113,0.76172 -0.34181,0.0195 -0.67384,0.0293 -0.9961,0.0293 -0.98633,0 -1.92871,-0.10742 -2.82715,-0.32227 -1.19141,-0.29296 -2.23633,-0.81054 -3.13476,-1.55273 -0.89844,-0.74219 -1.50391,-1.74804 -1.81641,-3.01758 z m 5.85938,-7.61719 7.26562,-1.20117 c -0.31251,-0.46873 -0.71778,-0.80076 -1.21582,-0.99609 -0.49806,-0.1953 -1.02052,-0.29296 -1.56738,-0.29297 -0.35157,10e-6 -0.78126,0.0391 -1.28906,0.11719 -0.50783,0.0781 -0.99611,0.21486 -1.46485,0.41015 -0.46875,0.19533 -0.87403,0.44924 -1.21582,0.76172 -0.3418,0.31252 -0.5127,0.71291 -0.51269,1.20117 z" />
      <path
         inkscape:connector-curvature="0"
         id="path3032"
         style="font-size:30px;fill:#e6e6e6;font-family:Architects Daughter;-inkscape-font-specification:Architects Daughter"
         d="m 397.94852,448.91599 c 0,-0.3125 0,-0.62988 0,-0.95215 0,-0.63476 0.005,-1.27441 0.0147,-1.91895 0.0195,-0.96679 0.0488,-1.91405 0.0879,-2.8418 0.0391,-0.92772 0.083,-1.77244 0.13184,-2.53418 0.0488,-0.7617 0.0976,-1.40135 0.14648,-1.91894 0.0488,-0.51756 0.10254,-0.86424 0.16114,-1.04004 0.21484,-0.15623 0.45898,-0.30272 0.73242,-0.43945 0.27343,-0.1367 0.54687,-0.20506 0.82031,-0.20508 0.35156,0.0195 0.59082,0.24904 0.71777,0.68848 0.12695,0.43947 0.19043,0.93751 0.19043,1.49414 0,0.55665 -0.0342,1.09864 -0.10253,1.62597 -0.0684,0.52736 -0.10255,0.88869 -0.10254,1.08399 2.03124,-1.50389 3.77929,-2.59764 5.24414,-3.28125 1.46483,-0.68358 2.70018,-1.04491 3.70605,-1.08399 0.0684,2e-5 0.14159,2e-5 0.21973,0 0.90819,2e-5 1.64061,0.2344 2.19726,0.70313 0.60546,0.50783 1.07421,1.21095 1.40625,2.10937 0.33202,0.89845 0.55174,1.94826 0.65918,3.14942 0.10741,1.20118 0.17088,2.46583 0.19043,3.79394 0.01,0.66407 0.0146,1.33302 0.0147,2.00684 -2e-5,0.67383 -0.005,1.35742 -0.0147,2.05078 -1e-5,0.3418 -1e-5,0.6836 0,1.02539 -1e-5,1.00586 0.0195,1.97754 0.0586,2.91504 -0.2344,0.11719 -0.39553,0.18555 -0.4834,0.20508 -0.0391,0.01 -0.0781,0.0146 -0.11719,0.0146 -0.0586,0 -0.1172,-0.01 -0.17578,-0.0293 -0.10744,-0.0293 -0.24904,-0.0635 -0.42481,-0.10254 -0.17579,-0.0391 -0.44923,-0.0684 -0.82031,-0.0879 -0.23439,-0.95703 -0.36622,-2.05078 -0.39551,-3.28125 -0.0195,-0.74218 -0.0293,-1.48925 -0.0293,-2.24121 -2e-5,-0.50781 0.005,-1.0205 0.0146,-1.53809 0.01,-0.42968 0.0146,-0.85936 0.0146,-1.28906 -1e-5,-0.85937 -0.0147,-1.70897 -0.0439,-2.54883 -0.0391,-1.26952 -0.18556,-2.44139 -0.43945,-3.51562 0.1367,-0.31249 -0.01,-0.49315 -0.43946,-0.542 -0.1172,-0.01 -0.23927,-0.0146 -0.36621,-0.0146 -0.38087,1e-5 -0.84474,0.0488 -1.3916,0.14648 -0.7422,0.13673 -1.57228,0.35158 -2.49023,0.64453 -0.91798,0.29298 -1.792,0.63966 -2.62207,1.04004 -0.83009,0.4004 -1.55274,0.84474 -2.16797,1.33301 -0.61524,0.48829 -0.99122,0.97657 -1.12793,1.46484 l -0.0293,9.96094 -2.43164,0 c -0.11719,-0.27344 -0.20996,-0.70801 -0.27832,-1.30371 -0.0684,-0.5957 -0.12207,-1.29883 -0.16113,-2.10938 -0.0391,-0.81054 -0.0635,-1.68944 -0.0733,-2.63671 z" />
      <path
         inkscape:connector-curvature="0"
         id="path3034"
         style="font-size:30px;fill:#e6e6e6;font-family:Architects Daughter;-inkscape-font-specification:Architects Daughter"
         d="m 416.06864,441.07907 5.47852,0 0,-9.46289 c 0.0781,-0.23435 0.21972,-0.44919 0.4248,-0.64453 0.20507,-0.19529 0.4248,-0.34177 0.65918,-0.43945 0.13671,-0.0586 0.27831,-0.0879 0.42481,-0.0879 0.0976,2e-5 0.20018,0.0147 0.30761,0.0439 0.2539,0.0684 0.46875,0.24905 0.64453,0.54199 0.19531,0.80081 0.33203,1.60647 0.41016,2.417 0.0781,0.81056 0.12695,1.62111 0.14649,2.43164 0.0195,0.81056 0.0342,1.62111 0.0439,2.43164 0.01,0.81056 0.0439,1.60646 0.10254,2.38769 0.37108,-0.0586 0.80077,-0.0928 1.28906,-0.10254 0.48827,-0.01 0.98144,-0.0195 1.47949,-0.0293 0.49804,-0.01 0.98632,-0.0195 1.46485,-0.0293 0.4785,-0.01 0.91307,-0.0342 1.30371,-0.0732 l -0.11719,2.63672 -5.33203,-0.14649 c -0.01,0.60548 -0.0147,1.18654 -0.0146,1.74317 -10e-6,0.55665 0.005,1.09375 0.0146,1.61132 0.0195,1.0254 0.0439,2.02638 0.0732,3.00293 0.0293,0.97657 0.0537,1.97266 0.0732,2.98828 0.0195,1.01563 0.0293,2.11915 0.0293,3.31055 -0.43946,0.19531 -0.8252,0.29297 -1.15722,0.29297 -0.26368,0 -0.48829,-0.0635 -0.67383,-0.19043 -0.41993,-0.2832 -0.71778,-0.75684 -0.89356,-1.4209 -0.17579,-0.66406 -0.26368,-1.47461 -0.26367,-2.43164 -1e-5,-0.95703 0.0146,-1.93847 0.0439,-2.94433 0.0293,-1.00586 0.0439,-1.97754 0.0439,-2.91504 -1e-5,-0.93749 -0.0879,-1.73827 -0.26367,-2.40235 l -5.68359,0 z" />
    </g>
  </g>
</svg>
