<?xml version="1.0" encoding="UTF-8" standalone="no"?>
<svg
   xmlns:dc="http://purl.org/dc/elements/1.1/"
   xmlns:cc="http://creativecommons.org/ns#"
   xmlns:rdf="http://www.w3.org/1999/02/22-rdf-syntax-ns#"
   xmlns:svg="http://www.w3.org/2000/svg"
   xmlns="http://www.w3.org/2000/svg"
   viewBox="0 0 64 64"
   height="68.26667"
   width="68.26667"
   version="1.1"
   id="svg4136">
  <metadata
     id="metadata4142">
    <rdf:RDF>
      <cc:Work
         rdf:about="">
        <dc:format>image/svg+xml</dc:format>
        <dc:type
           rdf:resource="http://purl.org/dc/dcmitype/StillImage" />
        <dc:title></dc:title>
      </cc:Work>
    </rdf:RDF>
  </metadata>
  <defs
     id="defs4140" />
  <path
     d="M 0,64 H 63.995357 V 0.0046432 H 0 Z"
     style="fill:#317ccf;fill-opacity:1;fill-rule:nonzero;stroke:none;stroke-width:0.39997098"
     id="path14" />
  <path
     d="m 44.302665,41.062682 c 0.572149,1.616613 0.932369,2.631887 1.995518,4.554426 0.164053,0.152379 0.264471,0.467061 -2.084844,-0.627612 -1.274491,-0.592584 -3.065086,-1.550642 -4.930411,-2.435722 -5.037834,1.158894 -9.126952,1.045048 -13.076535,0.812101 -5.514821,-0.326358 -6.312911,-1.671494 -9.238463,-3.947831 -2.139722,-1.680836 -4.727824,-4.522317 -4.374608,-9.017193 0,-1.254059 0.278485,-2.832723 0.837206,-4.736581 -0.424442,-2.871256 -1.064899,-3.696786 -1.678499,-3.662925 -0.896174,0.05021 -1.731044,1.931881 -1.731044,1.931881 -0.2487106,4.031903 -0.6678974,6.549945 -0.2802366,10.337807 0.5172696,5.060605 3.2863556,6.766544 4.4855356,7.906756 1.197426,1.142548 5.357186,3.614468 9.779086,4.134656 3.963595,0.46531 10.860331,0.04554 15.234355,-0.855306 3.135731,0.779993 7.279728,3.158499 9.655898,4.26485 2.346982,1.092338 2.248899,0.779992 2.08426,0.629364 -1.593845,-2.882933 -1.545971,-3.553164 -3.135729,-7.637611 0.38299,-0.291914 0.766563,-0.634036 1.167652,-1.060229 2.392519,-2.53614 3.500621,-4.531657 2.805283,-4.71673 -0.649797,-0.186825 -1.30018,-0.277901 -1.949979,-0.277901 -1.605521,1.635296 -2.563579,3.509962 -5.564445,4.4038 z"
     style="fill:#ffffff;fill-opacity:1;fill-rule:nonzero;stroke:none;stroke-width:0.58382601"
     id="path46" />
  <path
     d="m 52.313926,30.193592 c -0.03153,0 -0.06131,0 -0.09342,0.0018 -2.89169,0.07357 -7.099324,0.698256 -9.881256,1.464235 -2.780178,0.766564 -4.135239,1.674414 -6.864625,2.312535 -2.729971,0.636371 -7.886322,0.638705 -10.609287,0.429113 -2.722965,-0.207843 -2.616124,-1.021695 -5.503145,-2.80762 -1.539548,-0.994255 -3.389109,1.753813 -1.810444,2.684432 3.237899,2.004274 6.43318,2.919131 9.536798,3.165505 3.104203,0.24579 6.116745,-0.178066 8.997343,-0.850634 2.880014,-0.673153 6.752533,-1.963991 9.448057,-2.704867 2.695525,-0.743794 4.219311,-0.937624 6.755451,-1.001261 1.794682,0.01576 1.819785,-2.675091 0.02452,-2.69319 z"
     style="fill:#ffffff;fill-opacity:1;fill-rule:evenodd;stroke:none;stroke-width:0.58382601"
     id="path48" />
  <path
     d="m 53.306429,22.377914 c -1.421032,0.03386 -3.208707,0.189159 -4.584202,0.460639 -1.372575,0.271478 -2.332968,0.656804 -3.676352,1.05614 -1.345135,0.398753 -2.481261,0.638122 -3.812968,1.055558 -1.331706,0.419771 -2.85958,1.01936 -4.196541,1.35039 -2.672755,0.659139 -5.363609,1.274492 -8.132113,0.845964 -2.695525,-0.415101 -5.539342,-1.418698 -8.869485,-2.985103 -1.555313,-0.980827 -2.102356,1.137876 -1.384251,2.3102 2.467832,2.088929 3.414214,2.159572 6.834851,2.424046 3.423556,0.262138 9.323118,0.718105 12.19671,0.0181 2.841481,-0.693002 4.74125,-1.822122 7.341028,-2.595107 2.597442,-0.772986 5.890804,-1.190421 8.349296,-1.249972 0.910185,-0.01109 0.878074,-0.08174 0.859975,-0.761308 -0.01635,-0.677823 -0.01635,-1.963992 -0.925948,-1.929547 z"
     style="fill:#ffffff;fill-opacity:1;fill-rule:evenodd;stroke:none;stroke-width:0.58382601"
     id="path50" />
  <path
     d="m 46.04013,16.505207 c -0.03153,0.0023 -0.06364,0.0047 -0.0934,0.007 -2.647651,0.278485 -4.709141,0.82553 -6.485724,1.393593 -1.776581,0.56748 -3.268257,1.151306 -4.778031,1.498097 -1.509774,0.346793 -5.621662,0.241704 -7.694244,-0.02043 -2.07317,-0.264481 -2.107616,-0.686587 -5.551022,-2.063834 -0.841877,-0.353798 -1.692512,0.976157 -1.945308,1.607857 -0.251046,0.631701 0.09107,0.567479 0.946382,0.891503 3.589363,1.43446 6.424422,2.187012 8.802928,2.48126 2.376173,0.294249 4.294041,0.130188 6.043184,-0.273814 1.751478,-0.401089 3.152076,-1.37958 4.844004,-1.924874 1.692512,-0.547045 3.674018,-0.658557 6.098647,-0.911937 1.849561,-0.150626 3.518719,-3.249575 -0.187408,-2.684433 z"
     style="fill:#ffffff;fill-opacity:1;fill-rule:evenodd;stroke:none;stroke-width:0.58382601"
     id="path52" />
</svg>
