<?xml version="1.0" encoding="UTF-8" standalone="no"?>
<svg
   xmlns:dc="http://purl.org/dc/elements/1.1/"
   xmlns:cc="http://creativecommons.org/ns#"
   xmlns:rdf="http://www.w3.org/1999/02/22-rdf-syntax-ns#"
   xmlns:svg="http://www.w3.org/2000/svg"
   xmlns="http://www.w3.org/2000/svg"
   xmlns:sodipodi="http://sodipodi.sourceforge.net/DTD/sodipodi-0.dtd"
   xmlns:inkscape="http://www.inkscape.org/namespaces/inkscape"
   viewBox="0 0 64 64"
   enable-background="new 0 0 64 64"
   id="svg2"
   version="1.1"
   inkscape:version="0.48.4 r9939"
   width="100%"
   height="100%"
   sodipodi:docname="1f60e.svg">
  <metadata
     id="metadata16">
    <rdf:RDF>
      <cc:Work
         rdf:about="">
        <dc:format>image/svg+xml</dc:format>
        <dc:type
           rdf:resource="http://purl.org/dc/dcmitype/StillImage" />
        <dc:title></dc:title>
      </cc:Work>
    </rdf:RDF>
  </metadata>
  <defs
     id="defs14" />
  <sodipodi:namedview
     pagecolor="#ffffff"
     bordercolor="#666666"
     borderopacity="1"
     objecttolerance="10"
     gridtolerance="10"
     guidetolerance="10"
     inkscape:pageopacity="0"
     inkscape:pageshadow="2"
     inkscape:window-width="1327"
     inkscape:window-height="744"
     id="namedview12"
     showgrid="false"
     inkscape:zoom="5.2149125"
     inkscape:cx="31.262833"
     inkscape:cy="43.287727"
     inkscape:window-x="39"
     inkscape:window-y="24"
     inkscape:window-maximized="1"
     inkscape:current-layer="svg2" />
  <g
     fill-rule="evenodd"
     id="g4">
    <path
       fill="#ffdd67"
       d="M32,2c16.568,0,30,13.432,30,30S48.567,62,32,62   C15.431,62,2,48.568,2,32S15.431,2,32,2"
       id="path6" />
    <path
       style="fill:#00b800;fill-opacity:1"
       d="M 3.5625,20.59375 C 3.5617277,20.61973 2.625,23.4375 2.625,23.4375 2.641847,23.4396 5,24.375 5,24.375 5.641,28.89 4.4665,34.149 8.0625,35.5 c 3.337999,1.254 13.65575,1.47825 16.96875,0.15625 2.263789,-0.707316 2.785744,-4.808374 4.5625,-9.21875 1.318373,-2.804199 4.047867,-2.09697 4.75,-0.03125 1.776756,4.410377 2.298711,8.542684 4.5625,9.25 3.313001,1.322 13.630751,1.09775 16.96875,-0.15625 3.596,-1.351 2.4215,-6.61 3.0625,-11.125 0,0 2.35815,-0.9354 2.375,-0.9375 0,0 -0.936727,-2.84902 -0.9375,-2.875 0,0 -56.8109128,0.05542 -56.8125,0.03125 z"
       id="path8"
       inkscape:connector-curvature="0"
       sodipodi:nodetypes="ccccccccccccc" />
  </g>
  <path
     fill="#664e27"
     d="m21.462 43.09c1.133 1.779 2.712 3.071 4.548 3.956 1.831.886 3.908 1.326 5.991 1.328 2.081-.007 4.156-.445 5.986-1.331 1.834-.886 3.414-2.176 4.549-3.953.246 2.078-.826 4.341-2.82 5.944-1.974 1.626-4.844 2.58-7.716 2.567-2.871.008-5.738-.944-7.713-2.57-1.991-1.602-3.066-3.863-2.825-5.941"
     id="path10" />
  <path
     d="m 8.6970804,23.353774 c 0.0811,1.564202 0.05518,3.771962 0.1883838,5.667016 0.1332009,1.895055 0.4255216,3.477402 1.1430988,3.79078 2.19549,0.82479 10.557439,1.03174 12.736487,0.162226 1.488955,-0.465221 3.13895,-7.419132 3.646038,-9.600898"
     id="path8-8"
     inkscape:connector-curvature="0"
     style="fill:#ffdd67;fill-opacity:1"
     sodipodi:nodetypes="csccc" />
  <path
     d="m 55.38603,23.277822 c -0.0811,1.564202 -0.05519,3.771962 -0.188384,5.667016 -0.133202,1.895054 -0.425522,3.477402 -1.143099,3.79078 -2.195491,0.824789 -10.55744,1.03174 -12.736487,0.162226 -1.488955,-0.465221 -3.13895,-7.419133 -3.646038,-9.600898"
     id="path8-8-6"
     inkscape:connector-curvature="0"
     style="fill:#ffdd67;fill-opacity:1"
     sodipodi:nodetypes="csccc" />
  <path
     sodipodi:type="arc"
     style="fill:#664e27;fill-opacity:1;stroke:none"
     id="path3097"
     sodipodi:cx="17.016949"
     sodipodi:cy="27.79661"
     sodipodi:rx="2.7796609"
     sodipodi:ry="2.7118645"
     d="m 19.79661,27.79661 a 2.7796609,2.7118645 0 1 1 -5.559322,0 2.7796609,2.7118645 0 1 1 5.559322,0 z" />
  <path
     transform="translate(30.440678,2.9178945e-7)"
     sodipodi:type="arc"
     style="fill:#664e27;fill-opacity:1;stroke:none"
     id="path3097-7"
     sodipodi:cx="17.016949"
     sodipodi:cy="27.79661"
     sodipodi:rx="2.7796609"
     sodipodi:ry="2.7118645"
     d="m 19.79661,27.79661 a 2.7796609,2.7118645 0 1 1 -5.559322,0 2.7796609,2.7118645 0 1 1 5.559322,0 z" />
</svg>
