<?xml version="1.0" encoding="UTF-8" standalone="no"?>
<!-- Generator: Adobe Illustrator 19.0.0, SVG Export Plug-In . SVG Version: 6.00 Build 0)  -->

<svg
   xmlns:dc="http://purl.org/dc/elements/1.1/"
   xmlns:cc="http://creativecommons.org/ns#"
   xmlns:rdf="http://www.w3.org/1999/02/22-rdf-syntax-ns#"
   xmlns:svg="http://www.w3.org/2000/svg"
   xmlns="http://www.w3.org/2000/svg"
   xmlns:sodipodi="http://sodipodi.sourceforge.net/DTD/sodipodi-0.dtd"
   xmlns:inkscape="http://www.inkscape.org/namespaces/inkscape"
   version="1.1"
   id="Layer_1"
   x="0px"
   y="0px"
   viewBox="0 0 140 139.99999"
   enable-background="new 0 0 196.6 72"
   xml:space="preserve"
   inkscape:version="0.91 r13725"
   sodipodi:docname="sticker.svg"
   width="140"
   height="140"><metadata
     id="metadata20"><rdf:RDF><cc:Work
         rdf:about=""><dc:format>image/svg+xml</dc:format><dc:type
           rdf:resource="http://purl.org/dc/dcmitype/StillImage" /><dc:title></dc:title></cc:Work></rdf:RDF></metadata><defs
     id="defs18" /><sodipodi:namedview
     pagecolor="#ffffff"
     bordercolor="#666666"
     borderopacity="1"
     objecttolerance="10"
     gridtolerance="10"
     guidetolerance="10"
     inkscape:pageopacity="0"
     inkscape:pageshadow="2"
     inkscape:window-width="2560"
     inkscape:window-height="1399"
     id="namedview16"
     showgrid="false"
     inkscape:zoom="2.8284271"
     inkscape:cx="102.28545"
     inkscape:cy="82.729303"
     inkscape:current-layer="Layer_1"
     fit-margin-top="0"
     fit-margin-left="0"
     fit-margin-right="0"
     fit-margin-bottom="0"
     inkscape:window-x="0"
     inkscape:window-y="240"
     inkscape:window-maximized="1" /><circle
     style="opacity:0.98000004;fill:#0082c9;fill-opacity:1;stroke:none;stroke-width:5.56599998;stroke-linecap:round;stroke-linejoin:round;stroke-miterlimit:10;stroke-dasharray:none;stroke-opacity:1"
     id="path4171"
     cx="70"
     cy="70"
     r="70" /><path
     style="color:#000000;font-style:normal;font-variant:normal;font-weight:normal;font-stretch:normal;font-size:medium;line-height:normal;font-family:sans-serif;text-indent:0;text-align:start;text-decoration:none;text-decoration-line:none;text-decoration-style:solid;text-decoration-color:#000000;letter-spacing:normal;word-spacing:normal;text-transform:none;direction:ltr;block-progression:tb;writing-mode:lr-tb;baseline-shift:baseline;text-anchor:start;white-space:normal;clip-rule:nonzero;display:inline;overflow:visible;visibility:visible;opacity:1;isolation:auto;mix-blend-mode:normal;color-interpolation:sRGB;color-interpolation-filters:linearRGB;solid-color:#000000;solid-opacity:1;fill:#ffffff;fill-opacity:1;fill-rule:nonzero;stroke:none;stroke-width:5.56589985;stroke-linecap:butt;stroke-linejoin:miter;stroke-miterlimit:10;stroke-dasharray:none;stroke-dashoffset:0;stroke-opacity:1;color-rendering:auto;image-rendering:auto;shape-rendering:auto;text-rendering:auto;enable-background:accumulate"
     d="m 70.07621,37.475328 c -10.3653,0 -19.15076,7.026991 -21.87366,16.547771 C 45.83606,48.973133 40.7078,45.435208 34.80093,45.435208 26.6776,45.435208 20,52.112806 20,60.236135 c 0,8.123331 6.6776,14.803975 14.80093,14.803975 5.90687,0 11.03513,-3.540092 13.40162,-8.590939 2.7229,9.521501 11.50836,16.550821 21.87366,16.550821 10.28865,0 19.0293,-6.923312 21.82184,-16.337419 2.41022,4.936191 7.47501,8.377537 13.29797,8.377537 8.12334,0 14.80398,-6.680644 14.80398,-14.803975 0,-8.123329 -6.68064,-14.800927 -14.80398,-14.800927 -5.82296,0 -10.88775,3.439186 -13.29797,8.37449 -2.79254,-9.413374 -11.53319,-16.33437 -21.82184,-16.33437 z m 0,8.688494 c 7.82463,0 14.07537,6.24771 14.07537,14.072313 0,7.824605 -6.25074,14.075361 -14.07537,14.075361 -7.82459,0 -14.0723,-6.250756 -14.0723,-14.075361 0,-7.824603 6.24771,-14.072312 14.0723,-14.072313 z m -35.27528,7.959882 c 3.42814,0 6.11548,2.684285 6.11548,6.112431 0,3.428146 -2.68734,6.115481 -6.11548,6.115481 -3.42815,0 -6.11244,-2.687335 -6.11244,-6.115481 0,-3.428146 2.68429,-6.112431 6.11244,-6.112431 z m 70.39509,0 c 3.42816,0 6.11548,2.684285 6.11548,6.112431 0,3.428146 -2.68733,6.115481 -6.11548,6.115481 -3.42813,0 -6.11242,-2.687335 -6.11242,-6.115481 0,-3.428146 2.68431,-6.112431 6.11242,-6.112431 z"
     id="XMLID_107_"
     inkscape:connector-curvature="0" /><g
     id="g4571"
     transform="matrix(0.41300981,0,0,0.41300981,30,73.263286)"
     style="opacity:1;fill:#ffffff;fill-opacity:1"><path
       id="XMLID_121_"
       d="m 37.669669,48.9 c 5.9,0 9.2,4.2 9.2,10.5 0,0.6 -0.5,1.1 -1.1,1.1 l -15.9,0 c 0.1,5.6 4,8.8 8.5,8.8 2.8,0 4.8,-1.2 5.8,-2 0.6,-0.4 1.1,-0.3 1.4,0.3 l 0.3,0.5 c 0.3,0.5 0.2,1 -0.3,1.4 -1.2,0.9 -3.8,2.4 -7.3,2.4 -6.5,0 -11.5,-4.7 -11.5,-11.5 0.1,-7.2 4.9,-11.5 10.9,-11.5 z m 6.1,9.4 c -0.2,-4.6 -3,-6.9 -6.2,-6.9 -3.7,0 -6.9,2.4 -7.6,6.9 l 13.8,0 z"
       inkscape:connector-curvature="0"
       style="fill:#ffffff;fill-opacity:1" /><path
       id="XMLID_119_"
       d="m 76.9,52.1 0,-2.5 0,-5.2 c 0,-0.7 0.4,-1.1 1.1,-1.1 l 0.8,0 c 0.7,0 1,0.4 1,1.1 l 0,5.2 4.5,0 c 0.7,0 1.1,0.4 1.1,1.1 l 0,0.3 c 0,0.7 -0.4,1 -1.1,1 l -4.5,0 0,11 c 0,5.1 3.1,5.7 4.8,5.8 0.9,0.1 1.2,0.3 1.2,1.1 l 0,0.6 c 0,0.7 -0.3,1 -1.2,1 -4.8,0 -7.7,-2.9 -7.7,-8.1 l 0,-11.3 z"
       inkscape:connector-curvature="0"
       style="fill:#ffffff;fill-opacity:1" /><path
       id="XMLID_117_"
       d="m 99.8,48.9 c 3.8,0 6.2,1.6 7.3,2.5 0.5,0.4 0.6,0.9 0.1,1.5 l -0.3,0.5 c -0.4,0.6 -0.9,0.6 -1.5,0.2 -1,-0.7 -2.9,-2 -5.5,-2 -4.8,0 -8.6,3.6 -8.6,8.9 0,5.2 3.8,8.8 8.6,8.8 3.1,0 5.2,-1.4 6.2,-2.3 0.6,-0.4 1,-0.3 1.4,0.3 l 0.3,0.4 c 0.3,0.6 0.2,1 -0.3,1.5 -1.1,0.9 -3.8,2.8 -7.8,2.8 -6.5,0 -11.5,-4.7 -11.5,-11.5 0.1,-6.8 5.1,-11.6 11.6,-11.6 z"
       inkscape:connector-curvature="0"
       style="fill:#ffffff;fill-opacity:1" /><path
       id="XMLID_115_"
       d="m 113.1,41.8 c 0,-0.7 -0.4,-1.1 0.3,-1.1 l 0.8,0 c 0.7,0 1.8,0.4 1.8,1.1 l 0,23.9 c 0,2.8 1.3,3.1 2.3,3.2 0.5,0 0.9,0.3 0.9,1 l 0,0.7 c 0,0.7 -0.3,1.1 -1.1,1.1 -1.8,0 -5,-0.6 -5,-5.4 l 0,-24.5 z"
       inkscape:connector-curvature="0"
       style="fill:#ffffff;fill-opacity:1" /><path
       id="XMLID_112_"
       d="m 133.6,48.9 c 6.4,0 11.6,4.9 11.6,11.4 0,6.6 -5.2,11.6 -11.6,11.6 -6.4,0 -11.6,-5 -11.6,-11.6 0,-6.5 5.2,-11.4 11.6,-11.4 z m 0,20.4 c 4.7,0 8.5,-3.8 8.5,-9 0,-5 -3.8,-8.7 -8.5,-8.7 -4.7,0 -8.6,3.8 -8.6,8.7 0.1,5.1 3.9,9 8.6,9 z"
       inkscape:connector-curvature="0"
       style="fill:#ffffff;fill-opacity:1" /><path
       id="XMLID_109_"
       d="m 183.5,48.9 c 5.3,0 7.2,4.4 7.2,4.4 l 0.1,0 c 0,0 -0.1,-0.7 -0.1,-1.7 l 0,-9.9 c 0,-0.7 -0.3,-1.1 0.4,-1.1 l 0.8,0 c 0.7,0 1.8,0.4 1.8,1.1 l 0,28.5 c 0,0.7 -0.3,1.1 -1,1.1 l -0.7,0 c -0.7,0 -1.1,-0.3 -1.1,-1 l 0,-1.7 c 0,-0.8 0.2,-1.4 0.2,-1.4 l -0.1,0 c 0,0 -1.9,4.6 -7.6,4.6 -5.9,0 -9.6,-4.7 -9.6,-11.5 -0.2,-6.8 3.9,-11.4 9.7,-11.4 z m 0.1,20.4 c 3.7,0 7.1,-2.6 7.1,-8.9 0,-4.5 -2.3,-8.8 -7,-8.8 -3.9,0 -7.1,3.2 -7.1,8.8 0.1,5.4 2.9,8.9 7,8.9 z"
       inkscape:connector-curvature="0"
       style="fill:#ffffff;fill-opacity:1" /><path
       sodipodi:nodetypes="ssssssssssscccccsss"
       style="fill:#ffffff;fill-opacity:1"
       inkscape:connector-curvature="0"
       d="m 1,71.4 0.8,0 c 0.7,0 1.1,-0.4 1.1,-1.1 l 0,-21.472335 C 2.9,45.427665 6.6,43 10.8,43 c 4.2,0 7.9,2.427665 7.9,5.827665 L 18.7,70.3 c 0,0.7 0.4,1.1 1.1,1.1 l 0.8,0 c 0.7,0 1,-0.4 1,-1.1 l 0,-21.6 c 0,-5.7 -5.7,-8.5 -10.9,-8.5 l 0,0 0,0 0,0 0,0 C 5.7,40.2 0,43 0,48.7 l 0,21.6 c 0,0.7 0.3,1.1 1,1.1 z"
       id="XMLID_103_" /><path
       style="fill:#ffffff;fill-opacity:1"
       inkscape:connector-curvature="0"
       d="m 167.9,49.4 -0.8,0 c -0.7,0 -1.1,0.4 -1.1,1.1 l 0,12.1 c 0,3.4 -2.2,6.5 -6.5,6.5 -4.2,0 -6.5,-3.1 -6.5,-6.5 l 0,-12.1 c 0,-0.7 -0.4,-1.1 -1.1,-1.1 l -0.8,0 c -0.7,0 -1,0.4 -1,1.1 l 0,12.9 c 0,5.7 4.2,8.5 9.4,8.5 l 0,0 c 0,0 0,0 0,0 0,0 0,0 0,0 l 0,0 c 5.2,0 9.4,-2.8 9.4,-8.5 l 0,-12.9 c 0.1,-0.7 -0.3,-1.1 -1,-1.1 z"
       id="XMLID_102_" /><path
       inkscape:connector-curvature="0"
       id="path4165-9"
       d="m 68.908203,49.235938 c -0.244942,0.0391 -0.480102,0.202589 -0.705078,0.470703 l -4.046875,4.824218 -3.029297,3.609375 -4.585937,-5.466796 -2.488282,-2.966797 c -0.224975,-0.268116 -0.479748,-0.414718 -0.74414,-0.4375 -0.264393,-0.02278 -0.538524,0.07775 -0.806641,0.302734 l -0.613281,0.513672 c -0.536232,0.449952 -0.508545,0.948144 -0.05859,1.484375 l 4.048828,4.824219 3.357422,4 -4.916016,5.857421 c -0.0037,0.0044 -0.0061,0.0093 -0.0098,0.01367 l -2.480469,2.955078 c -0.449952,0.536232 -0.399531,1.100832 0.136719,1.550782 l 0.613281,0.511718 c 0.536231,0.449951 1.022704,0.33701 1.472656,-0.199218 l 4.046875,-4.824219 3.029297,-3.609375 4.585938,5.466797 c 0.003,0.0036 0.0067,0.0062 0.0098,0.0098 l 2.480469,2.957032 c 0.44995,0.536231 1.012595,0.584735 1.548828,0.134765 l 0.613282,-0.513671 c 0.536231,-0.449952 0.508544,-0.948144 0.05859,-1.484376 l -4.048828,-4.824218 -3.357422,-4 4.916016,-5.857422 c 0.0037,-0.0044 0.0061,-0.0093 0.0098,-0.01367 l 2.480469,-2.955078 c 0.449952,-0.53623 0.399532,-1.10083 -0.136719,-1.550781 l -0.613281,-0.513672 c -0.268115,-0.224976 -0.522636,-0.308636 -0.767578,-0.269531 z"
       style="fill:#ffffff;fill-opacity:1" /></g></svg>