<?xml version="1.0" encoding="UTF-8" standalone="no"?>
<svg
   xmlns:dc="http://purl.org/dc/elements/1.1/"
   xmlns:cc="http://creativecommons.org/ns#"
   xmlns:rdf="http://www.w3.org/1999/02/22-rdf-syntax-ns#"
   xmlns:svg="http://www.w3.org/2000/svg"
   xmlns="http://www.w3.org/2000/svg"
   xmlns:sodipodi="http://sodipodi.sourceforge.net/DTD/sodipodi-0.dtd"
   xmlns:inkscape="http://www.inkscape.org/namespaces/inkscape"
   viewBox="0 0 15 15"
   id="svg3041"
   height="15"
   width="15"
   version="1.1"
   inkscape:version="0.91+devel r"
   sodipodi:docname="padlock_open_disabled_black.svg">
  <sodipodi:namedview
     pagecolor="#ffffff"
     bordercolor="#666666"
     borderopacity="1"
     objecttolerance="10"
     gridtolerance="10"
     guidetolerance="10"
     inkscape:pageopacity="0"
     inkscape:pageshadow="2"
     inkscape:window-width="1678"
     inkscape:window-height="958"
     id="namedview7"
     showgrid="false"
     inkscape:zoom="22.627417"
     inkscape:cx="7.9563473"
     inkscape:cy="5.2327464"
     inkscape:window-x="51"
     inkscape:window-y="34"
     inkscape:window-maximized="0"
     inkscape:current-layer="svg3041" />
  <metadata
     id="metadata3047">
    <rdf:RDF>
      <cc:Work
         rdf:about="">
        <dc:format>image/svg+xml</dc:format>
        <dc:type
           rdf:resource="http://purl.org/dc/dcmitype/StillImage" />
        <dc:title />
      </cc:Work>
    </rdf:RDF>
  </metadata>
  <defs
     id="defs3045" />
  <path
     style="fill:#000000;stroke:none"
     d="M 7.53125 0.00390625 C 4.961633 0.00390625 3.4225559 1.2787042 2.7519531 2.5410156 C 2.0813503 3.803327 2.1328125 5.0507812 2.1328125 5.0507812 L 4.03125 4.9921875 C 4.03125 4.9921875 4.019782 4.2051806 4.4296875 3.4335938 C 4.8395929 2.6620069 5.524596 1.9042969 7.53125 1.9042969 C 9.5466986 1.9042969 10.324942 2.6626717 10.789062 3.4199219 C 11.253184 4.177172 11.285156 4.9238281 11.285156 4.9238281 L 11.320312 8.0078125 L 2.1601562 8.0078125 L 2.1601562 15 L 13.220703 15 L 13.220703 9.5371094 L 13.238281 9.5371094 L 13.220703 8.0078125 L 13.185547 4.8730469 L 13.185547 4.8632812 C 13.185547 4.8632812 13.153667 3.6408231 12.410156 2.4277344 C 11.666646 1.2146499 10.092069 0.00390625 7.53125 0.00390625 z "
     id="rect3051" />
  <path
     style="fill:#ffffff;fill-rule:evenodd;stroke:#ffffff;stroke-width:4;stroke-linecap:butt;stroke-linejoin:miter;stroke-miterlimit:4;stroke-dasharray:none;stroke-opacity:1"
     d="M 0.18997448,16.385763 15.366374,-2.2072779"
     id="path4160-1-3-1"
     inkscape:connector-curvature="0"
     sodipodi:nodetypes="cc" />
  <path
     style="fill:none;fill-rule:evenodd;stroke:#000000;stroke-width:2;stroke-linecap:butt;stroke-linejoin:miter;stroke-miterlimit:4;stroke-dasharray:none;stroke-opacity:1"
     d="M -0.40599717,17.241436 14.770403,-1.3516053"
     id="path4160-1-3"
     inkscape:connector-curvature="0"
     sodipodi:nodetypes="cc" />
</svg>
