<?xml version="1.0" encoding="UTF-8" standalone="no"?>
<!-- Generator: Adobe Illustrator 13.0.2, SVG Export Plug-In . SVG Version: 6.00 Build 14948)  -->

<svg
   xmlns:dc="http://purl.org/dc/elements/1.1/"
   xmlns:cc="http://creativecommons.org/ns#"
   xmlns:rdf="http://www.w3.org/1999/02/22-rdf-syntax-ns#"
   xmlns:svg="http://www.w3.org/2000/svg"
   xmlns="http://www.w3.org/2000/svg"
   xmlns:sodipodi="http://sodipodi.sourceforge.net/DTD/sodipodi-0.dtd"
   xmlns:inkscape="http://www.inkscape.org/namespaces/inkscape"
   id="Layer_1"
   xml:space="preserve"
   height="147.22015"
   viewBox="0 0 192.89149 147.21771"
   width="192.89587"
   version="1.1"
   y="0px"
   x="0px"
   enable-background="new 0 0 176.486 181.437"
   inkscape:version="0.91pre2 r"
   sodipodi:docname="XMPP_logo.svg"><metadata
     id="metadata41"><rdf:RDF><cc:Work
         rdf:about=""><dc:format>image/svg+xml</dc:format><dc:type
           rdf:resource="http://purl.org/dc/dcmitype/StillImage" /><dc:title></dc:title></cc:Work></rdf:RDF></metadata><defs
     id="defs39" /><sodipodi:namedview
     pagecolor="#ffffff"
     bordercolor="#666666"
     borderopacity="1"
     objecttolerance="10"
     gridtolerance="10"
     guidetolerance="10"
     inkscape:pageopacity="0"
     inkscape:pageshadow="2"
     inkscape:window-width="640"
     inkscape:window-height="480"
     id="namedview37"
     showgrid="false"
     fit-margin-top="10"
     fit-margin-left="10"
     fit-margin-right="10"
     fit-margin-bottom="10"
     inkscape:zoom="1.3007054"
     inkscape:cx="71.332001"
     inkscape:cy="72.501142"
     inkscape:window-x="75"
     inkscape:window-y="34"
     inkscape:window-maximized="0"
     inkscape:current-layer="Layer_1" /><linearGradient
     id="SVGID_1_"
     y2="0.00048828"
     gradientUnits="userSpaceOnUse"
     x2="-1807.2"
     gradientTransform="translate(1925.9953,9.9988343)"
     y1="125.86"
     x1="-1807.2"><stop
       stop-color="#1b3967"
       offset=".011"
       id="stop4" /><stop
       stop-color="#13b5ea"
       offset=".467"
       id="stop6" /><stop
       stop-color="#002b5c"
       offset=".9945"
       id="stop8" /></linearGradient><path
     d="m 146.28531,24.187835 c 0.077,1.313 -1.786,0.968 -1.786,2.293 0,38.551 -44.720002,96.831035 -89.847002,108.190035 l 0,1.182 C 114.60931,130.34287 181.38231,69.052835 182.89231,10.002834 l -36.6,14.189001 z"
     id="path10"
     style="fill:url(#SVGID_1_)"
     inkscape:connector-curvature="0" /><path
     d="m 130.22531,27.958835 c 0.077,1.313 0.121,2.633 0.121,3.958 0,38.551 -30.700002,90.497035 -75.827002,101.860035 l 0,1.637 c 59.065002,-3.823 105.810002,-63.023035 105.810002,-109.200035 0,-2.375 -0.125,-4.729 -0.371,-7.056 l -29.73,8.796 z"
     id="path12"
     inkscape:connector-curvature="0"
     style="fill:#e96d1f" /><linearGradient
     id="SVGID_2_"
     y2="1.279e-13"
     gradientUnits="userSpaceOnUse"
     x2="-1073.2"
     gradientTransform="matrix(-1,0,0,1,-998.20465,9.9988343)"
     y1="126.85"
     x1="-1073.2"><stop
       stop-color="#1b3967"
       offset=".011"
       id="stop15" /><stop
       stop-color="#13b5ea"
       offset=".467"
       id="stop17" /><stop
       stop-color="#002b5c"
       offset=".9945"
       id="stop19" /></linearGradient><path
     d="m 46.594308,24.187835 c -0.077,1.313 1.787,0.968 1.787,2.293 0,38.551 46.558,97.366035 91.688002,108.730035 l 0,1.639 C 80.116308,131.32987 11.509308,69.049835 9.9993079,9.9998343 L 46.598308,24.188835 Z"
     id="path21"
     style="fill:url(#SVGID_2_)"
     inkscape:connector-curvature="0" /><path
     d="m 64.726308,28.930835 c -0.076,1.313 -0.12,2.63 -0.12,3.957 0,38.551 30.699,90.497035 75.827002,101.860035 l 0,1.639 C 81.389308,133.59687 34.623308,73.362835 34.623308,27.186835 c 0,-2.375 0.128,-4.729 0.371,-7.056 l 29.73,8.798 z"
     id="path23"
     inkscape:connector-curvature="0"
     style="fill:#a0ce67" /><path
     d="m 34.708308,19.581835 7.617,2.722 c -0.041,0.962 -0.066,2.254 -0.066,3.225 0,41.219 37.271,98.204035 87.272002,107.120035 3.245,1.088 7.538,2.077 10.932,2.931 l 0,1.638 C 75.209308,131.65787 29.363308,65.351835 34.703308,19.577835 Z"
     id="path25"
     inkscape:connector-curvature="0"
     style="fill:#439639" /><path
     d="m 160.33531,18.758835 -7.833,2.625 c 0.041,0.963 0.191,2.203 0.191,3.173 0,41.219 -37.272,98.205035 -87.274002,107.120035 -3.243,1.089 -7.538,2.077 -10.93,2.932 l 0,1.639 C 122.83331,127.58787 165.66931,64.528835 160.32931,18.757835 Z"
     id="path27"
     inkscape:connector-curvature="0"
     style="fill:#d9541e" /></svg>