<?xml version="1.0" encoding="UTF-8" standalone="no"?>
<!-- Generator: Adobe Illustrator 19.0.0, SVG Export Plug-In . SVG Version: 6.00 Build 0)  -->

<svg
   xmlns:dc="http://purl.org/dc/elements/1.1/"
   xmlns:cc="http://creativecommons.org/ns#"
   xmlns:rdf="http://www.w3.org/1999/02/22-rdf-syntax-ns#"
   xmlns:svg="http://www.w3.org/2000/svg"
   xmlns="http://www.w3.org/2000/svg"
   xmlns:sodipodi="http://sodipodi.sourceforge.net/DTD/sodipodi-0.dtd"
   xmlns:inkscape="http://www.inkscape.org/namespaces/inkscape"
   version="1.1"
   id="Capa_1"
   x="0px"
   y="0px"
   viewBox="0 0 43.999999 43.999999"
   xml:space="preserve"
   sodipodi:docname="attachment.svg"
   width="44"
   height="44"
   inkscape:version="0.92.4 (5da689c313, 2019-01-14)"><metadata
     id="metadata39"><rdf:RDF><cc:Work
         rdf:about=""><dc:format>image/svg+xml</dc:format><dc:type
           rdf:resource="http://purl.org/dc/dcmitype/StillImage" /><dc:title></dc:title></cc:Work></rdf:RDF></metadata><defs
     id="defs37" /><sodipodi:namedview
     pagecolor="#ffffff"
     bordercolor="#666666"
     borderopacity="1"
     objecttolerance="10"
     gridtolerance="10"
     guidetolerance="10"
     inkscape:pageopacity="0"
     inkscape:pageshadow="2"
     inkscape:window-width="1380"
     inkscape:window-height="1078"
     id="namedview35"
     showgrid="false"
     inkscape:zoom="17.938924"
     inkscape:cx="20.689804"
     inkscape:cy="21.817415"
     inkscape:window-x="1612"
     inkscape:window-y="68"
     inkscape:window-maximized="0"
     inkscape:current-layer="Capa_1" /><path
     d="m 12.237238,43.510523 c -2.8908184,0 -5.6009094,-1.11871 -7.6314324,-3.150051 -2.0305231,-2.031341 -3.1500504,-4.740613 -3.1500504,-7.631431 0,-2.890001 1.1187096,-5.600091 3.1500504,-7.630614 L 26.926026,2.778207 c 3.193392,-3.19175758 8.155622,-3.04864718 11.542008,0.337739 3.386386,3.3863867 3.53195,8.347799 0.338557,11.542009 L 17.838146,35.626401 c -1.968372,1.968372 -5.174033,1.971643 -7.145677,0 -1.9700084,-1.970827 -1.9691904,-5.176487 0,-7.145677 l 14.203852,-14.20385 c 0.479213,-0.479213 1.255277,-0.479213 1.73449,0 0.479213,0.479213 0.479213,1.255277 0,1.73449 l -14.20385,14.20385 c -1.013219,1.013219 -1.013219,2.66266 0,3.676695 1.014851,1.013219 2.663478,1.011582 3.676694,0 L 37.072101,12.923465 C 39.275991,10.718755 39.131246,7.2481387 36.733544,4.8504363 34.335842,2.4527343 30.865225,2.3079891 28.660517,4.5126974 L 6.3402956,26.832917 c -1.567665,1.567666 -2.43123,3.661976 -2.43123,5.896124 0,2.234965 0.863565,4.329275 2.43123,5.896941 1.567665,1.567665 3.6619764,2.431231 5.8969424,2.431231 2.234148,0 4.328457,-0.863566 5.896124,-2.431231 L 40.45358,16.305762 c 0.479213,-0.479213 1.255277,-0.479213 1.734492,0 0.479213,0.479213 0.479213,1.255277 0,1.73449 l -22.32022,22.32022 c -2.030524,2.030523 -4.740615,3.150051 -7.630614,3.150051 z"
     id="path2"
     inkscape:connector-curvature="0"
     style="fill:#000000;stroke:#000000;stroke-width:0.97895348;stroke-miterlimit:4;stroke-dasharray:none" /><g
     id="g4"
     transform="translate(0,-8.6230011)" /><g
     id="g6"
     transform="translate(0,-8.6230011)" /><g
     id="g8"
     transform="translate(0,-8.6230011)" /><g
     id="g10"
     transform="translate(0,-8.6230011)" /><g
     id="g12"
     transform="translate(0,-8.6230011)" /><g
     id="g14"
     transform="translate(0,-8.6230011)" /><g
     id="g16"
     transform="translate(0,-8.6230011)" /><g
     id="g18"
     transform="translate(0,-8.6230011)" /><g
     id="g20"
     transform="translate(0,-8.6230011)" /><g
     id="g22"
     transform="translate(0,-8.6230011)" /><g
     id="g24"
     transform="translate(0,-8.6230011)" /><g
     id="g26"
     transform="translate(0,-8.6230011)" /><g
     id="g28"
     transform="translate(0,-8.6230011)" /><g
     id="g30"
     transform="translate(0,-8.6230011)" /><g
     id="g32"
     transform="translate(0,-8.6230011)" /></svg>