<?xml version="1.0" encoding="UTF-8" standalone="no"?>
<!-- Generator: Adobe Illustrator 19.0.0, SVG Export Plug-In . SVG Version: 6.00 Build 0)  -->

<svg
   xmlns:dc="http://purl.org/dc/elements/1.1/"
   xmlns:cc="http://creativecommons.org/ns#"
   xmlns:rdf="http://www.w3.org/1999/02/22-rdf-syntax-ns#"
   xmlns:svg="http://www.w3.org/2000/svg"
   xmlns="http://www.w3.org/2000/svg"
   xmlns:sodipodi="http://sodipodi.sourceforge.net/DTD/sodipodi-0.dtd"
   xmlns:inkscape="http://www.inkscape.org/namespaces/inkscape"
   version="1.1"
   id="Capa_1"
   x="0px"
   y="0px"
   viewBox="0 0 43.999999 43.999999"
   xml:space="preserve"
   sodipodi:docname="attachment.svg"
   width="44"
   height="44"
   inkscape:version="0.92.1 r15371"><metadata
     id="metadata39"><rdf:RDF><cc:Work
         rdf:about=""><dc:format>image/svg+xml</dc:format><dc:type
           rdf:resource="http://purl.org/dc/dcmitype/StillImage" /><dc:title></dc:title></cc:Work></rdf:RDF></metadata><defs
     id="defs37" /><sodipodi:namedview
     pagecolor="#ffffff"
     bordercolor="#666666"
     borderopacity="1"
     objecttolerance="10"
     gridtolerance="10"
     guidetolerance="10"
     inkscape:pageopacity="0"
     inkscape:pageshadow="2"
     inkscape:window-width="1123"
     inkscape:window-height="989"
     id="namedview35"
     showgrid="false"
     inkscape:zoom="17.938924"
     inkscape:cx="21.204852"
     inkscape:cy="21.817415"
     inkscape:window-x="51"
     inkscape:window-y="34"
     inkscape:window-maximized="0"
     inkscape:current-layer="Capa_1" /><path
     d="m 15.019144,37.381084 c -2.067077,0 -4.004926,-0.799933 -5.4568497,-2.252442 C 8.11037,33.676133 7.3098528,31.73887 7.3098528,29.671793 c 0,-2.066493 0.7999325,-4.004341 2.2524415,-5.456265 L 25.522351,8.2554706 c 2.283433,-2.282264 5.831672,-2.179933 8.253105,0.2415 2.421433,2.4214334 2.525518,5.9690874 0.242085,8.2531054 L 19.024069,31.743548 c -1.407483,1.407483 -3.699688,1.409822 -5.109511,0 -1.408653,-1.409238 -1.408068,-3.701443 0,-5.109511 L 24.071012,16.477584 c 0.342661,-0.342661 0.897585,-0.342661 1.240246,0 0.342661,0.342661 0.342661,0.897585 0,1.240246 L 15.154805,27.874283 c -0.724501,0.724501 -0.724501,1.903933 0,2.629018 0.725669,0.724501 1.904518,0.723331 2.629018,0 L 32.777295,15.50983 c 1.57589,-1.576476 1.47239,-4.058138 -0.242085,-5.7726133 -1.714475,-1.7144751 -4.196137,-1.8179751 -5.772612,-0.2415 L 10.80254,25.455774 c -1.1209575,1.120958 -1.7384493,2.618493 -1.7384493,4.216019 0,1.59811 0.6174918,3.095645 1.7384493,4.216603 1.120958,1.120958 2.618493,1.73845 4.216604,1.73845 1.597526,0 3.09506,-0.617492 4.216019,-1.73845 L 35.195219,17.928339 c 0.342661,-0.342661 0.897585,-0.342661 1.240247,0 0.342661,0.342661 0.342661,0.897585 0,1.240246 L 20.475409,35.128642 c -1.451925,1.451924 -3.389773,2.252442 -5.456265,2.252442 z"
     id="path2"
     inkscape:connector-curvature="0"
     style="fill:#000000;stroke:#000000;stroke-width:0.69999999;stroke-miterlimit:4;stroke-dasharray:none" /><g
     id="g4"
     transform="translate(0,-8.6230011)" /><g
     id="g6"
     transform="translate(0,-8.6230011)" /><g
     id="g8"
     transform="translate(0,-8.6230011)" /><g
     id="g10"
     transform="translate(0,-8.6230011)" /><g
     id="g12"
     transform="translate(0,-8.6230011)" /><g
     id="g14"
     transform="translate(0,-8.6230011)" /><g
     id="g16"
     transform="translate(0,-8.6230011)" /><g
     id="g18"
     transform="translate(0,-8.6230011)" /><g
     id="g20"
     transform="translate(0,-8.6230011)" /><g
     id="g22"
     transform="translate(0,-8.6230011)" /><g
     id="g24"
     transform="translate(0,-8.6230011)" /><g
     id="g26"
     transform="translate(0,-8.6230011)" /><g
     id="g28"
     transform="translate(0,-8.6230011)" /><g
     id="g30"
     transform="translate(0,-8.6230011)" /><g
     id="g32"
     transform="translate(0,-8.6230011)" /></svg>