<svg xmlns="http://www.w3.org/2000/svg" width="44" height="44"><path d="M12.237 43.51c-2.89 0-5.6-1.118-7.631-3.15a10.718 10.718 0 01-3.15-7.631c0-2.89 1.118-5.6 3.15-7.63l22.32-22.32c3.193-3.193 8.156-3.05 11.542.337 3.386 3.386 3.532 8.348.339 11.542L17.838 35.626a5.059 5.059 0 01-7.146 0 5.06 5.06 0 010-7.145l14.204-14.204a1.226 1.226 0 111.735 1.734L12.427 30.215a2.604 2.604 0 000 3.677 2.605 2.605 0 003.677 0l20.968-20.969c2.204-2.204 2.06-5.675-.338-8.073-2.398-2.397-5.869-2.542-8.073-.337L6.34 26.833a8.28 8.28 0 00-2.432 5.896 8.28 8.28 0 002.431 5.897 8.28 8.28 0 005.897 2.431 8.28 8.28 0 005.896-2.431l22.32-22.32a1.226 1.226 0 111.735 1.734l-22.32 22.32a10.716 10.716 0 01-7.63 3.15z" stroke="#000" stroke-width=".979"/></svg>