<svg xmlns="http://www.w3.org/2000/svg" width="44" height="44"><path d="M19.43 2.588v1.463C8.29 5.176 6.94 14.066 5.816 21.944 5.027 27.233 4.352 32.747.75 36.46c-.676.788-.9 1.8-.563 2.814.45.9 1.35 1.575 2.363 1.575h16.092c.113 1.8 1.463 3.151 3.264 3.151 1.688 0 3.15-1.463 3.263-3.15h16.205c1.012 0 2.025-.676 2.363-1.576.45-.9.225-2.026-.563-2.814-3.6-3.713-4.389-9.227-5.064-14.516-1.125-7.878-2.363-16.768-13.504-17.893V2.588C24.607 1.125 23.482 0 22.02 0s-2.588 1.125-2.588 2.588z" fill="#ffd42a"/></svg>