<?xml version="1.0" encoding="UTF-8" standalone="no"?>
<svg
   xmlns:dc="http://purl.org/dc/elements/1.1/"
   xmlns:cc="http://creativecommons.org/ns#"
   xmlns:rdf="http://www.w3.org/1999/02/22-rdf-syntax-ns#"
   xmlns:svg="http://www.w3.org/2000/svg"
   xmlns="http://www.w3.org/2000/svg"
   xmlns:sodipodi="http://sodipodi.sourceforge.net/DTD/sodipodi-0.dtd"
   xmlns:inkscape="http://www.inkscape.org/namespaces/inkscape"
   viewBox="0 0 44000 44000"
   preserveAspectRatio="xMinYMin meet"
   width="44"
   height="44"
   id="svg2"
   version="1.1"
   inkscape:version="0.92.4 (5da689c313, 2019-01-14)"
   sodipodi:docname="contact_black.svg">
  <metadata
     id="metadata10">
    <rdf:RDF>
      <cc:Work
         rdf:about="">
        <dc:format>image/svg+xml</dc:format>
        <dc:type
           rdf:resource="http://purl.org/dc/dcmitype/StillImage" />
        <dc:title></dc:title>
      </cc:Work>
    </rdf:RDF>
  </metadata>
  <defs
     id="defs8" />
  <sodipodi:namedview
     pagecolor="#ffffff"
     bordercolor="#666666"
     borderopacity="1"
     objecttolerance="10"
     gridtolerance="10"
     guidetolerance="10"
     inkscape:pageopacity="0"
     inkscape:pageshadow="2"
     inkscape:window-width="1874"
     inkscape:window-height="1136"
     id="namedview6"
     showgrid="false"
     inkscape:zoom="14.481547"
     inkscape:cx="32.187313"
     inkscape:cy="19.709219"
     inkscape:window-x="1246"
     inkscape:window-y="27"
     inkscape:window-maximized="1"
     inkscape:current-layer="svg2"
     units="px" />
  <path
     style="fill:#000000;fill-opacity:1;stroke-width:77.24879456"
     clip-path="none"
     d="m 22006.112,0 c -2315.823,128.67751 -4309.203,997.39464 -5981.743,2605.6641 -1672.539,1608.2253 -2830.888,3505.0336 -3474.173,5692.1968 -771.941,2959.1401 -514.53,5982.1531 772.038,9069.9261 1029.255,1929.852 2380.664,3474.293 4053.203,4632.213 l -3667.183,1737.08 -9648.9264,4439.219 c -1029.255,514.621 -1544.0772,1349.674 -1544.0772,2507.594 v 9071.432 C 2386.5938,42457.11 3158.8262,43871.322 4831.366,44000 h 34544.058 c 771.941,-257.311 1318.907,-643.432 1640.582,-1158.053 321.674,-514.666 482.524,-932.99 482.524,-1254.573 V 30683.893 c 0,-1157.92 -450.47,-1928.612 -1351.067,-2314.556 L 30884.556,23737.08 26831.353,21807.006 c 2444.481,-1415.231 4053.3,-3859.085 4825.241,-7332.846 514.628,-1929.853 514.628,-3924.775 0,-5983.2606 C 31013.311,6175.0586 29822.751,4213.8894 28085.916,2605.6641 26349.082,997.39464 24322.002,128.67751 22006.112,0 Z m -1626.573,26117.016 h 3137.963 v 5354.446 h 5457.192 v 3167.548 h -5457.192 v 5370.038 H 20379.539 V 34639.01 h -5354.461 v -3167.548 h 5354.461 z"
     id="path4"
     inkscape:connector-curvature="0" />
</svg>
