<?xml version="1.0" encoding="UTF-8" standalone="no"?>
<!-- Created with Inkscape (http://www.inkscape.org/) -->

<svg
   xmlns:dc="http://purl.org/dc/elements/1.1/"
   xmlns:cc="http://creativecommons.org/ns#"
   xmlns:rdf="http://www.w3.org/1999/02/22-rdf-syntax-ns#"
   xmlns:svg="http://www.w3.org/2000/svg"
   xmlns="http://www.w3.org/2000/svg"
   xmlns:sodipodi="http://sodipodi.sourceforge.net/DTD/sodipodi-0.dtd"
   xmlns:inkscape="http://www.inkscape.org/namespaces/inkscape"
   width="44"
   height="44"
   id="svg2"
   version="1.1"
   inkscape:version="0.92.4 (5da689c313, 2019-01-14)"
   sodipodi:docname="gear_black.svg">
  <sodipodi:namedview
     id="base"
     pagecolor="#ffffff"
     bordercolor="#666666"
     borderopacity="1.0"
     inkscape:pageopacity="0.0"
     inkscape:pageshadow="2"
     inkscape:zoom="2.8"
     inkscape:cx="77.595876"
     inkscape:cy="131.06634"
     inkscape:document-units="px"
     inkscape:current-layer="svg2"
     showgrid="false"
     inkscape:window-width="1874"
     inkscape:window-height="1136"
     inkscape:window-x="1246"
     inkscape:window-y="27"
     inkscape:window-maximized="1"
     fit-margin-top="0"
     fit-margin-left="0"
     fit-margin-right="0"
     fit-margin-bottom="0" />
  <defs
     id="defs4">
    <clipPath
       clipPathUnits="userSpaceOnUse"
       id="clipPath4617">
      <circle
         style="fill:#b3b3b3;stroke:none"
         id="path4619"
         transform="translate(170.48656,275.14888)"
         cx="141.42857"
         cy="140.90877"
         r="124.28571" />
    </clipPath>
  </defs>
  <metadata
     id="metadata7">
    <rdf:RDF>
      <cc:Work
         rdf:about="">
        <dc:format>image/svg+xml</dc:format>
        <dc:type
           rdf:resource="http://purl.org/dc/dcmitype/StillImage" />
        <dc:title></dc:title>
      </cc:Work>
    </rdf:RDF>
  </metadata>
  <g
     inkscape:label="Layer 1"
     inkscape:groupmode="layer"
     id="layer1"
     transform="translate(-175.56216,-509.65489)">
    <path
       style="fill:#000000;stroke:none;stroke-width:0.17915049"
       d="m 197.52315,552.64586 c -0.22643,-0.56589 -0.41326,-1.74637 -0.41518,-2.62328 -0.005,-2.45122 -0.11966,-2.67517 -1.51831,-2.97512 -0.66792,-0.14325 -1.95197,-0.33518 -2.85346,-0.42654 l -1.63907,-0.16609 -0.72158,1.90422 c -0.69957,1.84614 -1.68791,3.26827 -2.27136,3.26827 -0.31111,0 -3.11443,-1.5584 -3.88412,-2.15924 -0.75267,-0.58754 -0.34606,-1.82612 1.25057,-3.80939 l 1.40545,-1.74579 -1.14402,-1.45332 c -0.62922,-0.79933 -1.47726,-1.84678 -1.88455,-2.32768 l -0.74053,-0.87436 -2.20879,1.19427 c -1.21483,0.65685 -2.44658,1.19427 -2.73723,1.19427 -0.58613,0 -1.49377,-1.71109 -2.08037,-3.92193 -0.31664,-1.1934 -0.3064,-1.25067 0.30641,-1.71332 0.3487,-0.26325 1.64173,-0.68246 2.87339,-0.93158 l 2.23938,-0.45293 v -2.99307 -2.99308 l -1.85549,-0.32034 c -1.02052,-0.1762 -2.30093,-0.54142 -2.84537,-0.81162 -0.89978,-0.44655 -0.97788,-0.56523 -0.858,-1.30396 0.0725,-0.44699 0.45647,-1.64699 0.85319,-2.66668 0.6436,-1.65428 0.79444,-1.85397 1.40035,-1.85397 0.37348,0 1.63033,0.53895 2.793,1.19768 l 2.11395,1.19769 0.74646,-0.87778 c 1.62814,-1.91457 2.77049,-3.50158 2.77049,-3.8489 0,-0.20094 -0.47009,-0.93422 -1.04466,-1.62952 -1.21727,-1.47307 -1.77056,-2.46501 -1.77056,-3.1743 0,-0.5751 3.39934,-2.84612 4.26017,-2.84612 0.64952,0 1.41447,1.04399 2.2721,3.10088 0.37467,0.8986 0.77925,1.73677 0.89906,1.86259 0.12745,0.13386 1.39191,0.0399 3.04742,-0.22646 l 2.82957,-0.45525 v -2.1357 c 0,-1.36543 0.14848,-2.50678 0.41169,-3.16459 0.38598,-0.96467 0.47654,-1.0289 1.45063,-1.0289 0.57142,0 1.76818,0.12699 2.65947,0.2822 l 1.62052,0.2822 v 1.24017 c 0,0.68209 -0.29634,2.17823 -0.65853,3.32476 -0.36219,1.14653 -0.62132,2.1192 -0.57584,2.1615 0.0455,0.0423 1.22272,0.68437 2.6161,1.42683 l 2.53342,1.34993 1.56145,-1.6903 c 1.47554,-1.59731 2.75215,-2.49092 3.55853,-2.49092 0.31982,0 3.24947,3.22836 3.24947,3.58079 0,0.47548 -1.88388,2.27627 -3.39378,3.24409 -1.63071,1.04526 -1.75949,1.19184 -1.6012,1.82248 0.2817,1.12238 1.6851,4.64139 1.90529,4.77747 0.11211,0.0693 1.17432,-0.004 2.36048,-0.16258 1.79093,-0.23962 2.35026,-0.22402 3.29842,0.092 l 1.14177,0.38058 v 2.39875 2.39875 l -1.15169,0.33936 c -0.92774,0.27337 -1.58965,0.28058 -3.40411,0.0371 -1.32896,-0.17833 -2.33896,-0.20792 -2.46347,-0.0722 -0.3506,0.38223 -1.85898,5.1908 -1.70595,5.43841 0.0783,0.12668 0.93099,0.69885 1.89489,1.27149 1.12037,0.6656 2.00283,1.41938 2.44641,2.08966 l 0.69386,1.0485 -0.51289,0.65203 c -0.78622,0.99953 -2.22588,2.56403 -2.53551,2.75539 -0.59116,0.36536 -2.27396,-0.68318 -3.88261,-2.41923 l -1.66354,-1.79528 -2.43133,1.45669 c -1.33723,0.80118 -2.47201,1.48909 -2.52173,1.52868 -0.0497,0.0396 0.21606,0.99221 0.59063,2.11694 0.45779,1.37462 0.65521,2.44958 0.60226,3.27933 l -0.0788,1.23437 -1.40761,0.29523 c -0.77419,0.16238 -1.94216,0.30634 -2.59549,0.31992 -1.15561,0.024 -1.19905,-0.003 -1.59955,-1.00422 z m 3.5132,-13.14341 c 6.10087,-2.98488 6.43521,-12.02642 0.5686,-15.37693 -2.25385,-1.2872 -5.59825,-1.45414 -7.99349,-0.39901 -1.47487,0.6497 -3.32289,2.41925 -4.1368,3.96115 -0.61211,1.15961 -0.6809,1.56139 -0.6809,3.97718 0,2.31166 0.082,2.8409 0.58693,3.78649 1.25128,2.34349 3.37234,4.02335 5.87424,4.65236 1.6685,0.41949 4.24219,0.15183 5.78142,-0.60124 z"
       id="path2985"
       inkscape:connector-curvature="0" />
  </g>
</svg>
