<svg xmlns="http://www.w3.org/2000/svg" width="44" height="44"><path d="M21.961 42.991c-.226-.566-.413-1.746-.415-2.623-.005-2.452-.12-2.675-1.519-2.975-.667-.144-1.951-.336-2.853-.427l-1.639-.166-.722 1.904c-.7 1.846-1.688 3.268-2.271 3.268-.311 0-3.114-1.558-3.884-2.159-.753-.587-.346-1.826 1.25-3.81l1.406-1.745-1.144-1.453c-.63-.8-1.477-1.847-1.885-2.328l-.74-.874-2.209 1.194c-1.215.657-2.447 1.194-2.737 1.194-.586 0-1.494-1.71-2.08-3.922-.317-1.193-.307-1.25.306-1.713.349-.263 1.642-.683 2.873-.932l2.24-.453v-5.986l-1.856-.32c-1.02-.176-2.3-.541-2.845-.812-.9-.446-.978-.565-.858-1.304.072-.447.456-1.647.853-2.666.644-1.655.794-1.854 1.4-1.854.374 0 1.63.539 2.793 1.197l2.114 1.198.747-.878c1.628-1.914 2.77-3.501 2.77-3.849 0-.2-.47-.934-1.044-1.63C8.794 6.596 8.24 5.604 8.24 4.895c0-.576 3.4-2.847 4.26-2.847.65 0 1.415 1.044 2.272 3.101.375.899.78 1.737.9 1.863.127.134 1.391.04 3.047-.227l2.83-.455V4.194c0-1.366.148-2.507.411-3.165C22.347.064 22.438 0 23.411 0c.572 0 1.769.127 2.66.282l1.62.282v1.24c0 .683-.296 2.179-.658 3.325-.362 1.147-.621 2.12-.576 2.162.046.042 1.223.684 2.616 1.427l2.534 1.35 1.561-1.69c1.476-1.598 2.752-2.492 3.559-2.492.32 0 3.25 3.229 3.25 3.581 0 .476-1.885 2.276-3.395 3.244-1.63 1.046-1.76 1.192-1.6 1.823.28 1.122 1.684 4.641 1.905 4.777.112.07 1.174-.004 2.36-.162 1.79-.24 2.35-.224 3.298.092l1.142.38v4.798l-1.152.34c-.927.272-1.59.28-3.404.036-1.329-.178-2.339-.208-2.463-.072-.35.382-1.86 5.19-1.706 5.438.078.127.931.7 1.895 1.272 1.12.665 2.003 1.42 2.446 2.09l.694 1.048-.513.652c-.786 1-2.226 2.564-2.535 2.755-.591.366-2.274-.683-3.883-2.419l-1.663-1.795-2.432 1.457c-1.337.8-2.472 1.489-2.521 1.528-.05.04.216.993.59 2.117.458 1.375.655 2.45.602 3.28l-.078 1.234-1.408.295c-.774.163-1.942.307-2.595.32-1.156.024-1.2-.003-1.6-1.004zm3.513-13.143c6.101-2.985 6.435-12.027.569-15.377-2.254-1.288-5.598-1.455-7.994-.4-1.475.65-3.323 2.42-4.137 3.962-.612 1.16-.68 1.561-.68 3.977 0 2.312.082 2.84.587 3.786 1.25 2.344 3.372 4.024 5.874 4.653 1.668.42 4.242.152 5.781-.601z"/></svg>