<?xml version="1.0" encoding="UTF-8" standalone="no"?>
<!-- Created with Inkscape (http://www.inkscape.org/) -->

<svg
   xmlns:dc="http://purl.org/dc/elements/1.1/"
   xmlns:cc="http://creativecommons.org/ns#"
   xmlns:rdf="http://www.w3.org/1999/02/22-rdf-syntax-ns#"
   xmlns:svg="http://www.w3.org/2000/svg"
   xmlns="http://www.w3.org/2000/svg"
   xmlns:sodipodi="http://sodipodi.sourceforge.net/DTD/sodipodi-0.dtd"
   xmlns:inkscape="http://www.inkscape.org/namespaces/inkscape"
   width="272.70593"
   height="275.19449"
   id="svg2"
   version="1.1"
   inkscape:version="0.48+devel r"
   sodipodi:docname="gear.svg">
  <sodipodi:namedview
     id="base"
     pagecolor="#ffffff"
     bordercolor="#666666"
     borderopacity="1.0"
     inkscape:pageopacity="0.0"
     inkscape:pageshadow="2"
     inkscape:zoom="2.8"
     inkscape:cx="146.88159"
     inkscape:cy="131.06634"
     inkscape:document-units="px"
     inkscape:current-layer="layer1"
     showgrid="false"
     inkscape:window-width="1111"
     inkscape:window-height="840"
     inkscape:window-x="191"
     inkscape:window-y="34"
     inkscape:window-maximized="0"
     fit-margin-top="0"
     fit-margin-left="0"
     fit-margin-right="0"
     fit-margin-bottom="0" />
  <defs
     id="defs4">
    <clipPath
       clipPathUnits="userSpaceOnUse"
       id="clipPath4617">
      <path
         sodipodi:type="arc"
         style="fill:#b3b3b3;stroke:none"
         id="path4619"
         sodipodi:cx="141.42857"
         sodipodi:cy="140.90877"
         sodipodi:rx="124.28571"
         sodipodi:ry="124.28571"
         d="m 265.71429,140.90877 a 124.28571,124.28571 0 1 1 -248.57143,0 124.28571,124.28571 0 1 1 248.57143,0 z"
         transform="translate(170.48656,275.14888)" />
    </clipPath>
  </defs>
  <metadata
     id="metadata7">
    <rdf:RDF>
      <cc:Work
         rdf:about="">
        <dc:format>image/svg+xml</dc:format>
        <dc:type
           rdf:resource="http://purl.org/dc/dcmitype/StillImage" />
        <dc:title></dc:title>
      </cc:Work>
    </rdf:RDF>
  </metadata>
  <g
     inkscape:label="Layer 1"
     inkscape:groupmode="layer"
     id="layer1"
     transform="translate(-175.56216,-278.4604)">
    <path
       style="fill:#b3b3b3;stroke:none"
       d="m 322.90077,552.37609 c -0.8025,-1.03265 -4.1298,-6.77812 -7.394,-12.76771 -5.66062,-10.38686 -5.9349,-11.45971 -5.9349,-23.21429 0,-6.77827 -0.16071,-12.33471 -0.35714,-12.34764 -0.19643,-0.0129 -7.10714,-1.25351 -15.35714,-2.75686 -8.25,-1.50332 -15.42054,-2.29632 -15.93453,-1.7622 -0.51399,0.53413 -2.65068,5.852 -4.7482,11.8175 -3.29679,9.3763 -4.91271,11.81339 -11.92261,17.98135 -13.16776,11.58617 -12.78024,11.47418 -21.89865,6.32807 l -7.91867,-4.46902 2.59473,-13.70492 c 2.49374,-13.17148 2.90233,-14.05529 10.49705,-22.70579 4.34627,-4.95047 7.90231,-9.56676 7.90231,-10.2584 0,-1.47559 -18.31337,-23.80793 -20.06165,-24.4643 -0.65433,-0.24566 -6.31795,2.51133 -12.58583,6.12664 l -11.39614,6.57329 -13.13132,-0.41234 -13.13131,-0.41236 -3.2803,-8.73539 -3.28031,-8.7354 10.00696,-8.17517 c 10.84131,-8.85678 12.71635,-9.70148 27.21704,-12.26113 l 9.64286,-1.70214 0,-16.16553 0,-16.16553 -7.5,-1.47726 c -4.125,-0.81249 -9.8425,-1.8811 -12.70556,-2.37469 -3.46464,-0.5973 -8.76203,-3.85429 -15.83987,-9.73882 l -10.63432,-8.8414 3.17885,-8.52806 3.17886,-8.52805 13.60638,-0.40736 13.60637,-0.40735 10.9584,6.47878 c 6.02712,3.56333 11.38742,6.44805 11.91178,6.41048 1.07253,-0.0768 19.25751,-22.17096 20.00721,-24.30806 0.26531,-0.75631 -2.67819,-5.06316 -6.54112,-9.5708 -9.23405,-10.77518 -8.94789,-10.17209 -11.75184,-24.76724 l -2.43237,-12.66102 8.23066,-4.90297 8.23065,-4.90298 10.59272,9.07442 c 9.9688,8.53993 10.84458,9.77375 14.869,20.94783 2.78986,7.74624 4.97907,11.78706 6.2981,11.625 1.112,-0.13663 8.28967,-1.33754 15.95038,-2.66869 l 13.92857,-2.42028 0,-12.18641 c 0,-11.78521 0.21856,-12.59093 6.63887,-24.47416 3.65139,-6.75827 6.83678,-12.52672 7.07865,-12.81878 0.24187,-0.29206 4.61063,0.25596 9.70834,1.21783 10.34441,1.95186 9.29217,0.3446 12.39626,18.9345 1.53751,9.2079 1.41438,10.15238 -2.8655,21.98039 -2.45962,6.79749 -4.29177,12.48885 -4.07147,12.64746 4.71177,3.39226 27.103,15.17953 28.15202,14.81988 0.79829,-0.27369 4.84943,-4.58023 9.00255,-9.57008 6.9761,-8.38161 8.52263,-9.438 20.30933,-13.87272 l 12.75821,-4.80025 5.08923,5.87865 c 2.79907,3.23326 5.53904,6.62899 6.08881,7.54607 0.54977,0.91709 -2.04455,6.76442 -5.76518,12.99407 -6.19419,10.37126 -7.69156,11.86889 -17.75219,17.75522 -6.04307,3.53571 -11.0023,7.00724 -11.02051,7.71451 -0.0183,0.70726 2.31563,7.61798 5.18633,15.35714 3.61895,9.75638 5.91877,14.07069 7.5,14.06952 1.2543,-9.3e-4 6.9707,-0.89614 12.70311,-1.98936 10.42006,-1.9872 10.42577,-1.98654 23.57143,2.70176 l 13.14886,4.68944 0.41954,9.31679 0.41954,9.3168 -8.15887,3.05261 c -15.89207,5.94599 -18.87437,6.32689 -32.05681,4.0942 l -12.23376,-2.072 -5.26624,14.56129 c -2.89645,8.00871 -5.25595,15.12 -5.24333,15.80287 0.0128,0.68285 4.99475,3.99618 11.07143,7.36293 10.50011,5.81754 11.37924,6.70144 17.71197,17.80828 l 6.66347,11.68693 -2.7181,3.62029 c -1.49496,1.99115 -4.17209,5.33511 -5.94919,7.43102 l -3.23108,3.81075 -12.85165,-4.85782 c -10.57761,-3.99825 -13.73735,-5.93237 -17.85714,-10.93058 -2.75303,-3.34003 -6.61264,-7.82157 -8.57693,-9.959 l -3.57143,-3.88623 -13.57142,7.92583 c -7.46429,4.3592 -13.74919,8.09684 -13.96646,8.30585 -0.21727,0.20903 1.60376,5.7737 4.04673,12.36596 4.3249,11.67062 4.39808,12.26779 2.78221,22.70022 -2.66803,17.22532 -2.40288,16.70485 -9.04751,17.76102 -3.2768,0.52086 -7.29125,1.27903 -8.92097,1.68483 -1.62973,0.4058 -3.61975,-0.10714 -4.42225,-1.13973 l 0,0 z m 5.75622,-91.21091 c 40.6356,-15.20371 40.72047,-74.63235 0.12828,-89.86647 -11.6351,-4.36662 -28.19803,-3.77677 -38.37603,1.36669 -37.2726,18.83572 -35.50133,72.09244 2.92315,87.89042 10.85167,4.4616 24.40368,4.69537 35.32454,0.60936 l 6e-5,0 z"
       id="path4584"
       inkscape:connector-curvature="0"
       clip-path="url(#clipPath4617)" />
    <path
       style="fill:#999999;stroke:none"
       d="m 137.40915,254.8325 c -1.26388,-3.15876 -2.30675,-9.74805 -2.31748,-14.64286 -0.03,-13.68249 -0.66793,-14.93253 -8.47507,-16.60686 -3.72822,-0.79957 -10.89569,-1.87094 -15.92771,-2.38086 l -9.14914,-0.92711 -4.027767,10.62916 c -3.904909,10.30494 -9.421742,18.24315 -12.678473,18.24315 -1.736606,0 -17.384447,-8.69884 -21.68079,-12.05264 -4.20131,-3.27961 -1.931667,-10.19323 6.980559,-21.26363 l 7.845084,-9.74484 -6.385824,-8.1123 c -3.512203,-4.46177 -8.245923,-10.30856 -10.519376,-12.99287 l -4.133552,-4.88057 -12.329214,6.66628 c -6.781068,3.66646 -13.656601,6.66629 -15.278964,6.66629 -3.271731,0 -8.338082,-9.55112 -11.612425,-21.89182 -1.76747,-6.66142 -1.710297,-6.98112 1.710359,-9.56355 1.946426,-1.46946 9.163956,-3.80946 16.038956,-5.19999 l 12.5,-2.52823 0,-16.70704 0,-16.70704 -10.357143,-1.78814 c -5.696429,-0.98348 -12.843581,-3.02213 -15.882561,-4.53034 -5.022513,-2.4926 -5.458415,-3.15507 -4.789259,-7.2786 0.404887,-2.49503 2.547958,-9.193329 4.76238,-14.885117 3.592557,-9.234046 4.434488,-10.348706 7.816639,-10.348706 2.084728,0 9.100345,3.00841 15.59026,6.685357 l 11.799845,6.685356 4.166639,-4.899642 c 9.088134,-10.686935 15.464628,-19.545471 15.464628,-21.484214 0,-1.121577 -2.62404,-5.214683 -5.831201,-9.09579 -6.7947,-8.222527 -9.883084,-13.759459 -9.883084,-17.718639 0,-3.210132 18.974775,-15.886714 23.77982,-15.886714 3.625548,0 7.895445,5.827393 12.682653,17.308799 2.091384,5.015875 4.349691,9.69443 5.018461,10.396788 0.71142,0.747145 7.76951,0.222625 17.01037,-1.264124 l 15.79441,-2.541139 0,-11.921252 c 0,-7.621693 0.82879,-13.992614 2.29797,-17.664448 2.15452,-5.384664 2.66001,-5.743195 8.09727,-5.743195 3.18961,0 9.86981,0.708849 14.84489,1.575221 l 9.04558,1.575222 0,6.922461 c 0,3.807354 -1.65411,12.158671 -3.67581,18.558484 -2.0217,6.399813 -3.46813,11.829199 -3.21429,12.065302 0.25385,0.236103 6.82512,3.820095 14.60283,7.96443 l 14.14129,7.535151 8.71586,-9.435108 c 8.23632,-8.916025 15.3622,-13.90402 19.86332,-13.90402 1.78522,0 18.13823,18.020332 18.13823,19.987568 0,2.654106 -10.51563,12.705932 -18.94374,18.108223 -9.10246,5.834529 -9.82127,6.652683 -8.93776,10.1729 1.57242,6.264976 9.4061,25.907756 10.63515,26.667346 0.62578,0.38675 6.55497,-0.0216 13.17597,-0.90751 9.99681,-1.33756 13.11893,-1.25044 18.41143,0.51373 l 6.37324,2.12441 0,13.38956 0,13.38956 -6.42857,1.89426 c -5.17857,1.52593 -8.87329,1.5662 -19.00145,0.20712 -7.4181,-0.99542 -13.05582,-1.16059 -13.75084,-0.40286 -1.95698,2.1336 -10.3766,28.97456 -9.52241,30.35665 0.43701,0.70711 5.19671,3.90091 10.5771,7.09734 6.2538,3.71532 11.1796,7.92283 13.65558,11.66429 l 3.87307,5.8526 -2.86288,3.63956 c -4.38864,5.57927 -12.42466,14.31215 -14.15297,15.38031 -3.29983,2.0394 -12.69305,-3.81343 -21.67235,-13.50386 l -9.28571,-10.02111 -13.57143,8.13113 c -7.46428,4.47211 -13.79851,8.31193 -14.07606,8.53291 -0.27755,0.221 1.20602,5.53844 3.29682,11.81654 2.55534,7.673 3.65733,13.67335 3.36178,18.3049 l -0.43968,6.89015 -7.85714,1.64795 c -4.32143,0.90639 -10.84092,1.70996 -14.48775,1.78572 -6.45052,0.134 -6.69301,-0.0183 -8.92857,-5.60544 z m 19.61036,-73.3652 c 34.05446,-16.66129 35.92066,-67.13028 3.17384,-85.832465 -12.58073,-7.185038 -31.24883,-8.116887 -44.61884,-2.227222 -8.23256,3.62655 -18.548016,13.504017 -23.09118,22.110727 -3.416776,6.47285 -3.800721,8.7155 -3.800721,22.20021 0,12.90344 0.457912,15.85761 3.27616,21.1358 6.984552,13.08112 18.824081,22.45795 32.789441,25.96905 9.31337,2.34151 23.67947,0.84748 32.2713,-3.3561 z"
       id="path2985"
       inkscape:connector-curvature="0"
       transform="translate(175.56216,278.4604)" />
  </g>
</svg>
