<?xml version="1.0" encoding="UTF-8" standalone="no"?>
<svg
   xmlns:dc="http://purl.org/dc/elements/1.1/"
   xmlns:cc="http://creativecommons.org/ns#"
   xmlns:rdf="http://www.w3.org/1999/02/22-rdf-syntax-ns#"
   xmlns:svg="http://www.w3.org/2000/svg"
   xmlns="http://www.w3.org/2000/svg"
   xmlns:sodipodi="http://sodipodi.sourceforge.net/DTD/sodipodi-0.dtd"
   xmlns:inkscape="http://www.inkscape.org/namespaces/inkscape"
   viewBox="0 0 1000 1000"
   preserveAspectRatio="xMinYMin meet"
   width="100%"
   height="100%"
   style="width: 512px; height: 512px;"
   id="svg2"
   version="1.1"
   inkscape:version="0.92.3 (2405546, 2018-03-11)"
   sodipodi:docname="group_white.svg">
  <metadata
     id="metadata10">
    <rdf:RDF>
      <cc:Work
         rdf:about="">
        <dc:format>image/svg+xml</dc:format>
        <dc:type
           rdf:resource="http://purl.org/dc/dcmitype/StillImage" />
        <dc:title></dc:title>
      </cc:Work>
    </rdf:RDF>
  </metadata>
  <defs
     id="defs8" />
  <sodipodi:namedview
     pagecolor="#ffffff"
     bordercolor="#666666"
     borderopacity="1"
     objecttolerance="10"
     gridtolerance="10"
     guidetolerance="10"
     inkscape:pageopacity="0"
     inkscape:pageshadow="2"
     inkscape:window-width="1193"
     inkscape:window-height="888"
     id="namedview6"
     showgrid="false"
     inkscape:zoom="0.236"
     inkscape:cx="759.09997"
     inkscape:cy="158.14697"
     inkscape:window-x="676"
     inkscape:window-y="85"
     inkscape:window-maximized="0"
     inkscape:current-layer="svg2" />
  <path
     d="m 150.16013,671.7393 c 0,15.54842 6.36071,23.32263 19.08214,23.32263 h 78.44883 v -99.65121 c 0,-12.72143 3.18053,-24.38256 9.54161,-34.98339 6.36107,-10.60083 15.19558,-18.72858 26.50351,-24.38328 l 80.56906,-38.1643 c 7.06746,-4.24047 12.72143,-9.18769 16.96191,-14.84166 -8.48095,-12.72143 -15.54842,-27.5631 -21.20239,-44.52501 -5.65397,-16.96191 -8.48095,-34.63056 -8.48095,-53.00596 0,-11.30794 1.41349,-22.61588 4.24048,-33.92381 2.82698,-11.30794 6.36072,-21.90913 10.60119,-31.80358 -14.13492,-9.89445 -28.97659,-14.84167 -44.525,-14.84167 -26.85636,1.4135 -48.05874,12.36787 -63.60716,32.86315 -15.5484,20.49528 -23.32262,43.46471 -23.32262,68.9083 1.4135,43.81825 16.96191,74.91508 46.64524,93.29048 l -120.85357,55.1262 c -7.06747,4.24048 -10.6012,11.30794 -10.6012,21.20239 v 95.41072 z m 133.57501,23.32263 c -1.41349,29.68333 7.06746,45.23174 25.44286,46.64524 h 379.52267 c 8.48095,-2.82698 14.48848,-7.06745 18.02257,-12.72143 3.53408,-5.65397 5.30114,-10.24764 5.30114,-13.78101 V 595.4118 c 0,-12.72142 -4.94723,-21.20238 -14.84167,-25.44285 l -101.77145,-50.88573 -44.525,-21.20237 c 26.85635,-15.54842 44.525,-42.40477 53.00596,-80.56907 5.65397,-21.20237 5.65397,-43.11151 0,-65.72739 -7.06746,-25.44286 -20.14208,-46.9988 -39.22387,-64.66781 -19.08178,-17.66901 -41.34447,-27.21027 -66.78805,-28.62376 -25.44286,1.41349 -47.35199,10.95475 -65.72739,28.62376 -18.3754,17.66901 -31.09683,38.51821 -38.16429,62.54758 -8.48095,32.51031 -5.65397,65.72739 8.48095,99.6512 11.30794,21.20238 26.14961,38.16429 44.52501,50.88572 l -40.28453,19.08214 -106.01192,48.76549 c -11.30794,5.65397 -16.96191,14.84166 -16.96191,27.56309 v 99.65121 z M 616.61256,483.03809 c 5.65397,5.65397 12.72143,11.30794 21.20239,16.9619 8.48095,5.65397 16.25516,9.89445 23.32262,12.72144 7.06746,2.82698 16.25516,6.71426 27.5631,11.66185 11.30794,4.94758 19.78889,8.83487 25.44286,11.66185 11.30794,5.65397 20.14245,13.78174 26.50352,24.38329 6.36107,10.60154 9.54162,22.26268 9.54162,34.98338 v 99.65121 h 80.56905 c 12.72143,-1.41349 19.08215,-9.1877 19.08215,-23.32262 v -95.41073 c 0,-9.89445 -3.53373,-16.96191 -10.60119,-21.20238 L 720.50533,497.88084 c 29.68334,-21.20239 44.52501,-51.59246 44.52501,-91.17025 0,-26.85635 -8.48096,-50.53217 -25.44286,-71.02744 -16.96191,-20.49528 -37.45755,-30.74328 -61.48692,-30.744 -15.54841,0 -31.09683,4.94722 -46.64524,14.84167 8.48095,21.20238 12.72143,43.11151 12.72143,65.72739 0,35.33731 -9.1877,67.84762 -27.5631,97.53096 z"
     id="path4"
     inkscape:connector-curvature="0"
     sodipodi:nodetypes="cscsscccsssccscccscccccssscccccscscccccscccssssssccssccssccscc"
     style="fill:#ffffff;fill-opacity:1;stroke-width:1.08563149" />
</svg>
