<svg xmlns="http://www.w3.org/2000/svg" viewBox="0 0 44000 44000" preserveAspectRatio="xMinYMin meet" width="44" height="44"><path d="M0 32799.963c0 977.813 400 1466.689 1199.998 1466.689h4933.326v-6266.645c0-800.034 200.01-1533.347 600.033-2200.001 400.022-666.59 955.588-1177.727 1666.698-1533.347l5066.659-2399.978c444.443-266.699 799.998-577.796 1066.665-933.353-533.332-799.971-977.777-1733.324-1333.332-2799.995-355.555-1066.671-533.332-2177.739-533.332-3333.331 0-711.114 88.888-1422.227 266.666-2133.341 177.778-711.114 400-1377.768 666.666-1999.961-888.888-622.256-1822.219-933.352-2799.995-933.352-1688.887 88.92-3022.218 777.772-3999.995 2066.619-977.775 1288.847-1466.664 2733.336-1466.664 4333.405 88.889 2755.535 1066.665 4711.099 2933.328 5866.627L666.734 25466.648C222.29 25733.347.068 26177.762.068 26800.018v5999.945zm8399.987 1466.689c-88.889 1866.642 444.443 2844.455 1599.997 2933.313h23866.63c533.333-177.778 911.122-444.415 1133.366-799.972 222.244-355.557 333.367-644.455 333.367-866.63V28000.07c0-800.034-311.111-1333.37-933.332-1600.006l-6399.991-3200.013-2799.995-1333.307c1688.886-977.813 2799.995-2666.677 3333.328-5066.655 355.555-1333.37 355.555-2711.138 0-4133.365-444.443-1599.944-1266.653-2955.512-2466.629-4066.644-1199.975-1111.13-2599.984-1711.188-4200.027-1800.045-1599.998 88.857-2977.773 688.914-4133.327 1800.045-1155.554 1111.132-1955.553 2422.24-2399.996 3933.325-533.333 2044.421-355.555 4133.366 533.332 6266.645 711.11 1333.37 1644.442 2400.041 2799.996 3200.012l-2533.33 1199.989-6666.656 3066.695c-711.11 355.558-1066.665 933.291-1066.665 1733.324v6266.645zm20933.301-13333.324c355.555 355.557 799.998 711.114 1333.331 1066.671 533.333 355.557 1022.221 622.194 1466.665 799.972 444.443 177.779 1022.22 422.279 1733.33 733.376 711.11 311.159 1244.443 555.597 1599.998 733.375 711.11 355.557 1266.676 866.694 1666.698 1533.347 400.022 666.717 600.033 1400.029 600.033 2200.001v6266.644h5066.659C43600 34177.857 44000 33688.919 44000 32800.026v-5999.945c0-622.256-222.222-1066.671-666.665-1333.37l-7466.656-3599.967c1866.664-1333.37 2799.996-3244.473 2799.996-5733.309 0-1688.927-533.333-3177.814-1599.997-4466.66-1066.665-1288.847-2355.552-1933.302-3866.661-1933.365-977.776 0-1955.553 311.097-2933.329 933.353 533.332 1333.307 799.999 2711.074 799.999 4133.302 0 2222.263-577.777 4266.684-1733.331 6133.326z" fill="#fff"/></svg>