<?xml version="1.0" encoding="UTF-8" standalone="no"?>
<svg
   xmlns:dc="http://purl.org/dc/elements/1.1/"
   xmlns:cc="http://creativecommons.org/ns#"
   xmlns:rdf="http://www.w3.org/1999/02/22-rdf-syntax-ns#"
   xmlns:svg="http://www.w3.org/2000/svg"
   xmlns="http://www.w3.org/2000/svg"
   xmlns:sodipodi="http://sodipodi.sourceforge.net/DTD/sodipodi-0.dtd"
   xmlns:inkscape="http://www.inkscape.org/namespaces/inkscape"
   viewBox="0 0 44000 44000"
   preserveAspectRatio="xMinYMin meet"
   width="44"
   height="44"
   id="svg2"
   version="1.1"
   inkscape:version="0.92.4 (5da689c313, 2019-01-14)"
   sodipodi:docname="group_black.svg">
  <metadata
     id="metadata10">
    <rdf:RDF>
      <cc:Work
         rdf:about="">
        <dc:format>image/svg+xml</dc:format>
        <dc:type
           rdf:resource="http://purl.org/dc/dcmitype/StillImage" />
        <dc:title></dc:title>
      </cc:Work>
    </rdf:RDF>
  </metadata>
  <defs
     id="defs8" />
  <sodipodi:namedview
     pagecolor="#ffffff"
     bordercolor="#666666"
     borderopacity="1"
     objecttolerance="10"
     gridtolerance="10"
     guidetolerance="10"
     inkscape:pageopacity="0"
     inkscape:pageshadow="2"
     inkscape:window-width="1193"
     inkscape:window-height="888"
     id="namedview6"
     showgrid="false"
     inkscape:zoom="7.552"
     inkscape:cx="8.3996235"
     inkscape:cy="17.228088"
     inkscape:window-x="1246"
     inkscape:window-y="85"
     inkscape:window-maximized="0"
     inkscape:current-layer="svg2"
     units="px" />
  <path
     d="m 6.4999999e-5,32799.963 c 0,977.813 399.999055000001,1466.689 1199.997735000001,1466.689 h 4933.3264 v -6266.645 c 0,-800.034 200.0106,-1533.347 600.0329,-2200.001 400.0217,-666.59 955.5879,-1177.727 1666.6974,-1533.347 l 5066.6595,-2399.978 c 444.443,-266.699 799.998,-577.796 1066.665,-933.353 -533.332,-799.971 -977.777,-1733.324 -1333.332,-2799.995 -355.555,-1066.671 -533.332,-2177.739 -533.332,-3333.331 0,-711.114 88.888,-1422.227 266.666,-2133.341 177.778,-711.114 400,-1377.768 666.666,-1999.961 -888.888,-622.256 -1822.219,-933.3525 -2799.995,-933.3525 -1688.8873,88.921 -3022.2184,777.7725 -3999.995,2066.6195 -977.7753,1288.847 -1466.6642,2733.336 -1466.6642,4333.405 88.8892,2755.535 1066.6652,4711.099 2933.3285,5866.627 L 666.73413,25466.648 C 222.28982,25733.347 0.067985,26177.762 0.067985,26800.018 v 5999.945 z M 8399.9866,34266.652 c -88.8886,1866.642 444.4437,2844.455 1599.9973,2933.313 H 33866.614 c 533.333,-177.778 911.122,-444.415 1133.366,-799.972 222.244,-355.557 333.367,-644.455 333.367,-866.63 V 28000.07 c 0,-800.034 -311.111,-1333.37 -933.332,-1600.006 l -6399.991,-3200.013 -2799.995,-1333.307 c 1688.886,-977.813 2799.995,-2666.677 3333.328,-5066.655 355.555,-1333.37 355.555,-2711.138 0,-4133.365 -444.443,-1599.944 -1266.653,-2955.5125 -2466.629,-4066.6435 -1199.975,-1111.131 -2599.984,-1711.188 -4200.027,-1800.046 -1599.998,88.858 -2977.773,688.915 -4133.327,1800.046 -1155.554,1111.131 -1955.553,2422.2395 -2399.996,3933.3245 -533.333,2044.421 -355.555,4133.366 533.332,6266.645 711.11,1333.37 1644.442,2400.041 2799.996,3200.012 l -2533.33,1199.989 -6666.6562,3066.695 c -711.1102,355.558 -1066.6653,933.291 -1066.6653,1733.324 v 6266.645 z M 29333.288,20933.328 c 355.555,355.557 799.998,711.114 1333.331,1066.671 533.333,355.557 1022.221,622.194 1466.665,799.972 444.443,177.779 1022.22,422.279 1733.33,733.376 711.11,311.159 1244.443,555.597 1599.998,733.375 711.11,355.557 1266.676,866.694 1666.698,1533.347 400.022,666.717 600.033,1400.029 600.033,2200.001 v 6266.644 h 5066.659 C 43600,34177.857 44000,33688.919 44000,32800.026 v -5999.945 c 0,-622.256 -222.222,-1066.671 -666.665,-1333.37 l -7466.656,-3599.967 c 1866.664,-1333.37 2799.996,-3244.473 2799.996,-5733.309 0,-1688.927 -533.333,-3177.814 -1599.997,-4466.66 -1066.665,-1288.847 -2355.552,-1933.3015 -3866.661,-1933.3645 -977.776,0 -1955.553,311.0965 -2933.329,933.3525 533.332,1333.307 799.999,2711.074 799.999,4133.302 0,2222.263 -577.777,4266.684 -1733.331,6133.326 z"
     id="path4"
     inkscape:connector-curvature="0"
     sodipodi:nodetypes="cscsscccsssccscccscccccssscccccscscccccscccssssssccssccssccscc"
     style="fill:#000000;fill-opacity:1;stroke-width:68.27092743" />
</svg>
