<?xml version="1.0" encoding="UTF-8" standalone="no"?>
<svg
   xmlns:dc="http://purl.org/dc/elements/1.1/"
   xmlns:cc="http://creativecommons.org/ns#"
   xmlns:rdf="http://www.w3.org/1999/02/22-rdf-syntax-ns#"
   xmlns:svg="http://www.w3.org/2000/svg"
   xmlns="http://www.w3.org/2000/svg"
   xmlns:sodipodi="http://sodipodi.sourceforge.net/DTD/sodipodi-0.dtd"
   xmlns:inkscape="http://www.inkscape.org/namespaces/inkscape"
   viewBox="0 0 1000 1000"
   preserveAspectRatio="xMinYMin meet"
   width="100%"
   height="100%"
   style="width: 512px; height: 512px;"
   id="svg2"
   version="1.1"
   inkscape:version="0.48.4 r9939"
   sodipodi:docname="groupcontact_black.svg">
  <metadata
     id="metadata10">
    <rdf:RDF>
      <cc:Work
         rdf:about="">
        <dc:format>image/svg+xml</dc:format>
        <dc:type
           rdf:resource="http://purl.org/dc/dcmitype/StillImage" />
        <dc:title></dc:title>
      </cc:Work>
    </rdf:RDF>
  </metadata>
  <defs
     id="defs8" />
  <sodipodi:namedview
     pagecolor="#ffffff"
     bordercolor="#666666"
     borderopacity="1"
     objecttolerance="10"
     gridtolerance="10"
     guidetolerance="10"
     inkscape:pageopacity="0"
     inkscape:pageshadow="2"
     inkscape:window-width="1327"
     inkscape:window-height="744"
     id="namedview6"
     showgrid="false"
     inkscape:zoom="0.472"
     inkscape:cx="512.26184"
     inkscape:cy="375.06939"
     inkscape:window-x="39"
     inkscape:window-y="24"
     inkscape:window-maximized="1"
     inkscape:current-layer="svg2" />
  <path
     style="fill:#ffffff;stroke-width:1.55090213000000010;fill-opacity:1"
     d="M 497.6875 172.46875 C 461.34056 174.48802 430.03182 188.1023 403.78125 213.34375 C 377.53068 238.58519 359.37763 268.39108 349.28125 302.71875 C 337.16561 349.16206 341.18226 396.59991 361.375 445.0625 C 377.5292 475.35162 398.74943 499.57652 425 517.75 L 367.4375 545.03125 L 216 614.6875 C 199.8458 622.7646 191.78125 635.88903 191.78125 654.0625 L 191.78125 796.40625 C 189.76198 838.81101 201.87442 861.04322 228.125 863.0625 L 770.28125 863.0625 C 782.3969 859.02395 790.98255 852.9521 796.03125 844.875 C 801.07994 836.7979 803.625 830.23518 803.625 825.1875 L 803.625 654.0625 C 803.625 635.88903 796.54117 623.77657 782.40625 617.71875 L 637.03125 545.03125 L 573.40625 514.71875 C 611.77247 492.50673 637.00935 454.14541 649.125 399.625 C 657.2021 369.33588 657.2021 338.02714 649.125 305.71875 C 639.02863 269.3718 620.35345 238.58519 593.09375 213.34375 C 565.83406 188.1023 534.03548 174.48802 497.6875 172.46875 z M 246.28125 239.09375 C 207.91503 241.11303 177.64952 256.75228 155.4375 286.03125 C 133.22549 315.31022 122.09375 348.12077 122.09375 384.46875 C 124.11303 447.06626 146.34524 491.49943 188.75 517.75 L 16.09375 596.5 C 5.9973761 602.55782 0.9375 612.64632 0.9375 626.78125 L 0.9375 763.09375 C 0.9375 785.30578 10.045278 796.40625 28.21875 796.40625 L 140.28125 796.40625 L 140.28125 654.0625 C 140.28125 635.88903 144.819 619.2378 153.90625 604.09375 C 162.99349 588.9497 175.62706 577.32814 191.78125 569.25 L 306.875 514.71875 C 316.97137 508.66093 325.03593 501.60835 331.09375 493.53125 C 318.97811 475.35778 308.8896 454.13754 300.8125 429.90625 C 292.7354 405.67495 288.6875 380.43807 288.6875 354.1875 C 288.6875 338.0333 290.71145 321.87294 294.75 305.71875 C 298.78855 289.56455 303.84843 274.44742 309.90625 260.3125 C 289.7135 246.17757 268.49327 239.09375 246.28125 239.09375 z M 755.15625 239.09375 C 732.94423 239.09375 710.71202 246.17758 688.5 260.3125 C 700.61564 290.60162 706.6875 321.8791 706.6875 354.1875 C 706.6875 404.66937 693.56307 451.12648 667.3125 493.53125 C 675.3896 501.60835 685.4781 509.67291 697.59375 517.75 C 709.7094 525.8271 720.80988 531.89895 730.90625 535.9375 C 741.00263 539.97605 754.12705 545.52577 770.28125 552.59375 C 786.43545 559.66172 798.5479 565.21145 806.625 569.25 C 822.7792 577.3271 835.41275 588.94868 844.5 604.09375 C 853.58724 619.23882 858.125 635.89007 858.125 654.0625 L 858.125 796.40625 L 973.21875 796.40625 C 991.39222 794.38697 1000.5 783.28649 1000.5 763.09375 L 1000.5 626.78125 C 1000.5 612.64632 995.44012 602.55782 985.34375 596.5 L 815.71875 514.71875 C 858.12352 484.42963 879.34375 441.00844 879.34375 384.46875 C 879.34375 346.10253 867.23129 312.31022 843 283.03125 C 818.7687 253.75228 789.48392 239.09479 755.15625 239.09375 z M 474.625 584.875 L 523.78125 584.875 L 523.78125 668.78125 L 609.25 668.78125 L 609.25 718.375 L 523.78125 718.375 L 523.78125 802.46875 L 474.625 802.46875 L 474.625 718.375 L 390.75 718.375 L 390.75 668.78125 L 474.625 668.78125 L 474.625 584.875 z "
     id="path4" />
</svg>
