<?xml version="1.0" encoding="UTF-8" standalone="no"?>
<svg
   xmlns:dc="http://purl.org/dc/elements/1.1/"
   xmlns:cc="http://creativecommons.org/ns#"
   xmlns:rdf="http://www.w3.org/1999/02/22-rdf-syntax-ns#"
   xmlns:svg="http://www.w3.org/2000/svg"
   xmlns="http://www.w3.org/2000/svg"
   xmlns:sodipodi="http://sodipodi.sourceforge.net/DTD/sodipodi-0.dtd"
   xmlns:inkscape="http://www.inkscape.org/namespaces/inkscape"
   viewBox="0 0 1000 1000"
   preserveAspectRatio="xMinYMin meet"
   width="100%"
   height="100%"
   style="width: 512px; height: 512px;"
   id="svg2"
   version="1.1"
   inkscape:version="0.48.4 r9939"
   sodipodi:docname="group_grey.svg">
  <metadata
     id="metadata10">
    <rdf:RDF>
      <cc:Work
         rdf:about="">
        <dc:format>image/svg+xml</dc:format>
        <dc:type
           rdf:resource="http://purl.org/dc/dcmitype/StillImage" />
        <dc:title></dc:title>
      </cc:Work>
    </rdf:RDF>
  </metadata>
  <defs
     id="defs8" />
  <sodipodi:namedview
     pagecolor="#ffffff"
     bordercolor="#666666"
     borderopacity="1"
     objecttolerance="10"
     gridtolerance="10"
     guidetolerance="10"
     inkscape:pageopacity="0"
     inkscape:pageshadow="2"
     inkscape:window-width="980"
     inkscape:window-height="716"
     id="namedview6"
     showgrid="false"
     inkscape:zoom="0.6675088"
     inkscape:cx="512.17823"
     inkscape:cy="480.21903"
     inkscape:window-x="386"
     inkscape:window-y="24"
     inkscape:window-maximized="0"
     inkscape:current-layer="svg2" />
  <path
     d="m 0.94630456,763.0963 c 0,22.21203 9.08673644,33.31804 27.26020844,33.31804 l 112.069747,0 0,-142.35887 c 0,-18.17347 4.54363,-34.83222 13.63088,-49.97627 9.08724,-15.14405 21.70797,-26.75512 37.86216,-34.83326 l 115.09866,-54.52042 c 10.09637,-6.05782 18.17347,-13.12528 24.23129,-21.20238 -12.11564,-18.17347 -22.21202,-39.37586 -30.28912,-63.60715 -8.0771,-24.2313 -12.11564,-49.47223 -12.11564,-75.7228 0,-16.1542 2.01927,-32.3084 6.05782,-48.46259 4.03855,-16.1542 9.08674,-31.29876 15.14456,-45.43368 -20.19275,-14.13493 -41.39513,-21.20239 -63.60715,-21.20239 -38.36622,2.01928 -68.65534,17.66839 -90.86736,46.94736 -22.21201,29.27897 -33.31803,62.09244 -33.31803,98.44042 2.01928,62.59751 24.2313,107.02155 66.63606,133.27212 L 16.092416,596.50615 C 5.9960421,602.56397 0.94785546,612.66034 0.94785546,626.79527 l 0,136.30103 z M 191.76775,796.41434 c -2.01927,42.40476 10.09637,64.61678 36.34695,66.63606 l 542.17524,0 c 12.11565,-4.03855 20.69783,-10.09637 25.74653,-18.17347 5.04869,-8.0771 7.57305,-14.63948 7.57305,-19.68716 l 0,-171.13275 c 0,-18.17347 -7.06746,-30.28912 -21.20238,-36.34694 L 637.01936,545.01619 573.41221,514.72707 c 38.36622,-22.21202 63.60715,-60.57824 75.7228,-115.09865 8.0771,-30.28912 8.0771,-61.58788 0,-93.89627 -10.09637,-36.34695 -28.7744,-67.14115 -56.0341,-92.38259 -27.25969,-25.24145 -59.06352,-38.87182 -95.4115,-40.89109 -36.34694,2.01927 -67.6457,15.64964 -93.89627,40.89109 -26.25057,25.24144 -44.42404,55.02601 -54.52042,89.35368 -12.11564,46.44331 -8.07709,93.89627 12.11565,142.35886 16.1542,30.28912 37.35658,54.52041 63.60715,72.69389 l -57.54932,27.2602 -151.4456,69.66498 c -16.1542,8.0771 -24.2313,21.20238 -24.2313,39.37585 l 0,142.35887 z m 475.53918,-302.8912 c 8.0771,8.0771 18.17347,16.1542 30.28912,24.23129 12.11565,8.0771 23.22166,14.13493 33.31803,18.17348 10.09638,4.03855 23.22166,9.59181 39.37586,16.65979 16.1542,7.06797 28.26984,12.62124 36.34694,16.65979 16.1542,8.0771 28.77493,19.68819 37.86218,34.83326 9.08724,15.14507 13.63088,31.80384 13.63088,49.97627 l 0,142.35887 115.09865,0 c 18.17347,-2.01928 27.26021,-13.12529 27.26021,-33.31803 l 0,-136.30104 c 0,-14.13493 -5.04819,-24.2313 -15.14456,-30.28912 L 815.72517,514.72707 c 42.40477,-30.28912 63.60715,-73.70352 63.60715,-130.24321 0,-38.36622 -12.11565,-72.18881 -36.34694,-101.46778 -24.2313,-29.27897 -53.51078,-43.91896 -87.83845,-43.92 -22.21202,0 -44.42404,7.06747 -66.63606,21.20239 12.11564,30.28912 18.17347,61.58787 18.17347,93.89627 0,50.48187 -13.12529,96.92518 -39.37586,139.32995 z"
     id="path4"
     inkscape:connector-curvature="0"
     sodipodi:nodetypes="cscsscccsssccscccscccccssscccccscscccccscccssssssccssccssccscc"
     style="fill:#000000;stroke-width:1.55090213000000010;fill-opacity:1" />
</svg>
