<svg xmlns="http://www.w3.org/2000/svg" version="1.0" width="44" height="44"><path d="M3.727 31.338a46.716 46.716 0 01-1.437-1.384 12.013 12.013 0 01-2.036-3.791 12.946 12.946 0 01.253-6.134 4.831 4.831 0 012.421-2.927 41.15 41.15 0 0137.811-.106c1.344.705 2.368 1.942 2.754 3.406.28 1.09.479 2.182.506 3.26.04 2.527-.732 4.949-2.142 6.997-.16.253-.48.413-.799.413a.896.896 0 01-.479-.16l-8.528-5.109a.946.946 0 01-.346-1.277l1.504-2.74c.093-.16.12-.32.12-.48 0-.545-.44-.957-.985-.957H11.895c-.545 0-.984.412-.984.958 0 .186.066.372.16.532l1.05 1.543a1 1 0 01-.132 1.237L5.03 31.3c-.186.159-.412.252-.665.252-.226 0-.452-.093-.638-.213z"/></svg>