<svg xmlns="http://www.w3.org/2000/svg" viewBox="0 0 64 64" height="68.267" width="68.267"><path d="M44.303 41.063c.572 1.616.932 2.632 1.995 4.554.164.152.265.467-2.085-.628-1.274-.592-3.065-1.55-4.93-2.435-5.038 1.159-9.127 1.045-13.077.812-5.514-.326-6.313-1.672-9.238-3.948-2.14-1.68-4.728-4.522-4.375-9.017 0-1.254.279-2.833.838-4.737-.425-2.871-1.065-3.697-1.679-3.663-.896.05-1.731 1.932-1.731 1.932-.249 4.032-.668 6.55-.28 10.338.517 5.06 3.286 6.767 4.485 7.907 1.198 1.142 5.357 3.614 9.78 4.134 3.963.466 10.86.046 15.234-.855 3.135.78 7.28 3.159 9.656 4.265 2.347 1.092 2.249.78 2.084.63-1.594-2.884-1.546-3.554-3.136-7.638a9.497 9.497 0 001.168-1.06c2.392-2.537 3.5-4.532 2.805-4.717a7.026 7.026 0 00-1.95-.278c-1.605 1.635-2.563 3.51-5.564 4.404z" fill="#fff"/><path d="M52.314 30.194l-.093.001c-2.892.074-7.1.699-9.882 1.465-2.78.766-4.135 1.674-6.864 2.312-2.73.637-7.887.639-10.61.43-2.723-.209-2.616-1.022-5.503-2.808-1.54-.995-3.389 1.753-1.81 2.684 3.238 2.004 6.433 2.92 9.537 3.166 3.104.245 6.116-.178 8.997-.851 2.88-.673 6.752-1.964 9.448-2.705 2.695-.744 4.22-.938 6.755-1.001 1.795.016 1.82-2.675.025-2.693zM53.306 22.378c-1.42.034-3.208.19-4.584.46-1.372.272-2.333.657-3.676 1.057-1.345.398-2.481.638-3.813 1.055-1.332.42-2.86 1.02-4.197 1.35-2.672.66-5.363 1.275-8.132.847-2.695-.415-5.54-1.42-8.87-2.985-1.555-.981-2.102 1.137-1.383 2.31 2.467 2.089 3.414 2.16 6.834 2.424 3.424.262 9.323.718 12.197.018 2.842-.693 4.741-1.822 7.341-2.595 2.598-.773 5.89-1.19 8.35-1.25.91-.011.877-.082.86-.762-.017-.677-.017-1.964-.927-1.93zM46.04 16.505a22.1 22.1 0 00-.093.007c-2.648.279-4.71.826-6.486 1.394-1.777.567-3.268 1.151-4.778 1.498-1.51.347-5.622.242-7.694-.02-2.073-.265-2.108-.687-5.551-2.064-.842-.354-1.693.976-1.946 1.607-.25.632.091.568.947.892 3.59 1.434 6.424 2.187 8.803 2.481 2.376.295 4.294.13 6.043-.274 1.751-.4 3.152-1.38 4.844-1.924 1.692-.547 3.674-.659 6.099-.912 1.85-.151 3.518-3.25-.188-2.685z" fill="#fff" fill-rule="evenodd"/></svg>