<?xml version="1.0" encoding="UTF-8" standalone="no"?>
<svg
   xmlns:dc="http://purl.org/dc/elements/1.1/"
   xmlns:cc="http://creativecommons.org/ns#"
   xmlns:rdf="http://www.w3.org/1999/02/22-rdf-syntax-ns#"
   xmlns:svg="http://www.w3.org/2000/svg"
   xmlns="http://www.w3.org/2000/svg"
   xmlns:sodipodi="http://sodipodi.sourceforge.net/DTD/sodipodi-0.dtd"
   xmlns:inkscape="http://www.inkscape.org/namespaces/inkscape"
   xml:space="preserve"
   viewBox="0 0 25 25"
   height="25"
   width="25"
   y="0px"
   x="0px"
   id="Capa_1"
   version="1.1"
   sodipodi:docname="location_icon.svg"
   inkscape:version="0.92.3 (2405546, 2018-03-11)"><metadata
   id="metadata23"><rdf:RDF><cc:Work
       rdf:about=""><dc:format>image/svg+xml</dc:format><dc:type
         rdf:resource="http://purl.org/dc/dcmitype/StillImage" /><dc:title /></cc:Work></rdf:RDF></metadata><sodipodi:namedview
   pagecolor="#ffffff"
   bordercolor="#666666"
   borderopacity="1"
   objecttolerance="10"
   gridtolerance="10"
   guidetolerance="10"
   inkscape:pageopacity="0"
   inkscape:pageshadow="2"
   inkscape:window-width="1260"
   inkscape:window-height="726"
   id="namedview21"
   showgrid="false"
   fit-margin-top="0"
   fit-margin-left="0"
   fit-margin-right="0"
   fit-margin-bottom="0"
   inkscape:zoom="5.6568542"
   inkscape:cx="15.37651"
   inkscape:cy="8.4590705"
   inkscape:window-x="1491"
   inkscape:window-y="321"
   inkscape:window-maximized="0"
   inkscape:current-layer="Capa_1" />
   <defs
   id="defs39" />
<g
   style="stroke-width:21.33336067;fill:#88aa00"
   transform="matrix(0.04687494,0,0,0.04687494,-0.01983893,0)"
   id="g4">
	<path
   style="fill:#88aa00;stroke-width:21.33336067"
   id="path2"
   d="M 266.666,0 C 174.618,0 100,74.619 100,166.667 c 0,166.667 166.667,366.667 166.667,366.667 0,0 181.35626,-281.35588 166.667,-366.667 C 433.333,74.619 358.713,0 266.666,0 Z m 0,266.667 c -55.229,0 -100,-44.771 -100,-100 0,-55.229 44.771,-100 100,-100 55.229,0 100,44.771 100,100 0,55.229 -44.771,100 -100,100 z"
   inkscape:connector-curvature="0" />
</g>
<g
   transform="translate(-100,-392.92102)"
   id="g6">
</g>
<g
   transform="translate(-100,-392.92102)"
   id="g8">
</g>
<g
   transform="translate(-100,-392.92102)"
   id="g10">
</g>
<g
   transform="translate(-100,-392.92102)"
   id="g12">
</g>
<g
   transform="translate(-100,-392.92102)"
   id="g14">
</g>
<g
   transform="translate(-100,-392.92102)"
   id="g16">
</g>
<g
   transform="translate(-100,-392.92102)"
   id="g18">
</g>
<g
   transform="translate(-100,-392.92102)"
   id="g20">
</g>
<g
   transform="translate(-100,-392.92102)"
   id="g22">
</g>
<g
   transform="translate(-100,-392.92102)"
   id="g24">
</g>
<g
   transform="translate(-100,-392.92102)"
   id="g26">
</g>
<g
   transform="translate(-100,-392.92102)"
   id="g28">
</g>
<g
   transform="translate(-100,-392.92102)"
   id="g30">
</g>
<g
   transform="translate(-100,-392.92102)"
   id="g32">
</g>
<g
   transform="translate(-100,-392.92102)"
   id="g34">
</g>
</svg>