<?xml version="1.0" encoding="UTF-8" standalone="no"?>
<svg
   xmlns:dc="http://purl.org/dc/elements/1.1/"
   xmlns:cc="http://creativecommons.org/ns#"
   xmlns:rdf="http://www.w3.org/1999/02/22-rdf-syntax-ns#"
   xmlns:svg="http://www.w3.org/2000/svg"
   xmlns="http://www.w3.org/2000/svg"
   xmlns:sodipodi="http://sodipodi.sourceforge.net/DTD/sodipodi-0.dtd"
   xmlns:inkscape="http://www.inkscape.org/namespaces/inkscape"
   aria-hidden="true"
   focusable="false"
   data-prefix="fas"
   data-icon="microphone"
   class="svg-inline--fa fa-microphone fa-w-11"
   role="img"
   viewBox="0 0 44 44"
   version="1.1"
   id="svg4"
   sodipodi:docname="microphone_solid_white.svg"
   width="44"
   height="44"
   inkscape:version="0.92.4 (5da689c313, 2019-01-14)">
  <metadata
     id="metadata10">
    <rdf:RDF>
      <cc:Work
         rdf:about="">
        <dc:format>image/svg+xml</dc:format>
        <dc:type
           rdf:resource="http://purl.org/dc/dcmitype/StillImage" />
        <dc:title></dc:title>
      </cc:Work>
    </rdf:RDF>
  </metadata>
  <defs
     id="defs8" />
  <sodipodi:namedview
     pagecolor="#ffffff"
     bordercolor="#666666"
     borderopacity="1"
     objecttolerance="10"
     gridtolerance="10"
     guidetolerance="10"
     inkscape:pageopacity="0"
     inkscape:pageshadow="2"
     inkscape:window-width="1040"
     inkscape:window-height="786"
     id="namedview6"
     showgrid="false"
     inkscape:zoom="5.2149125"
     inkscape:cx="27.040606"
     inkscape:cy="9.3644338"
     inkscape:window-x="100"
     inkscape:window-y="318"
     inkscape:window-maximized="0"
     inkscape:current-layer="svg4" />
  <path
     d="m 22,30.25 c 4.556407,0 8.25,-3.693594 8.25,-8.25 V 8.2500001 C 30.25,3.6935939 26.556407,0 22,0 17.443594,0 13.75,3.6935939 13.75,8.2500001 V 22 c 0,4.556406 3.693594,8.25 8.25,8.25 z M 35.75,16.5 H 34.375 C 33.615313,16.5 33,17.115313 33,17.875 V 22 C 33,28.428125 27.457891,33.586093 20.90086,32.946719 15.186016,32.388984 11,27.25164 11,21.510156 V 17.875 C 11,17.115313 10.384688,16.5 9.625,16.5 H 8.25 c -0.7596875,0 -1.375,0.615313 -1.375,1.375 v 3.45125 c 0,7.703437 5.497421,14.570703 13.0625,15.613985 V 39.875 H 15.125 c -0.759687,0 -1.375,0.615312 -1.375,1.375 v 1.375 c 0,0.759687 0.615313,1.375 1.375,1.375 h 13.75 c 0.759688,0 1.375,-0.615313 1.375,-1.375 V 41.25 c 0,-0.759688 -0.615312,-1.375 -1.375,-1.375 H 24.062501 V 36.972891 C 31.428203,35.962266 37.125,29.639844 37.125,22 v -4.125 c 0,-0.759687 -0.615312,-1.375 -1.375,-1.375 z"
     id="path2"
     inkscape:connector-curvature="0"
     style="fill:#ffffff;stroke-width:0.08593749;fill-opacity:1" />
</svg>
