<svg xmlns="http://www.w3.org/2000/svg" aria-hidden="true" data-prefix="fas" data-icon="microphone" class="svg-inline--fa fa-microphone fa-w-11" width="44" height="44"><g fill="#fff"><path d="M31.767-4.034L6.28 44.714l5.835 3.049L37.602-.981z" style="line-height:normal;font-variant-ligatures:normal;font-variant-position:normal;font-variant-caps:normal;font-variant-numeric:normal;font-variant-alternates:normal;font-feature-settings:normal;text-indent:0;text-align:start;text-decoration-line:none;text-decoration-style:solid;text-decoration-color:#000;text-transform:none;text-orientation:mixed;white-space:normal;shape-padding:0;isolation:auto;mix-blend-mode:normal;solid-color:#000;solid-opacity:1" color="#000" font-weight="400" font-family="sans-serif" overflow="visible" fill-rule="evenodd"/><path d="M22 0a8.25 8.25 0 00-8.25 8.25V22c0 1.063.208 2.076.574 3.01L26.65 1.436A8.211 8.211 0 0022 0zM8.25 16.5c-.76 0-1.375.615-1.375 1.375v3.451a16.21 16.21 0 003.88 10.51l2.089-3.994A11.875 11.875 0 0111 21.51v-3.635c0-.76-.615-1.375-1.375-1.375zm26.125 0c-.76 0-1.375.615-1.375 1.375V22c0 6.035-4.885 10.948-10.908 10.998l-2.154 4.121v2.756h-1.442L16.34 44h12.535c.76 0 1.375-.615 1.375-1.375V41.25c0-.76-.615-1.375-1.375-1.375h-4.813v-2.902C31.428 35.962 37.126 29.64 37.126 22v-4.125c0-.76-.615-1.375-1.375-1.375zm-4.125.896L23.613 30.09c3.784-.75 6.637-4.086 6.637-8.09z"/></g></svg>