<?xml version="1.0" encoding="UTF-8" standalone="no"?>
<svg
   xmlns:dc="http://purl.org/dc/elements/1.1/"
   xmlns:cc="http://creativecommons.org/ns#"
   xmlns:rdf="http://www.w3.org/1999/02/22-rdf-syntax-ns#"
   xmlns:svg="http://www.w3.org/2000/svg"
   xmlns="http://www.w3.org/2000/svg"
   xmlns:sodipodi="http://sodipodi.sourceforge.net/DTD/sodipodi-0.dtd"
   xmlns:inkscape="http://www.inkscape.org/namespaces/inkscape"
   aria-hidden="true"
   focusable="false"
   data-prefix="fas"
   data-icon="microphone"
   class="svg-inline--fa fa-microphone fa-w-11"
   role="img"
   viewBox="0 0 44 44"
   version="1.1"
   id="svg4"
   sodipodi:docname="microphone_disabled_grey.svg"
   width="44"
   height="44"
   inkscape:version="0.92.4 (5da689c313, 2019-01-14)">
  <metadata
     id="metadata10">
    <rdf:RDF>
      <cc:Work
         rdf:about="">
        <dc:format>image/svg+xml</dc:format>
        <dc:type
           rdf:resource="http://purl.org/dc/dcmitype/StillImage" />
        <dc:title></dc:title>
      </cc:Work>
    </rdf:RDF>
  </metadata>
  <defs
     id="defs8" />
  <sodipodi:namedview
     pagecolor="#ffffff"
     bordercolor="#666666"
     borderopacity="1"
     objecttolerance="10"
     gridtolerance="10"
     guidetolerance="10"
     inkscape:pageopacity="0"
     inkscape:pageshadow="2"
     inkscape:window-width="1874"
     inkscape:window-height="1136"
     id="namedview6"
     showgrid="false"
     inkscape:zoom="7.375"
     inkscape:cx="23.226359"
     inkscape:cy="13.649864"
     inkscape:window-x="1246"
     inkscape:window-y="27"
     inkscape:window-maximized="1"
     inkscape:current-layer="svg4" />
  <g
     id="g887"
     style="fill:#999999;fill-opacity:1">
    <path
       inkscape:connector-curvature="0"
       id="path4160-5"
       d="M 31.766616,-4.0341638 6.2796767,44.714325 12.11543,47.762979 37.602369,-0.98122002 Z"
       style="color:#000000;font-style:normal;font-variant:normal;font-weight:normal;font-stretch:normal;font-size:medium;line-height:normal;font-family:sans-serif;font-variant-ligatures:normal;font-variant-position:normal;font-variant-caps:normal;font-variant-numeric:normal;font-variant-alternates:normal;font-feature-settings:normal;text-indent:0;text-align:start;text-decoration:none;text-decoration-line:none;text-decoration-style:solid;text-decoration-color:#000000;letter-spacing:normal;word-spacing:normal;text-transform:none;writing-mode:lr-tb;direction:ltr;text-orientation:mixed;baseline-shift:baseline;text-anchor:start;white-space:normal;shape-padding:0;clip-rule:nonzero;display:inline;overflow:visible;visibility:visible;opacity:1;isolation:auto;mix-blend-mode:normal;color-interpolation:sRGB;color-interpolation-filters:linearRGB;solid-color:#000000;solid-opacity:1;fill:#999999;fill-opacity:1;fill-rule:evenodd;stroke:none;stroke-width:6.58612633;stroke-linecap:butt;stroke-linejoin:miter;stroke-miterlimit:4;stroke-dasharray:none;stroke-dashoffset:0;stroke-opacity:1;color-rendering:auto;image-rendering:auto;shape-rendering:auto;text-rendering:auto;enable-background:accumulate" />
    <path
       sodipodi:nodetypes="sssccssssccssssssscccccssssccssssccsc"
       inkscape:connector-curvature="0"
       id="path2"
       d="M 22,0 C 17.443594,0 13.75,3.6935938 13.75,8.25 V 22 c 0,1.063432 0.207812,2.076321 0.574219,3.009766 L 26.650391,1.4355469 C 25.326243,0.53017387 23.72519,0 22,0 Z M 8.25,16.5 c -0.7596875,0 -1.375,0.615313 -1.375,1.375 v 3.451172 c 0,3.949365 1.4531753,7.67206 3.880859,10.509766 L 12.84375,27.841797 C 11.676827,25.994304 11,23.803666 11,21.509766 V 17.875 C 11,17.115313 10.384688,16.5 9.625,16.5 Z m 26.125,0 C 33.615313,16.5 33,17.115313 33,17.875 V 22 c 0,6.034763 -4.884951,10.948105 -10.908203,10.998047 L 19.9375,37.119141 V 39.875 H 18.496094 L 16.339844,44 H 28.875 c 0.759688,0 1.375,-0.615313 1.375,-1.375 V 41.25 c 0,-0.759688 -0.615312,-1.375 -1.375,-1.375 H 24.0625 V 36.972656 C 31.428202,35.962031 37.125,29.639844 37.125,22 v -4.125 c 0,-0.759687 -0.615312,-1.375 -1.375,-1.375 z m -4.125,0.896484 -6.636719,12.69336 C 27.396682,29.339236 30.25,26.003865 30.25,22 Z"
       style="fill:#999999;stroke-width:0.08593749;fill-opacity:1" />
  </g>
</svg>
