<svg xmlns="http://www.w3.org/2000/svg" aria-hidden="true" data-prefix="fas" data-icon="microphone" class="svg-inline--fa fa-microphone fa-w-11" width="44" height="44"><path d="M22 30.25A8.25 8.25 0 0030.25 22V8.25a8.25 8.25 0 10-16.5 0V22A8.25 8.25 0 0022 30.25zM35.75 16.5h-1.375c-.76 0-1.375.615-1.375 1.375V22c0 6.428-5.542 11.586-12.1 10.947-5.714-.558-9.9-5.695-9.9-11.437v-3.635c0-.76-.615-1.375-1.375-1.375H8.25c-.76 0-1.375.615-1.375 1.375v3.451c0 7.704 5.497 14.571 13.063 15.614v2.935h-4.813c-.76 0-1.375.615-1.375 1.375v1.375c0 .76.615 1.375 1.375 1.375h13.75c.76 0 1.375-.615 1.375-1.375V41.25c0-.76-.615-1.375-1.375-1.375h-4.812v-2.902C31.428 35.963 37.125 29.64 37.125 22v-4.125c0-.76-.615-1.375-1.375-1.375z"/></svg>