<?xml version="1.0" encoding="UTF-8" standalone="no"?>
<svg
   xmlns:dc="http://purl.org/dc/elements/1.1/"
   xmlns:cc="http://creativecommons.org/ns#"
   xmlns:rdf="http://www.w3.org/1999/02/22-rdf-syntax-ns#"
   xmlns:svg="http://www.w3.org/2000/svg"
   xmlns="http://www.w3.org/2000/svg"
   xmlns:sodipodi="http://sodipodi.sourceforge.net/DTD/sodipodi-0.dtd"
   xmlns:inkscape="http://www.inkscape.org/namespaces/inkscape"
   height="16"
   width="16"
   version="1.0"
   id="svg2"
   inkscape:version="0.92.3 (2405546, 2018-03-11)"
   sodipodi:docname="more_black.svg">
  <metadata
     id="metadata12">
    <rdf:RDF>
      <cc:Work
         rdf:about="">
        <dc:format>image/svg+xml</dc:format>
        <dc:type
           rdf:resource="http://purl.org/dc/dcmitype/StillImage" />
        <dc:title></dc:title>
      </cc:Work>
    </rdf:RDF>
  </metadata>
  <defs
     id="defs10" />
  <sodipodi:namedview
     pagecolor="#ffffff"
     bordercolor="#666666"
     borderopacity="1"
     objecttolerance="10"
     gridtolerance="10"
     guidetolerance="10"
     inkscape:pageopacity="0"
     inkscape:pageshadow="2"
     inkscape:window-width="1328"
     inkscape:window-height="890"
     id="namedview8"
     showgrid="false"
     fit-margin-top="0"
     fit-margin-bottom="0"
     fit-margin-right="0"
     fit-margin-left="0"
     inkscape:zoom="14.75"
     inkscape:cx="3.7214545"
     inkscape:cy="9.8372905"
     inkscape:window-x="1607"
     inkscape:window-y="108"
     inkscape:window-maximized="0"
     inkscape:current-layer="svg2" />
  <rect
     style="color:#000000;fill-opacity:0"
     height="97.986"
     width="163.31"
     y="-31.857407"
     x="-69.574966"
     id="rect4" />
  <path
     d="M 10.285714,2.2857143 C 10.285714,1.0233143 9.2624,0 8,0 6.7376,0 5.7142857,1.0233143 5.7142857,2.2857143 c 0,1.2624 1.0233143,2.2857143 2.2857143,2.2857143 1.2624,0 2.285714,-1.0233143 2.285714,-2.2857143 z M 10.285714,8 C 10.285714,6.7376 9.2624,5.7142857 8,5.7142857 6.7376,5.7142857 5.7142857,6.7376 5.7142857,8 5.7142857,9.2624 6.7376,10.285714 8,10.285714 9.2624,10.285714 10.285714,9.2624 10.285714,8 Z m 0,5.714286 C 10.285714,12.451429 9.2624,11.428571 8,11.428571 c -1.2624,0 -2.2857143,1.022858 -2.2857143,2.285715 C 5.7142857,14.977143 6.7376,16 8,16 c 1.2624,0 2.285714,-1.022857 2.285714,-2.285714 z"
     id="path6"
     inkscape:connector-curvature="0"
     style="fill-rule:evenodd;stroke-width:1.14285719" />
</svg>
