<svg xmlns="http://www.w3.org/2000/svg" width="55" height="55" viewBox="0 0 14.552 14.552"><g font-weight="400"><path style="line-height:normal;font-variant-ligatures:normal;font-variant-position:normal;font-variant-caps:normal;font-variant-numeric:normal;font-variant-alternates:normal;font-feature-settings:normal;text-indent:0;text-align:start;text-decoration-line:none;text-decoration-style:solid;text-decoration-color:#000;text-transform:none;text-orientation:mixed;white-space:normal;shape-padding:0;isolation:auto;mix-blend-mode:normal;solid-color:#000;solid-opacity:1" d="M8.1 1.614a.505.505 0 00-.312.116C6.39 2.89 4.976 3.88 3.551 4.92H.536a.505.505 0 00-.505.506v3.716c0 .279.226.505.505.505h3.088l4.115 3.185a.505.505 0 00.815-.396l.063-10.314a.505.505 0 00-.518-.508z" color="#000" font-family="sans-serif" overflow="visible" fill="#010101" paint-order="markers stroke fill"/><path d="M9.477 9.585A15.26 15.26 0 0011.27 7.4c-.59-.742-1.279-1.398-1.885-2.127.273-.307.707-.967.997-.28.469.6.906 1.234 1.464 1.758.417-.249.54-.792.88-1.133.352-.339.719-1.545 1.282-.887.285.446-.226.838-.42 1.207-.294.412-.621.8-.893 1.228.053.507.712.647.944 1.08.266.456 1.253.96.732 1.528-.47.385-.773-.355-1.064-.62-.355-.43-.703-.873-1.129-1.237-.466.089-.592.663-.945.928-.437.401-.9 1.463-1.594.888l-.086-.072z" aria-label="x" font-size="88.938" font-family="Architects Daughter" letter-spacing="0" word-spacing="0" stroke-width="1.668"/></g></svg>