<svg xmlns="http://www.w3.org/2000/svg" width="44" height="44"><path style="line-height:normal;font-variant-ligatures:normal;font-variant-position:normal;font-variant-caps:normal;font-variant-numeric:normal;font-variant-alternates:normal;font-feature-settings:normal;text-indent:0;text-align:start;text-decoration-line:none;text-decoration-style:solid;text-decoration-color:#000;text-transform:none;text-orientation:mixed;white-space:normal;shape-padding:0;isolation:auto;mix-blend-mode:normal;solid-color:#000;solid-opacity:1" d="M21.526 0C14.246 0 9.745 2.327 7.569 5.696c-2.175 3.37-1.94 7.047-1.94 9.028h5.585c0-2.15.04-4.436 1.048-5.998 1.008-1.561 3.06-3.139 9.264-3.139 1.302 0 2.428.104 3.443.265L28.532.926C26.504.346 24.174 0 21.526 0zm15.952 8.676l-4.703 6.503c.041 2.179.008 4.686-.024 7.13h-5.13L11.941 44h26.424V22.31l.01-7.652s.1-2.981-.897-5.982zM5.64 22.31v10.282l7.432-10.282z" color="#000" font-weight="400" font-family="sans-serif" overflow="visible" stroke-width=".462"/><path style="line-height:normal;font-variant-ligatures:normal;font-variant-position:normal;font-variant-caps:normal;font-variant-numeric:normal;font-variant-alternates:normal;font-feature-settings:normal;text-indent:0;text-align:start;text-decoration-line:none;text-decoration-style:solid;text-decoration-color:#000;text-transform:none;text-orientation:mixed;white-space:normal;shape-padding:0;isolation:auto;mix-blend-mode:normal;solid-color:#000;solid-opacity:1" d="M32.693-.027L.833 44.1h7.98L40.671-.027z" color="#000" font-weight="400" font-family="sans-serif" overflow="visible" fill-rule="evenodd"/></svg>