<svg xmlns="http://www.w3.org/2000/svg" width="44" height="44"><path style="line-height:normal;font-variant-ligatures:normal;font-variant-position:normal;font-variant-caps:normal;font-variant-numeric:normal;font-variant-alternates:normal;font-feature-settings:normal;text-indent:0;text-align:start;text-decoration-line:none;text-decoration-style:solid;text-decoration-color:#000;text-transform:none;text-orientation:mixed;white-space:normal;shape-padding:0;isolation:auto;mix-blend-mode:normal;solid-color:#000;solid-opacity:1" d="M21.526 0C14.246 0 9.746 2.325 7.57 5.695s-1.942 7.048-1.942 9.029h5.586c0-2.15.04-4.437 1.048-5.998 1.008-1.562 3.06-3.14 9.264-3.14 5.944 0 8.706 1.838 10.072 4.056 1.366 2.218 1.174 5.03 1.174 5.03.059 2.28.012 5.013-.022 7.637H5.64V44h32.724V22.31l.012-7.655s.187-4.874-2.006-8.433C34.178 2.662 29.066 0 21.526 0z" color="#000" font-weight="400" font-family="sans-serif" overflow="visible" stroke-width=".462"/></svg>