<svg xmlns="http://www.w3.org/2000/svg" version="1.0" width="44" height="44"><path d="M10.049 1.658a5.43 5.43 0 00-2.576.735A14.335 14.335 0 002.62 7.154a13.308 13.308 0 00-1.23 4.606c.023.75.056 1.468.111 2.207.06.238.173.485.355.656.205.192.458.287.729.299l10.682-.121c.5-.016.936-.374 1.044-.899l.32-2.043c.047-.2.135-.4.276-.55.414-.441 1.081-.441 1.522-.028l3.765 3.533 3.854-7.369a45.463 45.463 0 00-12.403-5.582 5.264 5.264 0 00-1.597-.205zm21.457 11.828l-4.19 8.012 5.63 5.281c.44.414.481 1.08.068 1.52a1.013 1.013 0 01-.46.297l-3.29 1.074a1.047 1.047 0 00-.69 1.293l3.018 10.59a.993.993 0 00.265.492c.258.242.637.355.957.271 2.692-.586 5.15-1.957 7.034-4.029.795-.89 1.461-1.923 2.062-3.016.798-1.474.908-3.25.358-4.837a45.627 45.627 0 00-10.762-16.948z" fill="#fff" stroke-width=".649"/><path style="line-height:normal;font-variant-ligatures:normal;font-variant-position:normal;font-variant-caps:normal;font-variant-numeric:normal;font-variant-alternates:normal;font-feature-settings:normal;text-indent:0;text-align:start;text-decoration-line:none;text-decoration-style:solid;text-decoration-color:#000;text-transform:none;text-orientation:mixed;white-space:normal;shape-padding:0;isolation:auto;mix-blend-mode:normal;solid-color:#000;solid-opacity:1" d="M31.387-3.124L6.585 44.316l5.679 2.967L37.067-.153z" color="#000" font-weight="400" font-family="sans-serif" overflow="visible" fill="#fff" fill-rule="evenodd"/></svg>