<svg xmlns="http://www.w3.org/2000/svg" version="1.0" width="44" height="44"><path d="M.12 13.424A55.234 55.234 0 010 11.07c.136-1.685.582-3.38 1.313-4.916a15.306 15.306 0 015.18-5.084 5.712 5.712 0 014.455-.565c15.204 4.257 27.373 15.633 32.686 30.499.589 1.695.47 3.59-.38 5.164-.642 1.167-1.353 2.269-2.202 3.22-2.01 2.211-4.635 3.675-7.508 4.3-.342.09-.747-.032-1.022-.29a1.06 1.06 0 01-.284-.525l-3.22-11.304a1.118 1.118 0 01.736-1.381l3.513-1.147c.21-.062.362-.178.49-.316.442-.47.397-1.181-.073-1.623l-17.63-16.543c-.471-.441-1.183-.441-1.625.03-.15.16-.244.374-.292.587l-.343 2.181c-.116.56-.582.942-1.116.96l-11.402.128a1.193 1.193 0 01-.778-.32c-.195-.183-.315-.446-.379-.7z" stroke-width=".649"/></svg>