<?xml version="1.0" encoding="UTF-8" standalone="no"?>
<svg
   xmlns:dc="http://purl.org/dc/elements/1.1/"
   xmlns:cc="http://creativecommons.org/ns#"
   xmlns:rdf="http://www.w3.org/1999/02/22-rdf-syntax-ns#"
   xmlns:svg="http://www.w3.org/2000/svg"
   xmlns="http://www.w3.org/2000/svg"
   version="1.1"
   id="svg2"
   height="45.078125"
   width="45.058594">
  <defs
     id="defs4" />
  <metadata
     id="metadata7">
    <rdf:RDF>
      <cc:Work
         rdf:about="">
        <dc:format>image/svg+xml</dc:format>
        <dc:type
           rdf:resource="http://purl.org/dc/dcmitype/StillImage" />
        <dc:title></dc:title>
      </cc:Work>
    </rdf:RDF>
  </metadata>
  <g
     transform="translate(-106.89174,-360.92804)"
     id="layer1">
    <g
       id="text2985"
       style="font-style:normal;font-weight:normal;line-height:0%;font-family:sans-serif;letter-spacing:0px;word-spacing:0px;fill:#000000;fill-opacity:1;stroke:none"
       aria-label="☺">
      <path
         id="path814"
         style="font-size:40px;line-height:1.25;font-family:sans-serif"
         d="m 121.11049,378.13507 q 0,-1.15234 0.78125,-1.93359 0.80078,-0.80078 1.95312,-0.80078 1.13282,0 1.9336,0.80078 0.80078,0.78125 0.80078,1.93359 0,1.15234 -0.80078,1.95313 -0.80078,0.80078 -1.9336,0.80078 -1.15234,0 -1.95312,-0.80078 -0.78125,-0.82032 -0.78125,-1.95313 z m 11.28906,0 q 0,-1.15234 0.80078,-1.93359 0.80078,-0.80078 1.9336,-0.80078 1.13281,0 1.93359,0.80078 0.82031,0.78125 0.82031,1.93359 0,1.13281 -0.82031,1.95313 -0.80078,0.80078 -1.93359,0.80078 -1.15235,0 -1.95313,-0.80078 -0.78125,-0.82032 -0.78125,-1.95313 z m -20.50781,5.37109 q 0,-7.28515 5.13672,-12.42187 5.13672,-5.15625 12.40234,-5.15625 7.28516,0 12.40235,5.15625 5.11718,5.13672 5.11718,12.42187 0,7.26563 -5.11718,12.38282 -5.11719,5.11718 -12.40235,5.11718 -7.26562,0 -12.40234,-5.11718 -5.13672,-5.11719 -5.13672,-12.38282 z m 2.63672,0 q 0,6.17188 4.35547,10.52735 4.375,4.33594 10.54687,4.33594 6.19141,0 10.52735,-4.33594 4.35546,-4.35547 4.35546,-10.52735 0,-6.1914 -4.35546,-10.5664 -4.33594,-4.375 -10.52735,-4.375 -6.17187,0 -10.54687,4.375 -4.35547,4.375 -4.35547,10.5664 z m 4.60937,5.48829 2.2461,-1.38672 q 0.54687,0.83984 1.32812,1.60156 2.77344,2.77344 6.71875,2.77344 3.94531,0 6.71875,-2.77344 0.76172,-0.76172 1.32813,-1.62109 l 2.24609,1.40625 q -0.72266,1.09375 -1.69922,2.08984 -3.55469,3.53516 -8.59375,3.53516 -5.03906,0 -8.59375,-3.53516 -0.99609,-0.99609 -1.69922,-2.08984 z" />
    </g>
  </g>
</svg>
