<svg xmlns="http://www.w3.org/2000/svg" height="44" width="44"><g style="line-height:0%"><path style="line-height:1.25" d="M11.576 15.312q0-1.446.98-2.426 1.004-1.004 2.45-1.004 1.42 0 2.425 1.004 1.004.98 1.004 2.426 0 1.445-1.004 2.45-1.004 1.004-2.425 1.004-1.446 0-2.45-1.004-.98-1.03-.98-2.45zm14.16 0q0-1.446 1.005-2.426 1.004-1.004 2.425-1.004 1.42 0 2.425 1.004 1.03.98 1.03 2.426 0 1.42-1.03 2.45-1.004 1.004-2.425 1.004-1.446 0-2.45-1.004-.98-1.03-.98-2.45zM.012 22.049q0-9.138 6.443-15.581Q12.9 0 22.012 0 31.15 0 37.57 6.468q6.419 6.443 6.419 15.581 0 9.114-6.419 15.532Q31.15 44 22.012 44 12.9 44 6.455 37.581.012 31.163.012 22.05zm3.308 0q0 7.742 5.463 13.205 5.488 5.439 13.23 5.439 7.765 0 13.204-5.44 5.463-5.462 5.463-13.204 0-7.766-5.463-13.254-5.439-5.488-13.205-5.488-7.741 0-13.23 5.488Q3.32 14.283 3.32 22.05zM9.1 28.933l2.818-1.74q.686 1.054 1.666 2.01 3.478 3.479 8.427 3.479t8.428-3.48q.955-.955 1.666-2.033l2.817 1.764q-.906 1.372-2.131 2.622-4.459 4.434-10.78 4.434-6.32 0-10.78-4.434-1.249-1.25-2.13-2.622z" font-size="40" aria-label="☺" font-weight="400" font-family="sans-serif" letter-spacing="0" word-spacing="0"/></g></svg>