<svg xmlns="http://www.w3.org/2000/svg" height="147.22" viewBox="0 0 192.891 147.218" width="192.896"><linearGradient id="a" y2="0" gradientUnits="userSpaceOnUse" x2="-1807.2" gradientTransform="translate(1925.995 9.999)" y1="125.86" x1="-1807.2"><stop stop-color="#1b3967" offset=".011"/><stop stop-color="#13b5ea" offset=".467"/><stop stop-color="#002b5c" offset=".995"/></linearGradient><path d="M146.285 24.188c.077 1.313-1.786.968-1.786 2.293 0 38.55-44.72 96.83-89.847 108.19v1.182c59.957-5.51 126.73-66.8 128.24-125.85l-36.6 14.189z" fill="url(#a)"/><path d="M130.225 27.959c.077 1.313.121 2.633.121 3.958 0 38.55-30.7 90.497-75.827 101.86v1.637c59.065-3.823 105.81-63.023 105.81-109.2a67.1 67.1 0 00-.37-7.056l-29.73 8.796z" fill="#e96d1f"/><linearGradient id="b" y2="0" gradientUnits="userSpaceOnUse" x2="-1073.2" gradientTransform="matrix(-1 0 0 1 -998.205 9.999)" y1="126.85" x1="-1073.2"><stop stop-color="#1b3967" offset=".011"/><stop stop-color="#13b5ea" offset=".467"/><stop stop-color="#002b5c" offset=".995"/></linearGradient><path d="M46.594 24.188c-.077 1.313 1.787.968 1.787 2.293 0 38.55 46.558 97.366 91.688 108.73v1.639C80.116 131.33 11.51 69.05 10 10l36.6 14.189z" fill="url(#b)"/><path d="M64.726 28.93a68.401 68.401 0 00-.12 3.958c0 38.55 30.7 90.497 75.827 101.86v1.639c-59.044-2.79-105.81-63.024-105.81-109.2 0-2.375.128-4.73.371-7.056l29.73 8.798z" fill="#a0ce67"/><path d="M34.708 19.582l7.617 2.722a84.24 84.24 0 00-.066 3.225c0 41.219 37.271 98.204 87.272 107.12 3.245 1.088 7.538 2.077 10.932 2.93v1.639c-65.254-5.56-111.1-71.866-105.76-117.64z" fill="#439639"/><path d="M160.335 18.759l-7.833 2.625c.041.963.191 2.203.191 3.173 0 41.219-37.272 98.205-87.274 107.12-3.243 1.089-7.538 2.077-10.93 2.932v1.639c68.344-8.66 111.18-71.72 105.84-117.49z" fill="#d9541e"/></svg>