<?xml version="1.0" encoding="UTF-8" standalone="no"?>
<!-- Created with Inkscape (http://www.inkscape.org/) -->

<svg
   xmlns:dc="http://purl.org/dc/elements/1.1/"
   xmlns:cc="http://creativecommons.org/ns#"
   xmlns:rdf="http://www.w3.org/1999/02/22-rdf-syntax-ns#"
   xmlns:svg="http://www.w3.org/2000/svg"
   xmlns="http://www.w3.org/2000/svg"
   xmlns:sodipodi="http://sodipodi.sourceforge.net/DTD/sodipodi-0.dtd"
   xmlns:inkscape="http://www.inkscape.org/namespaces/inkscape"
   width="535.00458"
   height="510.4368"
   id="svg3896"
   version="1.1"
   inkscape:version="0.48+devel r"
   sodipodi:docname="camera_icon_grey.svg">
  <defs
     id="defs3898" />
  <sodipodi:namedview
     id="base"
     pagecolor="#ffffff"
     bordercolor="#666666"
     borderopacity="1.0"
     inkscape:pageopacity="0.0"
     inkscape:pageshadow="2"
     inkscape:zoom="0.35"
     inkscape:cx="369.28572"
     inkscape:cy="50.436783"
     inkscape:document-units="px"
     inkscape:current-layer="layer1"
     showgrid="false"
     fit-margin-top="0"
     fit-margin-left="0"
     fit-margin-right="0"
     fit-margin-bottom="0"
     inkscape:window-width="954"
     inkscape:window-height="711"
     inkscape:window-x="129"
     inkscape:window-y="144"
     inkscape:window-maximized="0" />
  <metadata
     id="metadata3901">
    <rdf:RDF>
      <cc:Work
         rdf:about="">
        <dc:format>image/svg+xml</dc:format>
        <dc:type
           rdf:resource="http://purl.org/dc/dcmitype/StillImage" />
        <dc:title />
      </cc:Work>
    </rdf:RDF>
  </metadata>
  <g
     inkscape:label="Layer 1"
     inkscape:groupmode="layer"
     id="layer1"
     transform="translate(-5.7142771,-72.362177)">
    <rect
       style="fill:#808080;stroke:none;stroke-width:1.6172694;stroke-miterlimit:4;stroke-opacity:1;stroke-dasharray:none"
       id="rect3904"
       width="290.51404"
       height="294.08438"
       x="86.054779"
       y="292.97778" />
    <path
       style="fill:#808080;stroke:none"
       d="m 292.28572,420.35915 229.57599,-101.39986 0,232.54576 -233.04644,-102.93271 z"
       id="path3906"
       inkscape:connector-curvature="0" />
    <path
       sodipodi:type="arc"
       style="fill:#808080;stroke:none"
       id="path3908"
       sodipodi:cx="242.85715"
       sodipodi:cy="315.21933"
       sodipodi:rx="117.14286"
       sodipodi:ry="117.14286"
       d="M 360.00001,315.21933 A 117.14286,117.14286 0 0 1 242.85715,432.36219 117.14286,117.14286 0 0 1 125.71429,315.21933 117.14286,117.14286 0 0 1 242.85715,198.07647 117.14286,117.14286 0 0 1 360.00001,315.21933 Z"
       transform="matrix(1.1334136,0,0,1.1663886,-136.76164,-155.82534)" />
    <a
       id="a3912"
       style="fill:#808080;stroke:none"
       transform="matrix(0.86859739,0,0,0.89386794,47.913668,10.526572)">
      <path
         sodipodi:type="arc"
         style="fill:#808080;stroke:none"
         id="path3910"
         sodipodi:cx="242.85715"
         sodipodi:cy="315.21933"
         sodipodi:rx="117.14286"
         sodipodi:ry="117.14286"
         d="M 360.00001,315.21933 A 117.14286,117.14286 0 0 1 242.85715,432.36219 117.14286,117.14286 0 0 1 125.71429,315.21933 117.14286,117.14286 0 0 1 242.85715,198.07647 117.14286,117.14286 0 0 1 360.00001,315.21933 Z"
         transform="matrix(1.304878,0,0,1.304878,3.67247,-186.10345)" />
    </a>
  </g>
</svg>
