<?xml version="1.0" encoding="UTF-8" standalone="no"?>
<!-- Created with Inkscape (http://www.inkscape.org/) -->

<svg
   xmlns:dc="http://purl.org/dc/elements/1.1/"
   xmlns:cc="http://creativecommons.org/ns#"
   xmlns:rdf="http://www.w3.org/1999/02/22-rdf-syntax-ns#"
   xmlns:svg="http://www.w3.org/2000/svg"
   xmlns="http://www.w3.org/2000/svg"
   xmlns:sodipodi="http://sodipodi.sourceforge.net/DTD/sodipodi-0.dtd"
   xmlns:inkscape="http://www.inkscape.org/namespaces/inkscape"
   version="1.0"
   width="44"
   height="44"
   id="svg2380"
   inkscape:version="0.92.2 (5c3e80d, 2017-08-06)"
   sodipodi:docname="pick_up_white_disabled.svg"
   viewBox="0 0 44 44">
  <metadata
     id="metadata8">
    <rdf:RDF>
      <cc:Work
         rdf:about="">
        <dc:format>image/svg+xml</dc:format>
        <dc:type
           rdf:resource="http://purl.org/dc/dcmitype/StillImage" />
        <dc:title></dc:title>
      </cc:Work>
    </rdf:RDF>
  </metadata>
  <sodipodi:namedview
     pagecolor="#ffffff"
     bordercolor="#666666"
     borderopacity="1"
     objecttolerance="10"
     gridtolerance="10"
     guidetolerance="10"
     inkscape:pageopacity="0"
     inkscape:pageshadow="2"
     inkscape:window-width="1877"
     inkscape:window-height="1173"
     inkscape:document-units="px"
     id="namedview6"
     showgrid="false"
     inkscape:zoom="7.8692539"
     inkscape:cx="4.5740478"
     inkscape:cy="23.777944"
     inkscape:window-x="1243"
     inkscape:window-y="27"
     inkscape:window-maximized="1"
     inkscape:current-layer="svg2380" />
  <defs
     id="defs2382" />
  <g
     transform="matrix(0.08332688,0.07818846,-0.07818846,0.08332688,12.650804,-4.1622807)"
     id="layer1"
     style="fill:#ffffff;stroke-width:0.64853716">
    <path
       style="fill:#ffffff;stroke-width:0.07410599"
       d="M 10.048828 1.6582031 C 9.1567233 1.6812909 8.2724071 1.9305916 7.4726562 2.3925781 C 5.4880467 3.5816087 3.8206037 5.2083704 2.6210938 7.1542969 C 1.9371435 8.5938474 1.5176413 10.181559 1.390625 11.759766 C 1.4144802 12.509604 1.4471865 13.228368 1.5019531 13.966797 C 1.5616461 14.204671 1.6747452 14.451635 1.8574219 14.623047 C 2.0615911 14.814626 2.3145017 14.909661 2.5859375 14.921875 L 13.267578 14.800781 C 13.767469 14.784877 14.204092 14.42704 14.3125 13.902344 L 14.632812 11.859375 C 14.678591 11.659845 14.76704 11.459034 14.908203 11.308594 C 15.321608 10.86802 15.989113 10.867844 16.429688 11.28125 L 20.195312 14.814453 L 24.048828 7.4453125 C 20.26468 5.0029116 16.093991 3.108613 11.646484 1.8632812 C 11.121724 1.7118741 10.584091 1.6443505 10.048828 1.6582031 z M 31.505859 13.486328 L 27.316406 21.498047 L 32.945312 26.779297 C 33.385888 27.192704 33.427077 27.858255 33.013672 28.298828 C 32.892675 28.427777 32.750903 28.537336 32.554688 28.595703 L 29.263672 29.669922 C 28.716677 29.843697 28.411188 30.425979 28.574219 30.962891 L 31.591797 41.552734 C 31.628672 41.728785 31.728474 41.923925 31.857422 42.044922 C 32.115319 42.286916 32.493927 42.399578 32.814453 42.316406 C 35.506295 41.730372 37.964108 40.359047 39.847656 38.287109 C 40.642896 37.396539 41.309003 36.364378 41.910156 35.271484 C 42.707668 33.797045 42.818493 32.021509 42.267578 30.433594 C 39.953253 23.959217 36.236715 18.205786 31.505859 13.486328 z "
       transform="matrix(6.3818741,-5.9883306,5.9883306,6.3818741,-55.810725,102.32035)"
       id="path4" />
  </g>
  <path
     style="color:#000000;font-style:normal;font-variant:normal;font-weight:normal;font-stretch:normal;font-size:medium;line-height:normal;font-family:sans-serif;font-variant-ligatures:normal;font-variant-position:normal;font-variant-caps:normal;font-variant-numeric:normal;font-variant-alternates:normal;font-feature-settings:normal;text-indent:0;text-align:start;text-decoration:none;text-decoration-line:none;text-decoration-style:solid;text-decoration-color:#000000;letter-spacing:normal;word-spacing:normal;text-transform:none;writing-mode:lr-tb;direction:ltr;text-orientation:mixed;baseline-shift:baseline;text-anchor:start;white-space:normal;shape-padding:0;clip-rule:nonzero;display:inline;overflow:visible;visibility:visible;opacity:1;isolation:auto;mix-blend-mode:normal;color-interpolation:sRGB;color-interpolation-filters:linearRGB;solid-color:#000000;solid-opacity:1;fill:#ffffff;fill-opacity:1;fill-rule:evenodd;stroke:none;stroke-width:3.00000024;stroke-linecap:butt;stroke-linejoin:miter;stroke-miterlimit:4;stroke-dasharray:none;stroke-dashoffset:0;stroke-opacity:1;color-rendering:auto;image-rendering:auto;shape-rendering:auto;text-rendering:auto;enable-background:accumulate"
     d="M 31.387414,-3.1242403 6.5845152,44.315897 12.263645,47.282728 37.066543,-0.15323371 Z"
     id="path4160-5"
     inkscape:connector-curvature="0" />
</svg>
